<?xml version="1.0" encoding="UTF-8" standalone="no"?>
<!-- Created with Inkscape (http://www.inkscape.org/) -->

<svg
   xmlns:dc="http://purl.org/dc/elements/1.1/"
   xmlns:cc="http://creativecommons.org/ns#"
   xmlns:rdf="http://www.w3.org/1999/02/22-rdf-syntax-ns#"
   xmlns:svg="http://www.w3.org/2000/svg"
   xmlns="http://www.w3.org/2000/svg"
   xmlns:sodipodi="http://sodipodi.sourceforge.net/DTD/sodipodi-0.dtd"
   xmlns:inkscape="http://www.inkscape.org/namespaces/inkscape"
   width="526.37091"
   height="405.58566"
   id="svg2"
   version="1.1"
   inkscape:version="0.48.1 r9760"
   sodipodi:docname="car_extended.svg"
   inkscape:export-filename="./car_extended.png"
   inkscape:export-xdpi="22.190134"
   inkscape:export-ydpi="22.190134">
  <defs
     id="defs4">
    <filter
       inkscape:collect="always"
       id="filter4505"
       x="-0.020529654"
       width="1.0410593"
       y="-0.14608081"
       height="1.2921616"
       color-interpolation-filters="sRGB">
      <feGaussianBlur
         inkscape:collect="always"
         stdDeviation="4.2549986"
         id="feGaussianBlur4507" />
    </filter>
  </defs>
  <sodipodi:namedview
     id="base"
     pagecolor="#ffffff"
     bordercolor="#666666"
     borderopacity="1.0"
     inkscape:pageopacity="0.0"
     inkscape:pageshadow="2"
     inkscape:zoom="0.98994949"
     inkscape:cx="606.42499"
     inkscape:cy="196.66812"
     inkscape:document-units="px"
     inkscape:current-layer="g3066"
     showgrid="false"
     fit-margin-top="0"
     fit-margin-left="0"
     fit-margin-right="0"
     fit-margin-bottom="0"
     inkscape:window-width="1920"
     inkscape:window-height="1022"
     inkscape:window-x="0"
     inkscape:window-y="26"
     inkscape:window-maximized="1" />
  <metadata
     id="metadata7">
    <rdf:RDF>
      <cc:Work
         rdf:about="">
        <dc:format>image/svg+xml</dc:format>
        <dc:type
           rdf:resource="http://purl.org/dc/dcmitype/StillImage" />
        <dc:title></dc:title>
      </cc:Work>
    </rdf:RDF>
  </metadata>
  <g
     inkscape:label="Layer 1"
     inkscape:groupmode="layer"
     id="layer1"
     transform="translate(14.789845,-660.45579)">
    <g
       id="g2996"
       transform="translate(927.6684,-303.14717)">
      <g
         id="g3066"
         transform="translate(207.14286,-102.85714)">
        <path
           style="fill:#ffffff;filter:url(#filter4505)"
           d="m -896.4789,1384 c -10.11124,0.844 -14.24344,11.7932 -21.09375,17.7812 -13.9576,16.1892 -29.67357,31.1068 -41.6875,48.75 -2.1606,7.6973 9.53809,14.4393 14.46875,7.5938 18.13129,-18.3096 34.43952,-38.61 52.0625,-57.2188 7.98075,-1.841 11.69855,6.874 16.26625,11.4277 14.48326,15.8586 28.64143,32.3517 43.765,47.5099 7.2091,4.216 16.80692,-5.997 10.92209,-12.5119 -17.34385,-20.7478 -35.98318,-40.4752 -53.89487,-60.8104 -3.79331,-4.9197 -11.34288,-1.4473 -16.8709,-2.4426 -1.3315,0.1895 -2.61507,-0.2248 -3.93757,-0.079 z m 160.21875,0.125 c -11.04802,0.8816 -23.16415,-1.4968 -33.5625,2.125 -4.50537,6.7499 -1.58104,15.5017 -2.5625,23.0938 0.31576,16.2192 -1.55999,32.8376 1.40625,48.8124 3.56291,6.6852 15.55719,3.6399 14.85379,-4.1848 1.3779,-17.4374 0.63723,-34.9414 1.02121,-52.4089 33.71328,0.3169 67.63467,-1.558 101.21875,0.6875 5.03669,3.0817 1.40842,13.0626 -4.78118,10.8245 -28.40689,0.6099 -56.98232,-1.3377 -85.28132,1.1443 -6.0198,1.7061 -8.84703,10.266 -3.15625,14.1874 6.00557,4.7544 14.19951,1.4798 21.1875,2.8126 10.16269,-0.3222 21.22785,-1.7029 30.03125,4.5312 17.81564,8.4729 35.43196,17.9715 53.78125,25.0625 8.44863,0.4842 11.9386,-13.3444 3.71875,-16.2813 -8.7368,-4.8261 -17.7342,-9.1947 -26.625,-13.5624 10.10695,0.4787 22.02191,-1.0287 27.6875,-10.5 9.12384,-12.7424 1.40935,-34.8186 -15.3125,-35.5938 -16.89219,-1.7185 -33.9962,-0.2107 -50.96875,-0.8125 -10.88551,-3e-4 -21.77094,-0.018 -32.65625,0.062 z m -292.40625,0.031 c -28.1263,0.6729 -56.349,-0.9144 -84.4063,1.4688 -17.3441,5.1208 -28.5572,23.9284 -25.9375,41.7188 0.854,19.1633 19.7435,34.7756 38.809,32.9579 31.5514,1.191 63.2742,0.6777 94.7535,0.4795 5.3111,-2.7398 7.71575,-9.6791 3.5,-14.4687 -3.6253,-5.8596 -11.3082,-2.3956 -16.7812,-3.3278 -30.1518,-0.456 -60.5171,1.2996 -90.5313,-1.4222 -16.1826,-5.9315 -16.2775,-32.6528 0.1562,-38.375 11.8226,-3.3695 24.4667,-1.3502 36.6563,-2.125 22.6841,-0.3395 45.5707,1.0648 68.125,-1.3437 7.07254,-2.6339 5.47824,-15.0663 -2.4641,-14.9093 -7.2665,-0.7638 -14.5828,-0.7282 -21.8796,-0.6533 z"
           id="path2998-0"
           inkscape:connector-curvature="0" />
        <path
           sodipodi:nodetypes="cssssssssssssscsscssscsccsccsc"
           inkscape:connector-curvature="0"
           id="path3008"
           d="m -1126.7857,1348.4601 c -1.2374,-0.4428 35.5519,-44.8727 60.9675,-73.6295 3.85,-4.3562 9.25,-10.5784 12,-13.8272 2.75,-3.2488 9.0678,-10.6626 14.0395,-16.4751 10.0751,-11.7789 28.6116,-34.2024 32.4605,-39.2672 1.375,-1.8094 12.41355,-14.9923 24.52995,-29.2954 12.1165,-14.3031 32.1143,-37.9306 44.4397,-52.5056 40.4849,-47.8744 48.2428,-57 48.4568,-57 0.5837,0 45.0657,52.9036 69.0736,82.1508 9.1754,11.1778 23.0062,27.6767 32.5668,38.8492 2.1179,2.475 5.1068,6.0485 6.642,7.9411 1.5352,1.8926 5.3677,6.2055 8.5168,9.5841 5.3672,5.7585 57.2074,67.0706 66.5245,78.6793 2.3375,2.9125 5.4245,6.6455 6.86,8.2955 1.4356,1.65 4.248,5.025 6.25,7.5 2.0019,2.475 3.8849,4.725 4.1844,5 0.2995,0.275 5.2495,6.125 11,13 5.7505,6.875 10.6921,12.725 10.9812,13 3.9701,3.7762 13.8758,16.3503 13.4383,17.0583 -0.3533,0.5715 -23.5124,0.9417 -58.9141,0.9417 l -58.3322,0 -15.0211,-17.75 c -8.2616,-9.7625 -34.9273,-41.2996 -59.2571,-70.0825 l -44.236,-52.3325 -2.7373,2.8325 c -1.5054,1.5579 -15.4459,17.9075 -30.9788,36.3325 -31.153,36.9536 -49.9182,62.5261 -71.994,85.2026 l -13.50655,15.9285 -58.2785,0.1845 c -32.0532,0.1014 -58.9073,-0.041 -59.6759,-0.3156 z"
           style="fill:#69c6eb" />
        <path
           sodipodi:nodetypes="ccssssscscccssssscsssssssscccssssssscsssssssscssscccc"
           inkscape:connector-curvature="0"
           id="path3004"
           d="m -1124.1756,1344.2094 c 1.8209,-2.3375 7.5297,-9.2 12.6864,-15.25 17.6648,-20.7253 24.3137,-26.0224 32.7524,-38.8275 l 9.7943,-11.8274 3.1077,3.3274 c 1.7092,1.8301 9.8371,11.362 18.0621,21.1819 21.2325,25.3498 28.0625,33.4683 32.7992,38.9868 2.2854,2.6627 4.3053,5.2502 4.4886,5.75 0.1975,0.5385 -23.5716,0.9088 -58.334,0.9088 l -58.6673,0 z m 114.8574,-65.8903 0,-70.5002 16.05625,-18.9298 c 8.8309,-10.4113 21.7177,-25.6797 28.6374,-33.9297 6.9197,-8.25 13.532,-15.9642 14.6939,-17.1427 1.1619,-1.1785 3.9125,-4.325 6.1125,-6.9923 2.2,-2.6673 6.7,-8.0074 10,-11.8668 9.3109,-10.8891 14.9282,-17.5672 29.3785,-34.9265 7.3582,-8.8395 13.8832,-16.1717 14.5,-16.2938 0.6168,-0.1222 8.0965,8.1396 16.6215,18.3595 22.1698,26.5775 25.6774,30.7528 33.4245,39.7873 3.8085,4.4414 7.583,8.8542 8.3878,9.8062 1.3203,1.5619 0.988,2.2945 -3.4023,7.5 -2.6759,3.173 -5.118,5.9941 -5.4267,6.2691 -0.3087,0.275 -7.5187,8.7986 -16.0223,18.9413 -8.5035,10.1427 -18.4188,21.8427 -22.0338,26 -3.615,4.1573 -6.9035,9.2488 -8.365,10.3087 l -1.7922,2.75 58.9269,0 58.927,0 2.1601,2.9218 c 1.1881,1.6069 6.5177,7.9623 11.8436,14.123 5.3258,6.1608 13.3259,15.5742 17.7779,20.9188 4.452,5.3447 12.5323,14.97 17.9564,21.3897 10.6555,12.6114 10.2192,11.2545 5.5035,17.1152 -2.5927,3.2222 -14.2248,16.9795 -14.8233,17.5315 -0.2982,0.275 -2.7871,3.2 -5.5309,6.5 -2.7439,3.3 -5.4439,6.4884 -6,7.0854 -0.5562,0.597 -2.5035,2.9242 -4.3274,5.1715 -1.8239,2.2474 -4.4402,5.3589 -5.8141,6.9146 -1.3738,1.5557 -5.9255,6.8785 -10.115,11.8285 -4.1894,4.95 -7.9178,9 -8.2852,9 -0.6328,0 -44.355,-51.2059 -59.4251,-69.5967 -7.4709,-9.1172 -11.846,-14.3065 -25.6211,-30.3896 -4.7172,-5.5075 -9.4422,-11.0847 -10.5,-12.3936 -2.8964,-3.584 -14.1364,-18.9894 -19.8758,-23.4443 l -4.2152,-4.8242 -12.9676,15.3242 c -22.0574,26.0659 -61.194,72.5267 -88.0145,104.4861 -6.1324,7.3073 -12.31525,15.6634 -14.75005,17.4921 l -3.6002,4.206 z"
           style="fill:#02a7dd" />
        <path
           sodipodi:nodetypes="cssssscscsssssscsssscssssssssssscsssssssssscsssssssssssssssscs"
           inkscape:connector-curvature="0"
           id="path3002"
           d="m -1009.296,1278.3682 -0.022,-70.5912 9.2182,-10.9088 c 5.07015,-5.9999 15.75765,-18.5759 23.75005,-27.9469 14.7736,-17.3215 21.226,-24.9731 24.8444,-29.4619 1.1084,-1.375 2.1944,-2.275 2.4134,-2 3.9253,4.9297 13.811,17.0567 15.4621,18.9676 1.2034,1.3928 11.1055,13.0882 22.0045,25.9898 10.8991,12.9015 20.1594,23.364 20.5785,23.25 0.4191,-0.1141 0.79,-31.2574 0.8242,-69.2074 0.034,-37.95 0.3643,-68.9801 0.7335,-68.9557 0.3692,0.024 7.6462,8.3987 16.1712,18.6095 22.8434,27.3608 25.8248,30.9082 33.4246,39.7709 3.8085,4.4414 7.5246,8.7897 8.258,9.663 1.1314,1.3468 1.0145,1.9535 -0.7703,4 -1.1571,1.3267 -13.4232,15.9037 -27.258,32.3932 -13.8349,16.4894 -26.3571,31.2269 -27.8273,32.75 l -2.6731,2.7691 -59.0769,0 c -32.4923,0 -59.07705,0.3457 -59.07705,0.7683 0,0.7408 5.335,7.5023 10.84285,13.7421 1.4615,1.6557 5.1294,5.9307 8.151,9.5 3.0216,3.5693 5.7278,6.7146 6.0138,6.9896 0.2859,0.275 2.5367,2.975 5.0017,6 2.465,3.025 4.9338,6.0037 5.4862,6.6193 0.5525,0.6157 3.0295,3.5219 5.5045,6.4582 2.475,2.9364 6.075,7.1794 8,9.429 1.925,2.2495 4.6137,5.502 5.9748,7.2277 2.0007,2.5365 2.7505,2.9104 3.9138,1.9517 3.5251,-2.9053 -1.4668,3.6582 -13.9291,18.3141 -16.0239,18.8445 -41.81635,49.4022 -44.18725,52.351 -1.6411,2.0411 0.1699,-1.4215 -1.75,-68.4422 z m 210.97785,37.486 c -15.125,-17.8983 -28.4659,-33.7579 -29.6465,-35.2437 l -2.1464,-2.7013 4.1464,-4.5446 c 2.2806,-2.4995 5.6499,-6.4039 7.4873,-8.6766 1.8375,-2.2726 4.2272,-5.1662 5.3106,-6.4303 1.0834,-1.2641 2.73,-3.2032 3.6592,-4.3092 0.9292,-1.106 5.7394,-6.7789 10.6894,-12.6066 4.95,-5.8277 11.9936,-14.1478 15.6525,-18.4891 3.6588,-4.3414 7.8286,-9.162 9.2663,-10.7125 1.4376,-1.5505 2.3119,-3.3076 1.943,-3.9045 -0.3923,-0.6348 -0.2071,-0.7988 0.4461,-0.3951 0.8042,0.497 1.1322,20.0306 1.1716,69.7777 0.03,37.9981 0.2986,69.482 0.5967,69.9642 0.298,0.4822 0.1778,0.8626 -0.2672,0.8453 -0.4449,-0.017 -13.184,-14.6754 -28.309,-32.5737 z m -276.50005,-30.3948 c 0.9955,-1.1 2.035,-2 2.31,-2 0.275,0 -0.3145,0.9 -1.31,2 -0.9955,1.1 -2.035,2 -2.31,2 -0.275,0 0.3145,-0.9 1.31,-2 z m 157.50005,-47.3776 c 0,-0.2076 0.7875,-0.9951 1.75,-1.75 1.5861,-1.2438 1.6214,-1.2085 0.3776,0.3776 -1.3064,1.6657 -2.1276,2.1955 -2.1276,1.3724 z m 19,-161 c 0,-0.2076 0.7875,-0.9951 1.75,-1.75 1.5861,-1.2438 1.6214,-1.2085 0.3776,0.3776 -1.3064,1.6657 -2.1276,2.1955 -2.1276,1.3724 z"
           style="fill:#016fb4" />
        <path
           sodipodi:nodetypes="csssssscsssscsssscssscssscscssssssssscsscsccscsscsssssscccsssc"
           inkscape:connector-curvature="0"
           id="path2998"
           d="m -766.56815,1457.3799 c -1.6103,-0.9379 -1.75,-3.6338 -1.75,-33.7696 0,-24.1391 0.3155,-33.0658 1.2,-33.9503 0.9053,-0.9053 15.1965,-1.2 58.1843,-1.2 55.8653,0 57.0695,0.041 61.3272,2.1024 5.8448,2.8294 9.213,7.4649 9.9509,13.695 0.8413,7.1032 -0.2841,11.7021 -3.8602,15.775 -5.4325,6.1874 -7.6745,6.9384 -24.3022,7.4275 l -15,0.5001 20.9589,10.279 c 11.5274,5.6535 21.3081,10.8285 21.7347,11.5 2.2095,3.4775 -0.874,8.269 -4.7027,7.308 -1.2219,-0.3066 -15.3852,-7.5033 -31.9094,-15.0723 l -29.6878,-14.5147 -19.3902,0 c -18.9036,0 -19.4292,-0.056 -20.9468,-2.2225 -2.0214,-2.886 -1.9747,-3.3102 0.6319,-5.7386 2.1348,-1.9889 3.286,-2.0389 46.9111,-2.0389 l 44.7225,0 2.5889,-3.0767 c 4.5902,-5.4552 3.0497,-13.2528 -3.1213,-15.7987 -2.0096,-0.829 -17.1922,-1.0702 -54.2898,-0.8878 l -51.5,0.2632 -0.2569,29 c -0.229,25.8398 -0.4405,29.1362 -1.9412,30.25 -2.0121,1.4934 -3.2163,1.5302 -5.5519,0.1699 z m -343.24995,-1.3192 c -9.6221,-2.3654 -16.7923,-7.9603 -21.6095,-16.8619 -3.1595,-5.8381 -3.3768,-6.8503 -3.3834,-15.7598 -0.01,-8.7532 0.2584,-10.0604 3.2849,-16.2081 3.583,-7.2781 8.8526,-12.5071 16.208,-16.0831 4.4291,-2.1533 5.327,-2.1923 56.9881,-2.4723 48.7456,-0.2641 52.5782,-0.1613 53.75,1.4412 1.6758,2.2917 1.591,3.8712 -0.3096,5.7719 -1.3844,1.3843 -7.212,1.5714 -48.9508,1.5714 -30.4744,0 -49.1963,0.3896 -52.4715,1.0921 -23.4603,5.0313 -25.8208,39.4294 -3.2583,47.4811 2.9366,1.048 14.5596,1.3471 53.4789,1.3829 l 49.727,0.044 1.6381,2.5 c 1.5174,2.3159 2.2818,3.4319 0,5 l -1.6381,2.5 -49.227,-0.085 c -35.2989,-0.061 -50.6415,-0.4328 -54.2268,-1.3142 z m 156.07135,-0.1721 c -0.8643,-0.8643 -1.5714,-2.4355 -1.5714,-3.4915 0,-1.8164 12.1219,-15.7613 53.0892,-61.0733 2.5236,-2.7913 2.8446,-2.8638 12.6742,-2.8638 l 10.085,0 16.8273,18.75 c 9.255,10.3125 19.8131,22.1352 23.4624,26.2728 3.6492,4.1375 8.0982,9.0875 9.8866,11 5.2963,5.6638 6.2688,7.5602 5.0474,9.8424 -1.6154,3.0185 -4.9159,3.663 -7.6327,1.4903 -1.2761,-1.0205 -13.0441,-15.1066 -27.4462,-30.1055 l -25.1259,-28.25 -5.1837,0.029 -5.1836,0.03 -21.5,24.1562 c -29.62,33.2793 -32.0045,35.7848 -34.0561,35.7848 -0.9906,0 -2.5082,-0.7072 -3.3725,-1.5714 z"
           style="fill:#161615" />
      </g>
    </g>
  </g>
</svg>
