<?xml version="1.0" encoding="UTF-8" standalone="no"?>
<!-- Created with Inkscape (http://www.inkscape.org/) -->

<svg
   xmlns:dc="http://purl.org/dc/elements/1.1/"
   xmlns:cc="http://creativecommons.org/ns#"
   xmlns:rdf="http://www.w3.org/1999/02/22-rdf-syntax-ns#"
   xmlns:svg="http://www.w3.org/2000/svg"
   xmlns="http://www.w3.org/2000/svg"
   xmlns:sodipodi="http://sodipodi.sourceforge.net/DTD/sodipodi-0.dtd"
   xmlns:inkscape="http://www.inkscape.org/namespaces/inkscape"
   width="282.85718"
   height="237.28574"
   id="svg3049"
   version="1.1"
   inkscape:version="0.48.4 r9939"
   sodipodi:docname="etsii_upm.svg">
  <defs
     id="defs3051" />
  <sodipodi:namedview
     id="base"
     pagecolor="#ffffff"
     bordercolor="#666666"
     borderopacity="1.0"
     inkscape:pageopacity="0.0"
     inkscape:pageshadow="2"
     inkscape:zoom="2.8"
     inkscape:cx="159.96653"
     inkscape:cy="93.154942"
     inkscape:document-units="px"
     inkscape:current-layer="g4064"
     showgrid="false"
     fit-margin-top="0"
     fit-margin-left="0"
     fit-margin-right="0"
     fit-margin-bottom="0"
     inkscape:window-width="1336"
     inkscape:window-height="782"
     inkscape:window-x="1"
     inkscape:window-y="59"
     inkscape:window-maximized="0" />
  <metadata
     id="metadata3054">
    <rdf:RDF>
      <cc:Work
         rdf:about="">
        <dc:format>image/svg+xml</dc:format>
        <dc:type
           rdf:resource="http://purl.org/dc/dcmitype/StillImage" />
        <dc:title></dc:title>
      </cc:Work>
    </rdf:RDF>
  </metadata>
  <g
     inkscape:label="Layer 1"
     inkscape:groupmode="layer"
     id="layer1"
     transform="translate(-301.42857,-574.86217)">
    <g
       id="g4064"
       transform="matrix(0.3143011,0,0,0.31428573,3.5895871,585.84692)">
      <path
         style="fill:#00b7f8;fill-opacity:1"
         d="m 1370.623,720.04855 c -0.8979,-0.29642 -3.0395,0.65077 -3,-0.5831 0,-32.13897 0,-64.27793 0,-96.4169 2,0 4,0 6,0 0,32.33333 0,64.66667 0,97 -1,0 -2,0 -3,0 z"
         id="path4057"
         inkscape:connector-curvature="0" />
      <path
         style="fill:#00b7f8;fill-opacity:1"
         d="m 1235.2152,700.70367 c -5.4757,0.0271 -11.4152,0.2753 -16.2287,-2.77354 -1.6922,-3.24163 -1.7587,-7.08157 -2.1089,-10.66696 -0.2402,-1.47073 -0.3248,-5.79842 1.4321,-2.52607 2.2739,3.82585 4.2139,8.48645 8.647,10.2587 3.8867,1.8617 8.5581,2.28267 12.6848,1.02691 4.9691,-1.71016 9.8875,-6.09026 9.733,-11.72499 -0.247,-4.57272 -3.381,-8.49034 -7.314,-10.61014 -6.1355,-3.76206 -12.8674,-6.62856 -18.5137,-11.14034 -3.6182,-3.60991 -5.4252,-8.94185 -4.7231,-13.99839 1.073,-6.36932 5.6407,-12.21348 11.8669,-14.2192 7.1443,-2.78774 15.1719,-1.78803 22.3177,0.43878 2.894,0.77012 2.5509,4.1456 2.4698,6.47908 -0.156,2.77522 -0.1136,5.68725 -1.2018,8.28807 -2.36,-0.44374 -2.4468,-4.58064 -3.5798,-6.63193 -1.9204,-4.5063 -7.4469,-5.93452 -11.9322,-5.62719 -3.2854,0.1035 -6.9801,0.52092 -9.0887,3.39002 -2.2953,2.39073 -4.075,6.09383 -2.3062,9.29295 1.8853,4.52443 6.5962,6.7333 10.5369,9.14722 4.9124,2.66734 10.1262,4.94808 14.506,8.46969 2.6647,2.35989 4.7677,5.4702 5.1207,9.09169 1.1047,5.42079 -0.083,11.26018 -3.5364,15.62444 -3.7386,4.94355 -9.6973,8.2352 -15.9517,8.27613 -0.9424,0.0616 -1.886,0.10221 -2.8297,0.13507 z"
         id="path4055"
         inkscape:connector-curvature="0" />
      <path
         style="fill:#00b7f8;fill-opacity:1"
         d="m 1443.5523,701.03878 c -4.753,0.20893 -9.5787,-0.63142 -13.6986,-3.10507 -8.3304,-4.17522 -12.2373,-13.71852 -12.5996,-22.61872 -0.9095,-10.987 -0.3927,-22.02003 -0.8408,-33.02083 0.3881,-3.52366 -2.7626,-5.99885 -6.0128,-6.24561 -4.1458,-0.97507 1.259,-2.02102 2.9477,-1.79328 7.3194,-0.25721 14.6878,-0.44127 21.9815,0.33142 2.2188,0.97244 -3.2116,2.04061 -4.1938,2.49581 -4.1346,0.86866 -2.8993,5.89786 -3.3602,8.97398 -0.1686,10.90998 -0.4683,21.86552 0.568,32.74163 0.6286,6.52309 4.5379,12.92086 10.7864,15.39686 6.4958,3.288 14.9975,1.43602 19.7014,-4.04862 2.8435,-3.45492 4.7977,-7.6891 4.8372,-12.22139 0.6481,-10.98525 0.5964,-22.01557 0.1203,-33.00714 0.1322,-3.56739 -0.988,-7.76876 -5.1462,-8.36497 -2.0464,-0.0873 -5.4086,-2.3457 -1.3323,-2.18285 6.8039,-0.42324 13.692,-0.60182 20.4651,0.26437 2.2807,1.63311 -3.3364,1.20457 -4.1324,2.55178 -3.0478,2.08455 -2.3897,6.31144 -2.817,9.50877 -0.7041,11.55383 -0.175,23.21306 -1.92,34.68373 -1.0426,4.46722 -3.2042,8.69191 -5.9221,12.36846 -4.8234,5.42478 -12.3547,7.57573 -19.4318,7.29167 z"
         id="path4053"
         inkscape:connector-curvature="0" />
      <path
         style="fill:#00b7f8;fill-opacity:1"
         d="m 1124.3285,699.81665 c -7.7385,0.003 -15.5041,0.22853 -23.2216,-0.42974 -0.6843,-1.45067 3.7023,-2.45018 5.1203,-3.29873 2.946,-1.2058 2.8501,-4.85533 3.0693,-7.5256 0.4403,-14.33338 0.1879,-28.68269 -0.2231,-43.01382 -0.2282,-2.80716 0.049,-6.3905 -2.8239,-7.97383 -1.162,-1.68831 -5.6859,-0.97146 -5.2397,-2.75243 6.8128,-0.91942 13.7319,-0.63343 20.5927,-0.77157 8.3402,-0.005 16.6804,-9.6e-4 25.0206,-0.002 -0.099,4.16211 0.3068,8.38093 -0.5189,12.48711 -1.6098,1.04487 -2.4748,-3.59661 -3.3545,-4.846 -1.283,-3.17227 -5.1064,-3.19949 -7.9892,-3.40282 -5.0388,-0.34724 -10.0912,-0.21017 -15.1374,-0.23829 0,8.33333 0,16.66667 0,25 5.8968,-0.0848 11.8357,0.24811 17.6871,-0.61379 3.2787,-0.56677 2.7921,-5.72731 5.4961,-6.22322 1.0961,3.61339 0.7161,7.5067 0.798,11.24541 -0.2939,2.39351 0.2982,5.79615 -1.1119,7.52237 -2.1669,-2.1109 -1.8395,-6.25641 -5.1621,-7.31161 -5.8571,-0.87102 -11.8039,-0.53317 -17.7072,-0.61916 0.1002,8.09601 -0.2975,16.21741 0.4651,24.28853 -0.2691,3.7388 4.0258,3.34673 6.5848,3.58851 4.6921,0.0961 9.4393,0.37972 14.101,-0.26529 3.112,-0.8198 4.8736,-3.85265 6.8311,-6.16891 0.5087,-1.71744 3.2465,-3.72147 2.5003,-0.51475 -0.3671,3.90872 -1.3404,7.72235 -2.0714,11.57191 -7.9018,0.0894 -15.8037,0.17873 -23.7055,0.2681 z"
         id="path4051"
         inkscape:connector-curvature="0" />
      <path
         style="fill:#00b7f8;fill-opacity:1"
         d="m 1183.1231,700.04855 c -4.7359,-0.0758 -9.5205,0.0514 -14.2045,-0.72309 0.016,-1.5406 3.3669,-2.10665 4.9522,-2.74774 1.0841,-0.34306 2.1682,-0.68611 3.2523,-1.02917 0.1769,-19.16667 0.3537,-38.33333 0.5306,-57.5 -5.9224,0.0787 -12.1163,-0.41655 -17.6814,1.93938 -2.9629,2.02124 -2.055,6.3818 -4.268,8.96972 -1.4864,-1.63668 -0.8535,-5.17228 -1.0812,-7.58351 0,-2.44187 0,-4.88373 0,-7.32559 19,0 38,0 57,0 -0.092,4.80281 0.2858,9.64769 -0.4849,14.4082 -1.2794,1.24919 -1.9923,-3.3671 -2.4824,-4.55599 -0.3112,-3.44876 -3.6421,-4.92839 -6.6829,-5.20144 -4.4189,-0.79339 -8.9138,-0.6307 -13.3805,-0.65119 0.1768,19.16667 0.3537,38.33333 0.5307,57.5 2.8339,1.02918 6.002,1.48249 8.4133,3.38562 -2.1479,1.32578 -5.9946,0.70355 -8.7784,1.04348 -1.8778,0.0495 -3.7564,0.0711 -5.6349,0.0713 z"
         id="path4049"
         inkscape:connector-curvature="0" />
      <path
         style="fill:#00b7f8;fill-opacity:1"
         d="m 1280.064,700.04855 c -4.389,-0.0765 -8.8265,0.0512 -13.1666,-0.6779 -0.1228,-1.37906 2.9393,-2.12395 4.2583,-2.79918 1.1558,-0.45401 2.3116,-0.90802 3.4674,-1.36203 -0.036,-16.22223 0.09,-32.44572 -0.1071,-48.66688 -0.2167,-2.66317 0.1523,-5.56553 -1.0909,-8.01795 -1.5704,-1.84913 -4.0562,-2.31174 -6.2799,-2.76981 -1.4227,-1.80845 3.1311,-1.15823 4.2031,-1.49953 7.1436,-0.28564 14.3217,-0.3771 21.4489,0.25344 3.3058,0.28326 -1.2779,2.01508 -2.488,2.16956 -2.4329,0.47402 -4.5842,2.057 -4.1957,4.81227 -0.6818,10.64081 -0.4452,21.31576 -0.4674,31.97255 0.1172,6.9968 -0.027,14.0209 0.5798,20.99282 1.7778,2.64763 5.5399,2.2067 7.7871,4.1857 -1.1552,1.67187 -4.9937,0.84938 -7.1719,1.28094 -2.2578,0.0888 -4.5176,0.12537 -6.7771,0.126 z"
         id="path4047"
         inkscape:connector-curvature="0" />
      <path
         style="fill:#00b7f8;fill-opacity:1"
         d="m 1316.182,700.04855 c -4.5394,-0.0714 -9.1235,0.0215 -13.6136,-0.72321 -0.7922,-1.45596 2.8037,-2.16266 4.1226,-2.69074 1.144,-0.36202 2.288,-0.72403 3.432,-1.08605 0.095,-16.10412 0.4713,-32.20918 0.2247,-48.31319 -0.1877,-2.90891 0.066,-5.94136 -0.7778,-8.75074 -2.0064,-2.13348 -5.377,-1.61971 -7.4945,-3.51301 1.9858,-0.95711 4.6431,-0.59386 6.8943,-0.82906 6.5575,-0.10094 13.1587,-0.3056 19.6809,0.4885 2.4894,0.64433 -1.2076,1.8032 -2.178,1.6843 -2.2915,0.65908 -4.5785,2.33106 -4.4475,4.97578 -0.6255,8.50515 -0.3123,17.0479 -0.4021,25.56975 0,9.44952 0,18.89904 0,28.34856 2.6717,1.174 5.6796,1.84027 7.9184,3.78832 -1.5299,1.20651 -4.8109,0.61417 -6.9663,0.94801 -2.1302,0.0726 -4.2617,0.10229 -6.3931,0.10278 z"
         id="path4045"
         inkscape:connector-curvature="0" />
      <path
         style="fill:#00b7f8;fill-opacity:1"
         d="m 1502.123,700.04855 c -5.0694,-0.10105 -10.2052,0.12551 -15.2135,-0.75537 0.092,-1.93296 4.2355,-1.98319 5.889,-3.07185 3.1998,-0.93919 2.32,-4.55672 2.5581,-7.09547 0.3211,-15.4211 0.5111,-30.86557 -0.2414,-46.27688 0.3946,-2.96747 -1.234,-5.69754 -4.2831,-6.19865 -1.4932,0.005 -6.4287,-1.99649 -2.4871,-2.20575 10.526,-0.60074 21.0831,-0.16694 31.6143,0.11091 4.0729,0.0886 8.2916,0.65837 11.681,3.10966 3.3587,2.05839 5.9878,5.40783 6.4818,9.39488 1.4061,6.7274 -0.031,14.59836 -5.629,19.0831 -5.8521,4.89885 -13.6139,6.81058 -21.0948,7.19767 -3.0403,0.6283 -3.2853,-3.56128 -0.2428,-3.39441 4.2768,-0.69653 8.7446,-1.77401 11.9341,-4.9187 2.7096,-1.99715 4.1143,-5.23519 4.1764,-8.5545 0.4662,-4.67915 0.4926,-10.04738 -3.0866,-13.61108 -3.5056,-4.24437 -9.3282,-4.9941 -14.498,-5.16106 -1.1861,-0.0508 -2.3723,-0.10167 -3.5584,-0.1525 0.056,16.7713 -0.1455,33.54556 0.1788,50.31433 0.3641,2.62555 -0.4439,6.19381 2.0291,7.91559 2.7709,1.63029 6.1939,1.31787 8.9781,2.848 0.056,1.71021 -4.5159,0.83339 -6.088,1.26983 -3.031,0.11953 -6.0649,0.1504 -9.098,0.15225 z"
         id="path4043"
         inkscape:connector-curvature="0" />
      <path
         style="fill:#00b7f8;fill-opacity:1"
         d="m 1557.182,700.04855 c -4.0088,-0.17088 -8.2245,0.22377 -12.0663,-1.01174 1.5255,-2.70671 7.9772,-1.56439 7.3916,-6.38934 1.411,-13.82599 1.4938,-27.75127 1.9125,-41.63352 -0.1456,-3.80381 0.5683,-7.92619 -1.188,-11.43972 -1.5041,-3.3919 -7.1369,-2.3648 -8.3885,-4.8542 6.7489,-1.00493 13.6159,-0.24406 20.417,-0.21656 1.6331,-0.42852 2.2461,0.59983 2.5711,2.03943 6.215,15.89244 12.555,31.73774 18.5794,47.70331 1.899,0.50768 2.3404,-5.03654 3.6373,-6.75339 5.7366,-14.30834 11.4428,-28.62883 17.1616,-42.94427 6.8253,-0.0433 13.6868,-0.74566 20.4852,0.008 0.1982,2.58614 -7.2908,1.47775 -7.578,5.33857 -0.8514,9.45081 -0.1413,18.96766 -0.027,28.44157 0.311,8.64747 0.4018,17.31811 1.1468,25.9398 1.0361,3.10549 7.6958,2.3213 7.4659,5.01151 -7.7839,1.09264 -15.7152,0.83019 -23.5516,0.49172 -1.9687,0.30597 -5.2172,-1.03787 -1.7244,-2.06083 3.6309,-0.49285 7.4772,-2.94087 6.9425,-7.0846 0.2571,-12.39039 -0.3643,-24.78755 -0.8581,-37.16692 -0.3691,-2.40217 0.046,-7.92134 -1.1567,-8.57736 -6.6605,16.46803 -12.7361,33.17722 -19.8208,49.47029 -0.786,3.06128 -4.4451,8.33755 -6.3478,2.82331 -5.5111,-11.39102 -9.8264,-23.31774 -14.6928,-34.99131 -2.5036,-6.19589 -4.991,-12.3986 -7.3702,-18.64351 -0.1058,15.96438 -0.7396,31.94163 -0.037,47.89746 -0.056,4.75372 5.312,5.09042 8.2264,7.30289 -1.2166,1.88108 -6.5777,0.88502 -9.3942,1.28983 -0.5787,0.007 -1.1575,0.01 -1.7363,0.01 z"
         id="path4041"
         inkscape:connector-curvature="0" />
      <path
         style="fill:#0065b0;fill-opacity:1"
         d="m 1230.2582,589.9789 c -6.6088,-0.0469 -13.3427,-1.19721 -19.0037,-4.79931 -5.3421,-2.58049 -8.8832,-7.51301 -11.2646,-12.7871 -0.896,-2.05117 -2.319,-3.97043 -2.8761,-6.10642 -0.4158,-15.62284 -0.3246,-31.26884 -1.3401,-46.86813 0.8121,-4.94439 -3.701,-6.63606 -7.4402,-7.84272 -2.2451,-5.0333 6.4389,-2.92648 9.4585,-3.40569 9.8954,0.20291 19.8343,-0.0924 29.692,0.90621 5.3117,2.1561 -5.1434,4.09284 -5.8869,7.0213 -1.2673,6.75248 -0.6926,13.72472 -0.8469,20.57197 0.2441,10.48019 -0.1616,21.01695 0.9942,31.44862 0.8662,4.31447 4.0202,8.24443 7.9123,10.21955 5.629,2.40261 13.1825,2.29029 17.2738,-2.87101 2.4626,-2.85186 3.8869,-6.37973 5.6926,-9.646 -0.1635,-15.06722 0.3089,-30.15965 -0.7302,-45.20181 0.285,-4.52777 -3.078,-7.81586 -7.2326,-8.83323 -4.3301,-3.44415 4.0072,-3.20424 6.2826,-3.19444 6.6656,0.0628 13.3877,-0.3885 20.0126,0.45277 4.3146,2.6771 -2.9793,3.69881 -4.7651,5.05369 -2.6699,3.22013 -1.5711,8.13284 -2.2176,12.07733 -0.724,13.60786 -0.4348,27.30275 -2.2276,40.83262 -1.5781,5.81442 -4.4294,11.35715 -9.0626,15.32997 -5.0087,4.56696 -11.5632,7.26052 -18.3456,7.48302 -1.3565,0.11003 -2.7177,0.1712 -4.0788,0.15881 z"
         id="path4039"
         inkscape:connector-curvature="0" />
      <path
         style="fill:#0065b0;fill-opacity:1"
         d="m 1298.1809,589.76824 c -7.1895,0.27356 -14.5231,-0.32857 -21.2422,-3.07076 -1.5676,-6.53574 -3.331,-13.14819 -3.6742,-19.87783 5.2188,-2.48334 6.4905,6.09494 9.3679,8.96841 3.7995,6.5129 12.5147,6.83645 19.1204,5.66151 6.0153,-1.56517 10.3114,-7.34997 8.7499,-13.59481 -1.3728,-5.75377 -7.5497,-8.42685 -12.2539,-11.10184 -8.484,-3.8127 -18.3337,-7.80878 -22.1097,-17.06534 -3.1436,-8.25233 -1.1647,-18.26861 5.6161,-24.11358 7.003,-6.46596 16.6847,-9.42763 26.1309,-8.68602 33.6952,0.45897 67.3878,1.0935 101.0813,1.66057 -0.1668,6.72426 0.4831,13.53001 -0.4842,20.18838 -5.7546,2.83761 -4.6431,-7.83352 -7.811,-10.42495 -5.1886,-2.97398 -11.5058,-2.07679 -17.2898,-2.26343 -2.8209,-0.85367 -1.4442,2.481 -1.75,4.1368 0.1435,19.75804 -0.2371,39.53326 0.7357,59.27353 -0.4442,4.12189 12.2587,5.43457 5.9231,8.22958 -12.1185,0.58276 -24.2856,0.45798 -36.4116,0.0941 -6.3853,-0.19344 -0.2293,-4.43707 2.7275,-4.96115 4.491,-3.76193 1.9829,-10.97362 2.9039,-16.20666 0.1944,-16.91526 0.081,-33.83217 0.1118,-50.74822 -7.1231,0.46579 -14.4248,-0.17829 -21.38,1.56802 -5.3222,1.69323 -2.4057,14.32373 -8.848,11.05705 -1.8502,-4.98722 -3.0292,-11.50155 -9.2269,-12.78146 -6.2841,-1.97438 -13.8375,-2.77049 -19.7804,0.58704 -5.4268,3.0199 -4.4756,11.37417 0.6708,14.17017 8.0367,5.67994 18.1022,8.07438 25.6306,14.46349 5.812,6.17173 8.3593,15.1253 6.2145,23.39721 -2.6197,10.81362 -13.0653,17.79799 -23.2192,20.6957 -3.1236,0.63046 -6.3314,0.6376 -9.5033,0.74452 z"
         id="path4037"
         inkscape:connector-curvature="0" />
      <path
         style="fill:#00b7f8;fill-opacity:1"
         d="m 1818.7426,589.67974 c -8.0097,0.43161 -16.4817,-0.65265 -23.3064,-5.12459 -5.5519,-3.72271 -9.8155,-9.41472 -11.1355,-16.03632 -0.3989,-1.807 -0.621,-3.64715 -0.9333,-5.47028 2.5514,0.15334 5.2489,-0.40432 7.6716,0.50489 1.6128,2.96084 1.7811,6.71631 4.0136,9.49601 4.1667,6.10476 11.5907,9.60121 18.9343,9.38271 6.3461,0.0602 13.4442,0.61377 18.7026,-3.66925 3.6618,-2.35754 5.7836,-6.49011 5.8941,-10.80489 0.4659,-3.8699 -0.9017,-7.89836 -4.0418,-10.31408 -4.3802,-4.1789 -10.6629,-4.86289 -16.21,-6.56637 -7.0836,-1.89393 -14.4114,-3.17939 -21.1779,-6.06211 -4.7417,-2.47753 -9.48,-6.20552 -10.4869,-11.78336 -1.7668,-6.48979 0.3294,-13.65415 4.6029,-18.70133 4.4924,-4.48608 10.4738,-8.14532 17.0284,-7.91634 6.6839,0.0609 13.501,-0.58785 20.0749,0.86539 5.4293,2.14294 10.357,6.12189 13.1069,11.32879 1.4705,3.25651 2.1515,6.77489 2.9303,10.23994 -2.6747,-0.16152 -5.5058,0.43027 -8.0396,-0.54973 -1.9197,-2.93571 -2.415,-6.81805 -5.2243,-9.29285 -3.0254,-2.949 -6.67,-5.92276 -11.1286,-5.88335 -6.7512,-0.36639 -14.5635,-1.14223 -20.1206,3.54355 -4.5702,3.18296 -5.4129,9.53535 -4.2454,14.60536 1.9532,4.52944 6.819,7.13432 11.3808,8.36589 9.3747,2.89356 19.3343,4.00982 28.294,8.15028 4.1923,1.9349 8.1841,4.72265 10.1852,9.03302 3.7827,8.24993 2.3051,19.05552 -4.609,25.21534 -6.1062,4.3623 -13.3606,7.33674 -20.9435,7.38553 l -0.5987,0.0303 -0.6181,0.0278 0,3e-5 z"
         id="path4035"
         inkscape:connector-curvature="0" />
      <path
         style="fill:#0065b0;fill-opacity:1"
         d="m 1070.7347,589.04855 c -2.5984,0 -5.1969,0 -7.7953,0 -14.5033,-18.96537 -28.9343,-38.01755 -43.4428,-56.95495 -1.1979,3.43728 -0.4788,7.49108 -0.6746,11.17591 0.2447,11.25522 -0.016,22.56373 1.2408,33.76613 0.08,5.4998 5.9746,6.30471 9.9549,7.83529 4.2873,3.43028 -4.1101,3.18699 -6.3131,3.14125 -7.2256,-0.0642 -14.4978,0.36176 -21.6894,-0.43736 -4.00617,-2.7702 4.4636,-3.93271 5.5666,-6.42911 1.6191,-3.75552 1.0783,-8.11698 1.4561,-12.14641 0.3917,-16.53958 0.8703,-33.10961 0.078,-49.64281 0.5102,-5.17947 -5.0232,-6.16921 -8.7972,-7.18945 -3.19319,-0.59177 -2.72177,-3.8642 0.5853,-3.29904 8.7587,-0.65967 17.5682,-0.71129 26.3464,-0.53859 4.9585,-0.23397 6.3367,5.58648 9.2625,8.48383 10.7475,14.54807 21.5244,29.07441 32.2896,43.60944 -0.3313,-13.26376 -0.116,-26.55382 -1.049,-39.79265 0.1973,-4.61656 -3.6692,-8.15692 -8.1477,-8.27577 -4.155,0.0544 -3.3376,-5.26641 0.6498,-4.14472 8.36,-0.19354 16.7482,-0.35118 25.0994,0.11999 5.2369,1.01295 -0.3322,5.09354 -3.1206,5.12494 -3.9241,2.11907 -2.2883,7.55427 -2.9439,11.26461 -0.5812,21.43762 -0.5245,42.88624 -0.761,64.32947 -2.5984,0 -5.1968,0 -7.7952,0 z"
         id="path4033"
         inkscape:connector-curvature="0" />
      <path
         style="fill:#0065b0;fill-opacity:1"
         d="m 968.37309,587.81884 c -6.46888,-0.0347 -12.97827,0.46521 -19.41793,-0.2496 -3.79701,-1.9194 1.69059,-4.51045 3.9511,-4.419 3.12429,-1.46571 2.865,-5.55871 3.15406,-8.47732 0.8067,-17.72922 0.67864,-35.49547 0.1628,-53.23166 -0.0188,-2.75904 -0.23638,-6.3337 -3.24114,-7.51941 -2.10576,-0.46553 -7.80402,-3.62524 -3.99092,-5.39788 6.87794,-0.72086 13.82347,-0.19416 20.72929,-0.22609 6.30499,0.24073 12.70111,-0.0962 18.92899,1.03696 2.12202,1.93416 -3.18122,3.35544 -4.60276,4.23832 -3.62581,0.88689 -2.88634,4.68506 -3.05585,7.52943 -0.43479,17.79933 -0.5121,35.61374 -0.11354,53.41422 0.43209,2.626 -0.53354,6.30274 1.9616,8.00083 1.71939,1.477 6.31203,1.15408 6.09763,4.00626 -3.3299,1.30054 -7.07355,0.8444 -10.59437,1.11576 -3.32244,0.0865 -6.64573,0.135 -9.96896,0.17918 z"
         id="path4031"
         inkscape:connector-curvature="0" />
      <path
         style="fill:#0065b0;fill-opacity:1"
         d="m 1108,508.09375 c -4.1726,0.0882 -8.4161,-0.268 -12.5288,0.54584 -3.0014,4.40123 6.3476,4.10362 7.027,7.93994 1.2916,6.03366 0.6898,12.30242 0.9606,18.44031 0.038,14.5485 0.2047,29.11955 -0.6398,43.64792 0.04,4.40787 -9.7508,5.14697 -7.1671,8.68314 9.1567,1.09448 18.4327,0.54403 27.6406,0.71054 9.9236,-0.19587 19.9527,0.32923 29.7822,-1.2938 10.0729,-2.35596 19.6231,-7.87417 25.5751,-16.49171 5.1762,-6.96667 7.3336,-15.78803 7.8266,-24.33511 -0.4905,-7.98212 -2.0487,-16.33072 -6.6494,-23.03927 -4.7982,-6.96657 -12.6768,-10.99821 -20.6745,-13.0925 -9.9054,-1.69333 -20.0243,-1.15943 -30.0347,-1.48059 -7.0392,-0.0823 -14.0782,-0.19375 -21.1178,-0.23471 z m 18.5312,6.65625 c 7.4474,0.7386 15.5224,-0.12023 22.1361,3.99468 5.0011,3.10916 8.3394,8.25478 9.6987,13.93449 2.9307,10.36009 2.7818,21.71688 -0.8221,31.88384 -2.1379,5.7551 -6.0437,10.95188 -11.6365,13.7102 -4.813,2.31559 -10.429,3.11815 -15.6954,2.40492 -3.9275,-2.27183 -2.3389,-7.87767 -3.0052,-11.70153 -0.4848,-18.07038 -0.4673,-36.15144 -0.6756,-54.2266 z"
         id="path4029"
         inkscape:connector-curvature="0" />
      <path
         style="fill:#0065b0;fill-opacity:1"
         d="m 1433.623,588.04855 c -6.6599,-0.16943 -13.3973,0.36117 -20.0027,-0.61177 -2.5279,-3.93912 6.4116,-3.14212 7.1425,-6.59908 1.1985,-8.92742 0.6741,-17.99371 0.8564,-26.98373 -0.1143,-12.08191 0.3141,-24.1947 -0.5829,-36.25184 0.8557,-5.68128 -8.487,-3.42072 -7.9412,-7.89551 4.0095,-1.5725 8.5447,-0.90749 12.7874,-1.23216 14.4394,-0.075 28.9141,-0.76011 43.3311,0.2632 7.3888,0.91576 15.3808,3.61169 19.6432,10.12951 3.9924,7.08032 3.2287,16.72496 -2.6384,22.57119 -3.1729,3.49822 -7.6057,5.28328 -11.8689,7.00718 -0.8271,3.18527 4.2246,6.97528 5.7121,10.29273 5.837,8.08806 11.3105,16.55673 18.3216,23.69779 2.07,0.76349 7.6216,4.96831 2.5398,5.19406 -9.5848,0.66272 -19.2,0.33899 -28.8,0.41638 -8.0572,-12.77648 -16.3817,-25.39194 -24.0933,-38.38032 1.4338,-2.91904 6.5407,-1.54639 9.2625,-3.26017 5.3532,-1.84044 8.5752,-7.60933 9.1913,-13.00046 0.039,-4.4667 -0.2936,-9.32657 -2.7291,-13.18806 -4.6002,-5.01742 -11.7804,-5.33316 -18.1314,-5.16888 0.1149,20.88152 -0.3631,41.77954 0.6264,62.64504 -0.8053,5.11455 4.8239,5.69269 7.8115,7.94294 0.2755,3.87965 -7.2388,1.64649 -10.1211,2.37784 -3.4388,0.0328 -6.878,0.0331 -10.3168,0.0341 z"
         id="path4025"
         inkscape:connector-curvature="0" />
      <path
         style="fill:#0065b0;fill-opacity:1"
         d="m 1527.623,588.04855 c -6.4786,-0.0962 -12.9924,0.23364 -19.4414,-0.47561 -3.7173,-1.24309 1.7355,-4.17961 3.5719,-4.25734 3.6503,-0.6432 3.3965,-4.61872 3.5557,-7.45779 0.4952,-16.72879 0.3332,-33.47358 0.071,-50.20596 -0.1419,-3.4116 -0.044,-6.85821 -0.5228,-10.24091 -2.1727,-2.47927 -6.2333,-2.45362 -8.0035,-5.30399 1.7718,-1.94069 5.5087,-1.07749 8.0758,-1.52293 10.0899,-0.28494 20.1935,-0.55339 30.2859,-0.30582 3.2321,-0.92285 4.7738,3.03645 1.4382,4.14994 -2.7069,0.9737 -6.3724,2.34353 -6.3237,5.82115 -0.926,16.38146 -0.6121,32.80734 -0.3894,49.20527 0.1408,4.17099 0.095,8.3633 0.5578,12.51356 1.0233,3.91291 6.3606,3.062 7.9475,6.41896 -1.3108,2.38684 -5.4313,1.13306 -7.9104,1.58918 -4.3038,0.0757 -8.6086,0.0686 -12.9129,0.0723 z"
         id="path4023"
         inkscape:connector-curvature="0" />
      <path
         style="fill:#0065b0;fill-opacity:1"
         d="m 1586.9062,507.0625 c -9.2946,23.36523 -18.1679,46.90103 -27.7144,70.16386 -0.5877,4.41551 -5.7778,5.8021 -6.4995,9.63448 3.3813,2.14125 8.1428,0.61834 12.052,0.99464 4.4387,-0.28343 9.0803,0.15749 13.3537,-1.22948 0.6928,-3.90836 -6.541,-1.62321 -7.848,-5.0635 0.2769,-6.17455 2.8623,-11.97887 4.5275,-17.88792 0.5095,-1.31058 2.7338,-0.28883 3.9692,-0.61208 7.8657,0 15.7314,0 23.5971,0 1.5706,5.88816 3.9448,11.68109 4.2457,17.80567 -0.2171,3.83044 -7.87,2.3854 -7.3186,5.77611 7.0293,1.40532 14.3016,0.90566 21.4399,1.19203 5.5758,-0.0623 11.2047,0.45152 16.7465,-0.28523 3.946,-3.26552 -4.2145,-3.86062 -4.1278,-7.58309 -9.5049,-23.97965 -18.012,-48.34229 -26.7045,-72.62424 -6.5497,-0.48509 -13.1502,-0.20766 -19.7188,-0.28125 z m 2.375,17.3125 c 3.4641,10.19887 6.7494,20.45863 10.125,30.6875 -6.4169,-0.0919 -12.8552,0.23565 -19.2545,-0.2786 -3.0437,-1.97425 1.5951,-7.0246 1.8015,-10.19018 2.412,-6.74862 4.653,-13.57107 7.328,-20.21872 z"
         id="path4021"
         inkscape:connector-curvature="0" />
      <path
         style="fill:#0065b0;fill-opacity:1"
         d="m 1674.4086,588.04855 c -10.2887,-0.14218 -20.6138,0.30792 -30.8766,-0.5341 -4.4997,-1.07342 1.8931,-4.28418 3.8141,-4.45617 3.8977,-1.35965 2.5662,-6.32085 3.0582,-9.53094 0.3105,-18.58608 0.3766,-37.18976 -0.2939,-55.76857 0.5408,-4.29279 -5.0242,-4.39054 -7.4535,-6.5869 -2.3595,-3.04797 4.6664,-2.05338 6.3717,-2.45138 11.3907,-0.19611 22.8048,-0.40305 34.1854,0.18144 2.6019,-0.46356 3.9927,2.13806 0.9167,2.91486 -3.0469,1.4846 -7.7032,1.48391 -8.7254,5.43931 -0.9999,10.96081 -0.5549,22.00325 -0.5689,32.99793 0.218,9.05977 -0.069,18.16962 1.0084,27.18011 0.5755,4.72089 6.3841,3.45232 9.7461,3.49081 4.7947,-0.369 9.9045,-0.0867 14.3527,-2.16694 4.0172,-3.21842 4.6081,-8.81462 7.8523,-12.58386 4.7361,-0.33563 2.5016,5.5846 2.2048,8.40899 -0.8478,4.49597 -1.7739,8.97681 -2.6598,13.46541 -10.9774,0 -21.9549,0 -32.9323,0 z"
         id="path4017"
         inkscape:connector-curvature="0" />
      <path
         style="fill:#00b7f8;fill-opacity:1"
         d="m 1750.1116,588.04855 c -9.1704,0 -18.3409,0 -27.5113,0 0.1742,-26.83333 0.3484,-53.66667 0.5227,-80.5 18,0 36,0 54,0 0.2088,2.16667 0.4177,4.33334 0.6267,6.5 -15.3756,0 -30.7511,0 -46.1267,0 0,9.66667 0,19.33333 0,29 14.3333,0 28.6667,0 43,0 0,2.33333 0,4.66667 0,7 -14.3333,0 -28.6667,0 -43,0 0,10.33333 0,20.66667 0,31 15.3333,0 30.6667,0 46,0 0,2.33333 0,4.66667 0,7 -9.1705,0 -18.3409,0 -27.5114,0 z"
         id="path4015"
         inkscape:connector-curvature="0" />
      <path
         style="fill:#00b7f8;fill-opacity:1"
         d="m 1222.8731,458.81043 c -12.75,0.0873 -25.5,0.17459 -38.25,0.26189 -0.1188,-18.37888 0.3375,-36.77271 -0.4869,-55.13807 -0.4688,-3.66245 -3.4263,-7.55483 -7.2293,-8.46137 -4.8966,-1.98605 -1.4472,-7.45092 -3.9357,-10.78769 -1.4766,-2.59216 -7.0662,-8.65689 -1.2133,-9.46755 13.3935,-1.01297 26.8557,-0.49551 40.2777,-0.66855 16.3625,-0.001 32.725,-2.3e-4 49.0875,-5.4e-4 0,28 0,56 0,84 -12.75,0.0873 -25.5,0.17459 -38.25,0.26188 z"
         id="path4013"
         inkscape:connector-curvature="0" />
      <path
         style="fill:#00b7f8;fill-opacity:1"
         d="m 1272.625,374.0625 c 0,28.33333 0,56.66667 0,85 65.3333,0 130.6667,0 196,0 0,-28.33333 0,-56.66667 0,-85 -65.3333,0 -130.6667,0 -196,0 z m 37.1875,10 c 10.799,0.12677 18.6816,11.23443 18.1713,21.44614 0.2536,13.68259 0.098,27.36932 0.1412,41.05386 -12.1669,0.16078 -24.3336,0.33787 -36.5,0.53125 0.2075,-15.3479 -0.4418,-30.73411 0.6272,-46.05018 1.5244,-8.46017 8.0916,-17.45744 17.5603,-16.98107 z m 60.6875,0 c 11.1603,-0.31234 18.2159,11.72987 17.8884,21.81509 0.3437,13.72475 0.1632,27.45673 0.2364,41.18491 -12.3854,0 -24.7708,0 -37.1562,0 0.2023,-15.83356 0.4211,-31.66689 0.6562,-47.5 3.4278,-6.81905 7.9137,-14.44909 16.3184,-15.33889 l 1.0431,-0.12039 1.0135,-0.0407 2e-4,0 z m 59.25,0 c 9.0519,-0.67261 16.2922,7.39804 18.6734,15.41692 1.2972,15.50106 0.4732,31.10765 0.7016,46.65632 -1.7178,1.01157 -5.2634,0.22014 -7.6904,0.53211 -9.6034,0.12409 -19.2065,0.27824 -28.8096,0.4259 0.2075,-15.3479 -0.4418,-30.73411 0.6272,-46.05018 1.5017,-8.04064 7.4961,-16.85802 16.4978,-16.98107 z"
         id="path4011"
         inkscape:connector-curvature="0" />
      <path
         style="fill:#00b7f8;fill-opacity:1"
         d="m 1518.123,459.04855 c -12.8333,0 -25.6667,0 -38.5,0 0,-28.34006 0,-56.68012 0,-85.02018 30.5,0.17339 61,0.34679 91.5,0.52018 0.9268,3.1483 -0.5195,6.27871 -2.5477,8.68807 -3.6443,3.61798 0.4362,12.11779 -6.1738,12.81193 -3.9412,1.90079 -5.8791,6.44537 -5.4405,10.78075 -0.5456,17.40084 -0.2699,34.81284 -0.338,52.21925 -12.8333,0 -25.6667,0 -38.5,0 z"
         id="path4003"
         inkscape:connector-curvature="0" />
      <path
         style="fill:#00b7f8;fill-opacity:1"
         d="m 1222.9876,357.04855 c -12.7882,0 -25.5763,0 -38.3645,0 0.3608,-38.42094 7.7856,-77.0081 22.9612,-112.37142 16.6942,-38.13404 44.1151,-72.41562 80.7066,-93.005 11.8224,-6.6497 24.4226,-11.97099 37.4852,-15.62358 -7.4504,8.1782 -15.6148,16.13657 -21.9013,25.44475 -24.0052,34.17199 -31.9445,76.37339 -36.6909,117.05525 -2.6994,26.10365 -4.5019,52.29315 -5.8314,78.5 -12.7883,0 -25.5766,0 -38.3649,0 z"
         id="path4001"
         inkscape:connector-curvature="0" />
      <path
         style="fill:#00b7f8;fill-opacity:1"
         d="m 1370.2648,357.04855 c -32.5426,-0.13873 -65.1045,0.19837 -97.6323,-0.75 3.3704,-48.93404 4.5793,-98.87231 19.6791,-145.96485 7.7747,-24.61523 21.9696,-47.26988 42.0332,-63.7035 5.9359,-4.95897 12.2467,-10.09419 19.04,-13.58165 11.676,0 23.352,0 35.028,0 15.6294,10.69278 30.615,22.7004 41.3032,38.57852 24.2551,35.80831 29.5951,80.03933 33.9667,122.00589 2.09,21.08727 3.2987,42.24878 4.224,63.41559 -32.5473,0 -65.0946,0 -97.6419,0 z"
         id="path3999"
         inkscape:connector-curvature="0" />
      <path
         style="fill:#00b7f8;fill-opacity:1"
         d="m 1518.2151,357.04855 c -12.8161,0 -25.6321,0 -38.4482,0 -3.1443,-36.45188 -4.0303,-73.19509 -10.5893,-109.28172 -6.2749,-36.93871 -18.5946,-74.75065 -45.4902,-102.00165 -3.4559,-3.16924 -12.641,-12.61965 -1.9259,-7.71166 41.8254,13.6871 77.149,44.21394 98.836,82.26863 23.7041,39.64732 33.5571,85.95515 35.7653,131.67766 1.0587,4.06527 -0.033,6.10404 -4.4091,5.04874 -11.2462,0 -22.4924,0 -33.7386,0 z"
         id="path3997"
         inkscape:connector-curvature="0" />
      <path
         style="fill:#00b7f8;fill-opacity:1"
         d="m 1370.373,120.80977 c -13.5833,0.0871 -27.1667,0.17414 -40.75,0.26121 0,-10.34081 0,-20.68163 0,-31.022442 27.3507,0 54.7014,0 82.0521,0 -0.1841,10.166672 -0.3681,20.333342 -0.5521,30.500012 -13.5833,0.0871 -27.1667,0.17415 -40.75,0.26122 z"
         id="path3995"
         inkscape:connector-curvature="0" />
      <path
         style="fill:#00b7f8;fill-opacity:1"
         d="m 1370.1083,80.048539 c -15.124,0 -30.2479,0 -45.3719,0 -2.0367,-2.640036 -4.1438,-6.205379 -2.5546,-9.53489 4.0945,-1.476815 8.3601,-3.16818 8.1693,-8.432636 2.6325,-7.304819 9.3711,-12.014342 16.4119,-14.558811 5.1681,-2.19677 10.5172,-3.919756 15.7918,-5.836066 0.7471,-3.123654 0.1955,-7.104406 2.8331,-9.298538 1.8402,-4.767471 3.4809,-11.611678 -0.5763,-15.689807 -1.8961,-2.92234 4.5494,-4.92985 2.9633,-9.0270785 1.1184,-13.6454253 0.214,-27.3828965 1.2976,-41.0167235 2.4372,-4.593054 3.0733,5.11106 2.9132,7.103336 0.6089,12.028818 0.115,24.1094276 1.1091,36.1124054 0.7894,3.2297606 6.4147,6.4479736 0.7625,8.8080566 -1.9476,4.669387 -0.5106,10.860133 2.2025,14.707939 2.1945,2.035365 1.6649,5.327145 2.0637,8.04806 7.8321,3.130653 15.9949,5.610316 23.3911,9.693046 5.4113,3.211401 8.2704,9.029808 10.0688,14.816961 1.7126,4.175626 9.6336,3.380639 6.7708,9.728778 -1.4615,5.944648 -9.237,3.385479 -13.773,4.199625 -11.4896,0.201692 -22.982,0.161292 -34.4729,0.176343 z"
         id="path4093"
         inkscape:connector-curvature="0" />
    </g>
  </g>
</svg>
