<?xml version="1.0" encoding="UTF-8" standalone="no"?>
<!-- Created with Inkscape (http://www.inkscape.org/) -->

<svg
   xmlns:dc="http://purl.org/dc/elements/1.1/"
   xmlns:cc="http://creativecommons.org/ns#"
   xmlns:rdf="http://www.w3.org/1999/02/22-rdf-syntax-ns#"
   xmlns:svg="http://www.w3.org/2000/svg"
   xmlns="http://www.w3.org/2000/svg"
   xmlns:sodipodi="http://sodipodi.sourceforge.net/DTD/sodipodi-0.dtd"
   xmlns:inkscape="http://www.inkscape.org/namespaces/inkscape"
   width="540"
   height="355"
   id="svg2"
   version="1.1"
   inkscape:version="0.48.1 r9760"
   sodipodi:docname="layer1.svg">
  <defs
     id="defs4" />
  <sodipodi:namedview
     id="base"
     pagecolor="#ffffff"
     bordercolor="#666666"
     borderopacity="1.0"
     inkscape:pageopacity="0.0"
     inkscape:pageshadow="2"
     inkscape:zoom="1.4"
     inkscape:cx="217.32965"
     inkscape:cy="212.23295"
     inkscape:document-units="px"
     inkscape:current-layer="g4637"
     showgrid="true"
     inkscape:window-width="1567"
     inkscape:window-height="963"
     inkscape:window-x="59"
     inkscape:window-y="57"
     inkscape:window-maximized="0"
     showguides="true"
     inkscape:snap-global="true">
    <inkscape:grid
       type="xygrid"
       id="grid2989"
       empspacing="5"
       visible="true"
       enabled="true"
       snapvisiblegridlinesonly="true" />
  </sodipodi:namedview>
  <metadata
     id="metadata7">
    <rdf:RDF>
      <cc:Work
         rdf:about="">
        <dc:format>image/svg+xml</dc:format>
        <dc:type
           rdf:resource="http://purl.org/dc/dcmitype/StillImage" />
        <dc:title />
      </cc:Work>
    </rdf:RDF>
  </metadata>
  <g
     inkscape:label="Layer 1"
     inkscape:groupmode="layer"
     id="layer1"
     transform="translate(0,-697.36218)">
    <g
       id="g3826" />
    <g
       id="g3952">
      <g
         id="g4637"
         transform="translate(-20,630)">
        <path
           sodipodi:nodetypes="cccccc"
           style="fill:none;stroke:#167197;stroke-width:4;stroke-linecap:butt;stroke-linejoin:miter;stroke-miterlimit:4;stroke-opacity:1;stroke-dasharray:none"
           d="m 120,67.362183 0,104.999997 60,60 0,125 0,35 15,15 5,0"
           id="path3763"
           inkscape:connector-curvature="0" />
        <path
           sodipodi:nodetypes="ccccccccc"
           style="fill:none;stroke:#167197;stroke-width:4;stroke-linecap:butt;stroke-linejoin:miter;stroke-miterlimit:4;stroke-opacity:1;stroke-dasharray:none"
           d="m 130,67.362183 0,99.999997 60,60 0,130 0,30 5,5 15,0 5,5 0,25"
           id="path3765"
           inkscape:connector-curvature="0" />
        <path
           sodipodi:nodetypes="cccccc"
           style="fill:none;stroke:#167197;stroke-width:4;stroke-linecap:butt;stroke-linejoin:miter;stroke-miterlimit:4;stroke-opacity:1;stroke-dasharray:none"
           d="m 140,67.362183 0,94.999997 60,60 0,135 0,20 5,5 5,0"
           id="path3767"
           inkscape:connector-curvature="0" />
        <path
           sodipodi:nodetypes="ccccccc"
           style="fill:none;stroke:#167197;stroke-width:4;stroke-linecap:butt;stroke-linejoin:miter;stroke-miterlimit:4;stroke-opacity:1;stroke-dasharray:none"
           d="m 210,202.36218 0,155 0,10 15,15 75,0 5,5 30,0"
           id="path3788"
           inkscape:connector-curvature="0" />
        <g
           style="stroke:#167197;stroke-opacity:1"
           id="g3822">
          <path
             sodipodi:nodetypes="cccccccccc"
             inkscape:connector-curvature="0"
             id="path3790"
             d="m 560,132.36218 0,0 -90,0 -170,0 -80,80 0,145 0,5 10,10 70,0 45,0"
             style="fill:none;stroke:#167197;stroke-width:4;stroke-linecap:butt;stroke-linejoin:miter;stroke-miterlimit:4;stroke-opacity:1;stroke-dasharray:none" />
          <path
             sodipodi:type="arc"
             style="fill:none;stroke:#167197;stroke-width:2;stroke-linecap:butt;stroke-linejoin:miter;stroke-miterlimit:4;stroke-opacity:1;stroke-dasharray:none"
             id="path3041-9-6-5-5"
             sodipodi:cx="362.5"
             sodipodi:cy="202.5"
             sodipodi:rx="2.5"
             sodipodi:ry="2.5"
             d="m 365,202.5 c 0,1.38071 -1.11929,2.5 -2.5,2.5 -1.38071,0 -2.5,-1.11929 -2.5,-2.5 0,-1.38071 1.11929,-2.5 2.5,-2.5 1.38071,0 2.5,1.11929 2.5,2.5 z"
             transform="translate(-25,184.86218)" />
          <path
             sodipodi:type="arc"
             style="fill:none;stroke:#167197;stroke-width:2;stroke-linecap:butt;stroke-linejoin:miter;stroke-miterlimit:4;stroke-opacity:1;stroke-dasharray:none"
             id="path3041-9-6-5-97"
             sodipodi:cx="362.5"
             sodipodi:cy="202.5"
             sodipodi:rx="2.5"
             sodipodi:ry="2.5"
             d="m 365,202.5 c 0,1.38071 -1.11929,2.5 -2.5,2.5 -1.38071,0 -2.5,-1.11929 -2.5,-2.5 0,-1.38071 1.11929,-2.5 2.5,-2.5 1.38071,0 2.5,1.11929 2.5,2.5 z"
             transform="translate(-25,154.86218)" />
          <path
             sodipodi:type="arc"
             style="fill:none;stroke:#167197;stroke-width:2;stroke-linecap:butt;stroke-linejoin:miter;stroke-miterlimit:4;stroke-opacity:1;stroke-dasharray:none"
             id="path3041-9-6-5-7"
             sodipodi:cx="362.5"
             sodipodi:cy="202.5"
             sodipodi:rx="2.5"
             sodipodi:ry="2.5"
             d="m 365,202.5 c 0,1.38071 -1.11929,2.5 -2.5,2.5 -1.38071,0 -2.5,-1.11929 -2.5,-2.5 0,-1.38071 1.11929,-2.5 2.5,-2.5 1.38071,0 2.5,1.11929 2.5,2.5 z"
             transform="translate(-15,169.86218)" />
          <path
             sodipodi:type="arc"
             style="fill:none;stroke:#167197;stroke-width:2;stroke-linecap:butt;stroke-linejoin:miter;stroke-miterlimit:4;stroke-opacity:1;stroke-dasharray:none"
             id="path3041-9-6-5-95"
             sodipodi:cx="362.5"
             sodipodi:cy="202.5"
             sodipodi:rx="2.5"
             sodipodi:ry="2.5"
             d="m 365,202.5 a 2.5,2.5 0 1 1 -5,0 2.5,2.5 0 1 1 5,0 z"
             transform="translate(-160,204.86218)" />
        </g>
        <path
           inkscape:connector-curvature="0"
           id="path3792"
           d="m 335,357.36218 -30,0 -5,5 -65,0 -5,-5 0,-140 75,-75 165,0 90,0"
           style="fill:none;stroke:#167197;stroke-width:4;stroke-linecap:butt;stroke-linejoin:miter;stroke-miterlimit:4;stroke-opacity:1;stroke-dasharray:none"
           sodipodi:nodetypes="ccccccccc" />
        <path
           style="fill:none;stroke:#167197;stroke-width:1px;stroke-linecap:butt;stroke-linejoin:miter;stroke-opacity:1"
           d="m 195,87.362183 142.5,-3e-6 20,-20"
           id="path3872"
           inkscape:connector-curvature="0"
           sodipodi:nodetypes="ccc" />
        <path
           sodipodi:nodetypes="ccc"
           style="fill:none;stroke:#167197;stroke-width:1px;stroke-linecap:butt;stroke-linejoin:miter;stroke-opacity:1"
           d="m 200,92.362183 140,0 25,-25"
           id="path3874"
           inkscape:connector-curvature="0" />
        <path
           style="fill:none;stroke:#167197;stroke-width:1px;stroke-linecap:butt;stroke-linejoin:miter;stroke-opacity:1"
           d="m 205,97.362183 137.5,-3e-6 30,-30"
           id="path3876"
           inkscape:connector-curvature="0"
           sodipodi:nodetypes="ccc" />
        <path
           sodipodi:nodetypes="ccc"
           style="fill:none;stroke:#167197;stroke-width:1px;stroke-linecap:butt;stroke-linejoin:miter;stroke-opacity:1"
           d="m 210,102.36218 135,0 35,-34.999997"
           id="path3878"
           inkscape:connector-curvature="0" />
        <path
           style="fill:none;stroke:#167197;stroke-width:1px;stroke-linecap:butt;stroke-linejoin:miter;stroke-opacity:1"
           d="m 215,107.36218 132.5,0 40,-40"
           id="path3880"
           inkscape:connector-curvature="0"
           sodipodi:nodetypes="ccc" />
        <path
           sodipodi:nodetypes="ccc"
           style="fill:none;stroke:#167197;stroke-width:1px;stroke-linecap:butt;stroke-linejoin:miter;stroke-opacity:1"
           d="m 220,112.36218 130,0 45,-44.999997"
           id="path3882"
           inkscape:connector-curvature="0" />
        <path
           style="fill:none;stroke:#167197;stroke-width:1px;stroke-linecap:butt;stroke-linejoin:miter;stroke-opacity:1"
           d="m 225,117.36218 127.5,0 50,-50"
           id="path3884"
           inkscape:connector-curvature="0"
           sodipodi:nodetypes="ccc" />
        <path
           style="fill:none;stroke:#167197;stroke-width:1px;stroke-linecap:butt;stroke-linejoin:miter;stroke-opacity:1"
           d="m 230,122.36218 120,0 5,0 55,-54.999997"
           id="path3886"
           inkscape:connector-curvature="0" />
        <path
           style="fill:none;stroke:#167197;stroke-width:1px;stroke-linecap:butt;stroke-linejoin:miter;stroke-opacity:1"
           d="m 385,327.36218 0,-50"
           id="path3898"
           inkscape:connector-curvature="0" />
        <path
           style="fill:none;stroke:#167197;stroke-width:1px;stroke-linecap:butt;stroke-linejoin:miter;stroke-opacity:1"
           d="m 390,277.36218 0,112.5 -32.5,32.5"
           id="path3900"
           inkscape:connector-curvature="0"
           sodipodi:nodetypes="ccc" />
        <path
           sodipodi:nodetypes="ccc"
           style="fill:none;stroke:#167197;stroke-width:1px;stroke-linecap:butt;stroke-linejoin:miter;stroke-opacity:1"
           d="m 395,277.36218 0,115 -30,30"
           id="path3902"
           inkscape:connector-curvature="0" />
        <path
           style="fill:none;stroke:#167197;stroke-width:1px;stroke-linecap:butt;stroke-linejoin:miter;stroke-opacity:1"
           d="m 400,277.36218 0,117.5 -27.5,27.5"
           id="path3904"
           inkscape:connector-curvature="0"
           sodipodi:nodetypes="ccc" />
        <path
           sodipodi:nodetypes="ccc"
           style="fill:none;stroke:#167197;stroke-width:1px;stroke-linecap:butt;stroke-linejoin:miter;stroke-opacity:1"
           d="m 405,277.36218 0,120 -25,25"
           id="path3906"
           inkscape:connector-curvature="0" />
        <path
           style="fill:none;stroke:#167197;stroke-width:1px;stroke-linecap:butt;stroke-linejoin:miter;stroke-opacity:1"
           d="m 560,302.36218 -45,0 -5,-5 0,-37.5 -17.5,-17.5 -40,0 -42.5,42.5 0,17.5 0,97.5 -22.5,22.5"
           id="path3908"
           inkscape:connector-curvature="0"
           sodipodi:nodetypes="cccccccccc" />
        <path
           sodipodi:nodetypes="cccccccccc"
           style="fill:none;stroke:#167197;stroke-width:1px;stroke-linecap:butt;stroke-linejoin:miter;stroke-opacity:1"
           d="m 395,422.36218 20,-20 0,-95 0,-20 40,-40 35,0 15,15 0,37.5 7.5,7.5 47.5,0"
           id="path3910"
           inkscape:connector-curvature="0" />
        <path
           style="fill:none;stroke:#167197;stroke-width:1px;stroke-linecap:butt;stroke-linejoin:miter;stroke-opacity:1"
           d="m 560,312.36218 -50,0 -10,-10 0,-37.5 -12.5,-12.5 -30,0 -37.5,37.5 0,22.5 0,92.5 -17.5,17.5"
           id="path3912"
           inkscape:connector-curvature="0"
           sodipodi:nodetypes="cccccccccc" />
        <path
           sodipodi:nodetypes="cccccccccccc"
           style="fill:none;stroke:#167197;stroke-width:1px;stroke-linecap:butt;stroke-linejoin:miter;stroke-opacity:1"
           d="m 410,422.36218 15,-15 0,-90 0,-15 0,-10 35,-35 25,0 10,10 0,37.5 12.5,12.5 47.5,0 5,0"
           id="path3918"
           inkscape:connector-curvature="0" />
        <path
           style="fill:none;stroke:#167197;stroke-width:4;stroke-linecap:butt;stroke-linejoin:miter;stroke-miterlimit:4;stroke-opacity:1;stroke-dasharray:none"
           d="m 20,132.36218 40,0 30,-30 5,0"
           id="path3798"
           inkscape:connector-curvature="0" />
        <path
           style="fill:none;stroke:#167197;stroke-width:4;stroke-linecap:butt;stroke-linejoin:miter;stroke-miterlimit:4;stroke-opacity:1;stroke-dasharray:none"
           d="m 20,142.36218 55,0 25,25 0,15 30,30 0,10"
           id="path3800"
           inkscape:connector-curvature="0"
           sodipodi:nodetypes="cccc" />
        <path
           style="fill:none;stroke:#167197;stroke-width:4;stroke-linecap:butt;stroke-linejoin:miter;stroke-miterlimit:4;stroke-opacity:1;stroke-dasharray:none"
           d="m 110,422.36218 0,-35 -30,-30 -60,0"
           id="path3802"
           inkscape:connector-curvature="0" />
        <path
           style="fill:none;stroke:#167197;stroke-width:4;stroke-linecap:butt;stroke-linejoin:miter;stroke-miterlimit:4;stroke-opacity:1;stroke-dasharray:none"
           d="m 120,422.36218 0,-40 -35,-35 -65,0"
           id="path3804"
           inkscape:connector-curvature="0" />
        <path
           style="fill:none;stroke:#167197;stroke-width:4;stroke-linecap:butt;stroke-linejoin:miter;stroke-miterlimit:4;stroke-opacity:1;stroke-dasharray:none"
           d="m 130,422.36218 0,-45 -40,-40 -65,0 -5,0"
           id="path3806"
           inkscape:connector-curvature="0" />
        <path
           style="fill:none;stroke:#167197;stroke-width:4;stroke-linecap:butt;stroke-linejoin:miter;stroke-miterlimit:4;stroke-opacity:1;stroke-dasharray:none"
           d="m 140,422.36218 0,-50 -45,-45 -75,0"
           id="path3808"
           inkscape:connector-curvature="0" />
        <path
           style="fill:none;stroke:#167197;stroke-width:4;stroke-linecap:butt;stroke-linejoin:miter;stroke-miterlimit:4;stroke-opacity:1;stroke-dasharray:none"
           d="m 170,67.362183 0,74.999997"
           id="path3810"
           inkscape:connector-curvature="0" />
        <g
           id="g3818"
           style="stroke:#167197;stroke-width:4;stroke-miterlimit:4;stroke-opacity:1;stroke-dasharray:none">
          <path
             sodipodi:nodetypes="cccccc"
             inkscape:connector-curvature="0"
             id="path2991"
             d="m 110,67.362183 0,109.999997 60,60 0,120 0,0 0,65"
             style="fill:none;stroke:#167197;stroke-width:4;stroke-linecap:butt;stroke-linejoin:miter;stroke-miterlimit:4;stroke-opacity:1;stroke-dasharray:none" />
        </g>
        <path
           style="fill:none;stroke:#167197;stroke-width:6;stroke-linecap:butt;stroke-linejoin:miter;stroke-miterlimit:4;stroke-opacity:1;stroke-dasharray:none"
           d="m 155,422.36218 0,-65 -15,-15 0,-86"
           id="path3814"
           inkscape:connector-curvature="0"
           sodipodi:nodetypes="cccc" />
        <path
           style="fill:none;stroke:#167197;stroke-width:6;stroke-linecap:butt;stroke-linejoin:miter;stroke-miterlimit:4;stroke-opacity:1;stroke-dasharray:none"
           d="m 155,67.362183 0,79.999997 20,20 20,0"
           id="path3816"
           inkscape:connector-curvature="0" />
        <path
           sodipodi:nodetypes="ccc"
           style="fill:none;stroke:#167197;stroke-width:1px;stroke-linecap:butt;stroke-linejoin:miter;stroke-opacity:1"
           d="m 350,422.36218 35,-35 0,-60"
           id="path3860"
           inkscape:connector-curvature="0" />
        <path
           style="fill:none;stroke:#167197;stroke-width:1px;stroke-linecap:butt;stroke-linejoin:miter;stroke-opacity:1"
           d="m 350,67.362183 -15,15 -80,0 -65,0"
           id="path3868"
           inkscape:connector-curvature="0" />
        <path
           inkscape:connector-curvature="0"
           id="path4181"
           d="m 560,252.36218 -20,0 -50,-50 -25,0 -20,0"
           style="fill:none;stroke:#167197;stroke-width:6;stroke-linecap:butt;stroke-linejoin:miter;stroke-miterlimit:4;stroke-opacity:1;stroke-dasharray:none"
           sodipodi:nodetypes="ccccc" />
        <path
           inkscape:connector-curvature="0"
           id="path4183"
           d="m 560,357.36218 -40,0 -10,10 0,55.00002"
           style="fill:none;stroke:#167197;stroke-width:4;stroke-linecap:butt;stroke-linejoin:miter;stroke-miterlimit:4;stroke-opacity:1;stroke-dasharray:none" />
        <path
           inkscape:connector-curvature="0"
           id="path4185"
           d="m 560,347.36218 -45,0 -15,15 0,60.00002"
           style="fill:none;stroke:#167197;stroke-width:4;stroke-linecap:butt;stroke-linejoin:miter;stroke-miterlimit:4;stroke-opacity:1;stroke-dasharray:none" />
        <path
           inkscape:connector-curvature="0"
           id="path4187"
           d="m 560,337.36218 -90,0 -10,-10 0,-40"
           style="fill:none;stroke:#167197;stroke-width:4;stroke-linecap:butt;stroke-linejoin:miter;stroke-miterlimit:4;stroke-opacity:1;stroke-dasharray:none" />
        <path
           inkscape:connector-curvature="0"
           id="path4191"
           d="m 560,327.36218 -85,0 -5,-5 0,-45"
           style="fill:none;stroke:#167197;stroke-width:4;stroke-linecap:butt;stroke-linejoin:miter;stroke-miterlimit:4;stroke-opacity:1;stroke-dasharray:none" />
        <path
           inkscape:connector-curvature="0"
           id="path4193"
           d="m 510,67.362183 0,5 10,10 40,0"
           style="fill:none;stroke:#167197;stroke-width:4;stroke-linecap:butt;stroke-linejoin:miter;stroke-miterlimit:4;stroke-opacity:1;stroke-dasharray:none" />
        <path
           inkscape:connector-curvature="0"
           id="path4195"
           d="m 500,67.362183 0,10 -10,10 -80,0 -15,14.999997 0,5"
           style="fill:none;stroke:#167197;stroke-width:4;stroke-linecap:butt;stroke-linejoin:miter;stroke-miterlimit:4;stroke-opacity:1;stroke-dasharray:none" />
        <path
           inkscape:connector-curvature="0"
           id="path4179-1"
           d="m 115,252.36218 -95,0"
           style="fill:none;stroke:#167197;stroke-width:6;stroke-linecap:butt;stroke-linejoin:miter;stroke-miterlimit:4;stroke-opacity:1;stroke-dasharray:none" />
        <path
           inkscape:connector-curvature="0"
           id="path4197-1"
           d="m 20,82.362183 75,-3e-6"
           style="fill:none;stroke:#167197;stroke-width:4;stroke-linecap:butt;stroke-linejoin:miter;stroke-miterlimit:4;stroke-opacity:1;stroke-dasharray:none"
           sodipodi:nodetypes="cc" />
        <path
           sodipodi:type="arc"
           style="fill:none;stroke:#167197;stroke-width:2;stroke-linecap:butt;stroke-linejoin:miter;stroke-miterlimit:4;stroke-opacity:1;stroke-dasharray:none"
           id="path3041"
           sodipodi:cx="362.5"
           sodipodi:cy="202.5"
           sodipodi:rx="2.5"
           sodipodi:ry="2.5"
           d="m 365,202.5 a 2.5,2.5 0 1 1 -5,0 2.5,2.5 0 1 1 5,0 z"
           transform="matrix(0.5,0,0,0.5,203.75,174.86218)" />
        <path
           sodipodi:type="arc"
           style="fill:none;stroke:#167197;stroke-width:2;stroke-linecap:butt;stroke-linejoin:miter;stroke-miterlimit:4;stroke-opacity:1;stroke-dasharray:none"
           id="path3041-9"
           sodipodi:cx="362.5"
           sodipodi:cy="202.5"
           sodipodi:rx="2.5"
           sodipodi:ry="2.5"
           d="m 365,202.5 a 2.5,2.5 0 1 1 -5,0 2.5,2.5 0 1 1 5,0 z"
           transform="matrix(0.5,0,0,0.5,208.75,174.86218)" />
        <path
           sodipodi:type="arc"
           style="fill:none;stroke:#167197;stroke-width:2;stroke-linecap:butt;stroke-linejoin:miter;stroke-miterlimit:4;stroke-opacity:1;stroke-dasharray:none"
           id="path3041-95"
           sodipodi:cx="362.5"
           sodipodi:cy="202.5"
           sodipodi:rx="2.5"
           sodipodi:ry="2.5"
           d="m 365,202.5 a 2.5,2.5 0 1 1 -5,0 2.5,2.5 0 1 1 5,0 z"
           transform="matrix(0.5,0,0,0.5,213.75,174.86218)" />
        <path
           sodipodi:type="arc"
           style="fill:none;stroke:#167197;stroke-width:2;stroke-linecap:butt;stroke-linejoin:miter;stroke-miterlimit:4;stroke-opacity:1;stroke-dasharray:none"
           id="path3041-2"
           sodipodi:cx="362.5"
           sodipodi:cy="202.5"
           sodipodi:rx="2.5"
           sodipodi:ry="2.5"
           d="m 365,202.5 a 2.5,2.5 0 1 1 -5,0 2.5,2.5 0 1 1 5,0 z"
           transform="matrix(0.5,0,0,0.5,218.75,174.86218)" />
        <path
           sodipodi:type="arc"
           style="fill:none;stroke:#167197;stroke-width:2;stroke-linecap:butt;stroke-linejoin:miter;stroke-miterlimit:4;stroke-opacity:1;stroke-dasharray:none"
           id="path3041-1"
           sodipodi:cx="362.5"
           sodipodi:cy="202.5"
           sodipodi:rx="2.5"
           sodipodi:ry="2.5"
           d="m 365,202.5 a 2.5,2.5 0 1 1 -5,0 2.5,2.5 0 1 1 5,0 z"
           transform="matrix(0.5,0,0,0.5,223.75,174.86218)" />
        <path
           sodipodi:type="arc"
           style="fill:none;stroke:#167197;stroke-width:2;stroke-linecap:butt;stroke-linejoin:miter;stroke-miterlimit:4;stroke-opacity:1;stroke-dasharray:none"
           id="path3041-3"
           sodipodi:cx="362.5"
           sodipodi:cy="202.5"
           sodipodi:rx="2.5"
           sodipodi:ry="2.5"
           d="m 365,202.5 a 2.5,2.5 0 1 1 -5,0 2.5,2.5 0 1 1 5,0 z"
           transform="matrix(0.5,0,0,0.5,203.75,162.36218)" />
        <path
           sodipodi:type="arc"
           style="fill:none;stroke:#167197;stroke-width:2;stroke-linecap:butt;stroke-linejoin:miter;stroke-miterlimit:4;stroke-opacity:1;stroke-dasharray:none"
           id="path3041-9-3"
           sodipodi:cx="362.5"
           sodipodi:cy="202.5"
           sodipodi:rx="2.5"
           sodipodi:ry="2.5"
           d="m 365,202.5 a 2.5,2.5 0 1 1 -5,0 2.5,2.5 0 1 1 5,0 z"
           transform="matrix(0.5,0,0,0.5,208.75,162.36218)" />
        <path
           sodipodi:type="arc"
           style="fill:none;stroke:#167197;stroke-width:2;stroke-linecap:butt;stroke-linejoin:miter;stroke-miterlimit:4;stroke-opacity:1;stroke-dasharray:none"
           id="path3041-95-4"
           sodipodi:cx="362.5"
           sodipodi:cy="202.5"
           sodipodi:rx="2.5"
           sodipodi:ry="2.5"
           d="m 365,202.5 a 2.5,2.5 0 1 1 -5,0 2.5,2.5 0 1 1 5,0 z"
           transform="matrix(0.5,0,0,0.5,213.75,162.36218)" />
        <path
           sodipodi:type="arc"
           style="fill:none;stroke:#167197;stroke-width:2;stroke-linecap:butt;stroke-linejoin:miter;stroke-miterlimit:4;stroke-opacity:1;stroke-dasharray:none"
           id="path3041-2-6"
           sodipodi:cx="362.5"
           sodipodi:cy="202.5"
           sodipodi:rx="2.5"
           sodipodi:ry="2.5"
           d="m 365,202.5 a 2.5,2.5 0 1 1 -5,0 2.5,2.5 0 1 1 5,0 z"
           transform="matrix(0.5,0,0,0.5,218.75,162.36218)" />
        <path
           sodipodi:type="arc"
           style="fill:none;stroke:#167197;stroke-width:2;stroke-linecap:butt;stroke-linejoin:miter;stroke-miterlimit:4;stroke-opacity:1;stroke-dasharray:none"
           id="path3041-1-1"
           sodipodi:cx="362.5"
           sodipodi:cy="202.5"
           sodipodi:rx="2.5"
           sodipodi:ry="2.5"
           d="m 365,202.5 a 2.5,2.5 0 1 1 -5,0 2.5,2.5 0 1 1 5,0 z"
           transform="matrix(0.5,0,0,0.5,223.75,162.36218)" />
        <path
           sodipodi:type="arc"
           style="fill:none;stroke:#167197;stroke-width:2;stroke-linecap:butt;stroke-linejoin:miter;stroke-miterlimit:4;stroke-opacity:1;stroke-dasharray:none"
           id="path3041-9-8"
           sodipodi:cx="362.5"
           sodipodi:cy="202.5"
           sodipodi:rx="2.5"
           sodipodi:ry="2.5"
           d="m 365,202.5 a 2.5,2.5 0 1 1 -5,0 2.5,2.5 0 1 1 5,0 z"
           transform="matrix(0.5,0,0,0.5,7.5,-18.88782)" />
        <path
           sodipodi:type="arc"
           style="fill:none;stroke:#167197;stroke-width:2;stroke-linecap:butt;stroke-linejoin:miter;stroke-miterlimit:4;stroke-opacity:1;stroke-dasharray:none"
           id="path3041-9-0"
           sodipodi:cx="362.5"
           sodipodi:cy="202.5"
           sodipodi:rx="2.5"
           sodipodi:ry="2.5"
           d="m 365,202.5 a 2.5,2.5 0 1 1 -5,0 2.5,2.5 0 1 1 5,0 z"
           transform="matrix(0.5,0,0,0.5,12.5,-13.88782)" />
        <path
           sodipodi:type="arc"
           style="fill:none;stroke:#167197;stroke-width:2;stroke-linecap:butt;stroke-linejoin:miter;stroke-miterlimit:4;stroke-opacity:1;stroke-dasharray:none"
           id="path3041-9-06"
           sodipodi:cx="362.5"
           sodipodi:cy="202.5"
           sodipodi:rx="2.5"
           sodipodi:ry="2.5"
           d="m 365,202.5 a 2.5,2.5 0 1 1 -5,0 2.5,2.5 0 1 1 5,0 z"
           transform="matrix(0.5,0,0,0.5,17.5,-8.88782)" />
        <path
           sodipodi:type="arc"
           style="fill:none;stroke:#167197;stroke-width:2;stroke-linecap:butt;stroke-linejoin:miter;stroke-miterlimit:4;stroke-opacity:1;stroke-dasharray:none"
           id="path3041-9-4"
           sodipodi:cx="362.5"
           sodipodi:cy="202.5"
           sodipodi:rx="2.5"
           sodipodi:ry="2.5"
           d="m 365,202.5 a 2.5,2.5 0 1 1 -5,0 2.5,2.5 0 1 1 5,0 z"
           transform="matrix(0.5,0,0,0.5,22.5,-3.88782)" />
        <path
           sodipodi:type="arc"
           style="fill:none;stroke:#167197;stroke-width:2;stroke-linecap:butt;stroke-linejoin:miter;stroke-miterlimit:4;stroke-opacity:1;stroke-dasharray:none"
           id="path3041-9-43"
           sodipodi:cx="362.5"
           sodipodi:cy="202.5"
           sodipodi:rx="2.5"
           sodipodi:ry="2.5"
           d="m 365,202.5 a 2.5,2.5 0 1 1 -5,0 2.5,2.5 0 1 1 5,0 z"
           transform="matrix(0.5,0,0,0.5,27.5,1.11218)" />
        <path
           sodipodi:type="arc"
           style="fill:none;stroke:#167197;stroke-width:2;stroke-linecap:butt;stroke-linejoin:miter;stroke-miterlimit:4;stroke-opacity:1;stroke-dasharray:none"
           id="path3041-9-7"
           sodipodi:cx="362.5"
           sodipodi:cy="202.5"
           sodipodi:rx="2.5"
           sodipodi:ry="2.5"
           d="m 365,202.5 a 2.5,2.5 0 1 1 -5,0 2.5,2.5 0 1 1 5,0 z"
           transform="matrix(0.5,0,0,0.5,32.5,6.11218)" />
        <path
           sodipodi:type="arc"
           style="fill:none;stroke:#167197;stroke-width:2;stroke-linecap:butt;stroke-linejoin:miter;stroke-miterlimit:4;stroke-opacity:1;stroke-dasharray:none"
           id="path3041-9-72"
           sodipodi:cx="362.5"
           sodipodi:cy="202.5"
           sodipodi:rx="2.5"
           sodipodi:ry="2.5"
           d="m 365,202.5 a 2.5,2.5 0 1 1 -5,0 2.5,2.5 0 1 1 5,0 z"
           transform="matrix(0.5,0,0,0.5,37.5,11.11218)" />
        <path
           sodipodi:type="arc"
           style="fill:none;stroke:#167197;stroke-width:2;stroke-linecap:butt;stroke-linejoin:miter;stroke-miterlimit:4;stroke-opacity:1;stroke-dasharray:none"
           id="path3041-9-5"
           sodipodi:cx="362.5"
           sodipodi:cy="202.5"
           sodipodi:rx="2.5"
           sodipodi:ry="2.5"
           d="m 365,202.5 a 2.5,2.5 0 1 1 -5,0 2.5,2.5 0 1 1 5,0 z"
           transform="matrix(0.5,0,0,0.5,42.5,16.11218)" />
        <path
           sodipodi:type="arc"
           style="fill:none;stroke:#167197;stroke-width:2;stroke-linecap:butt;stroke-linejoin:miter;stroke-miterlimit:4;stroke-opacity:1;stroke-dasharray:none"
           id="path3041-9-6"
           sodipodi:cx="362.5"
           sodipodi:cy="202.5"
           sodipodi:rx="2.5"
           sodipodi:ry="2.5"
           d="m 365,202.5 a 2.5,2.5 0 1 1 -5,0 2.5,2.5 0 1 1 5,0 z"
           transform="matrix(0.5,0,0,0.5,47.5,21.11218)" />
        <path
           sodipodi:type="arc"
           style="fill:none;stroke:#167197;stroke-width:2;stroke-linecap:butt;stroke-linejoin:miter;stroke-miterlimit:4;stroke-opacity:1;stroke-dasharray:none"
           id="path3041-9-6-5"
           sodipodi:cx="362.5"
           sodipodi:cy="202.5"
           sodipodi:rx="2.5"
           sodipodi:ry="2.5"
           d="m 365,202.5 a 2.5,2.5 0 1 1 -5,0 2.5,2.5 0 1 1 5,0 z"
           transform="translate(-192.5,-57.63782)" />
        <path
           sodipodi:type="arc"
           style="fill:none;stroke:#167197;stroke-width:2;stroke-linecap:butt;stroke-linejoin:miter;stroke-miterlimit:4;stroke-opacity:1;stroke-dasharray:none"
           id="path3041-9-6-5-4"
           sodipodi:cx="362.5"
           sodipodi:cy="202.5"
           sodipodi:rx="2.5"
           sodipodi:ry="2.5"
           d="m 365,202.5 a 2.5,2.5 0 1 1 -5,0 2.5,2.5 0 1 1 5,0 z"
           transform="translate(-232.5,22.36218)" />
        <path
           sodipodi:type="arc"
           style="fill:none;stroke:#167197;stroke-width:2;stroke-linecap:butt;stroke-linejoin:miter;stroke-miterlimit:4;stroke-opacity:1;stroke-dasharray:none"
           id="path3041-9-6-5-0"
           sodipodi:cx="362.5"
           sodipodi:cy="202.5"
           sodipodi:rx="2.5"
           sodipodi:ry="2.5"
           d="m 365,202.5 a 2.5,2.5 0 1 1 -5,0 2.5,2.5 0 1 1 5,0 z"
           transform="translate(-265,-100.13782)" />
        <path
           sodipodi:type="arc"
           style="fill:none;stroke:#167197;stroke-width:2;stroke-linecap:butt;stroke-linejoin:miter;stroke-miterlimit:4;stroke-opacity:1;stroke-dasharray:none"
           id="path3041-9-6-5-9"
           sodipodi:cx="362.5"
           sodipodi:cy="202.5"
           sodipodi:rx="2.5"
           sodipodi:ry="2.5"
           d="m 365,202.5 a 2.5,2.5 0 1 1 -5,0 2.5,2.5 0 1 1 5,0 z"
           transform="translate(-265,-120.13782)" />
        <path
           sodipodi:type="arc"
           style="fill:none;stroke:#167197;stroke-width:2;stroke-linecap:butt;stroke-linejoin:miter;stroke-miterlimit:4;stroke-opacity:1;stroke-dasharray:none"
           id="path3041-9-6-5-76"
           sodipodi:cx="362.5"
           sodipodi:cy="202.5"
           sodipodi:rx="2.5"
           sodipodi:ry="2.5"
           d="m 365,202.5 a 2.5,2.5 0 1 1 -5,0 2.5,2.5 0 1 1 5,0 z"
           transform="translate(-150,179.86218)" />
        <path
           sodipodi:type="arc"
           style="fill:none;stroke:#167197;stroke-width:2;stroke-linecap:butt;stroke-linejoin:miter;stroke-miterlimit:4;stroke-opacity:1;stroke-dasharray:none"
           id="path3041-9-6-5-96"
           sodipodi:cx="362.5"
           sodipodi:cy="202.5"
           sodipodi:rx="2.5"
           sodipodi:ry="2.5"
           d="m 365,202.5 a 2.5,2.5 0 1 1 -5,0 2.5,2.5 0 1 1 5,0 z"
           transform="matrix(1.5,0,0,1.5,-102.5,-101.38782)" />
        <path
           sodipodi:type="arc"
           style="fill:none;stroke:#167197;stroke-width:2;stroke-linecap:butt;stroke-linejoin:miter;stroke-miterlimit:4;stroke-opacity:1;stroke-dasharray:none"
           id="path3041-9-6-5-1"
           sodipodi:cx="362.5"
           sodipodi:cy="202.5"
           sodipodi:rx="2.5"
           sodipodi:ry="2.5"
           d="m 365,202.5 a 2.5,2.5 0 1 1 -5,0 2.5,2.5 0 1 1 5,0 z"
           transform="translate(-152.5,-2.63782)" />
        <path
           style="fill:none;stroke:#167197;stroke-width:1px;stroke-linecap:butt;stroke-linejoin:miter;stroke-opacity:1"
           d="m 365,195 0,-50 0,-25 35,-35 95,0 45,0"
           id="path4148"
           inkscape:connector-curvature="0"
           transform="translate(20,67.36218)" />
        <path
           style="fill:none;stroke:#167197;stroke-width:1px;stroke-linecap:butt;stroke-linejoin:miter;stroke-opacity:1"
           d="M 370,195 370,122.5 402.5,90 540,90"
           id="path4150"
           inkscape:connector-curvature="0"
           transform="translate(20,67.36218)"
           sodipodi:nodetypes="cccc" />
        <path
           style="fill:none;stroke:#167197;stroke-width:1px;stroke-linecap:butt;stroke-linejoin:miter;stroke-opacity:1"
           d="m 375,195 0,-70 30,-30 135,0"
           id="path4152"
           inkscape:connector-curvature="0"
           transform="translate(20,67.36218)"
           sodipodi:nodetypes="cccc" />
        <path
           style="fill:none;stroke:#167197;stroke-width:1px;stroke-linecap:butt;stroke-linejoin:miter;stroke-opacity:1"
           d="m 380,195 0,-67.5 27.5,-27.5 132.5,0"
           id="path4154"
           inkscape:connector-curvature="0"
           transform="translate(20,67.36218)"
           sodipodi:nodetypes="cccc" />
        <path
           style="fill:none;stroke:#167197;stroke-width:1px;stroke-linecap:butt;stroke-linejoin:miter;stroke-opacity:1"
           d="m 385,195 0,-65 25,-25 130,0"
           id="path4156"
           inkscape:connector-curvature="0"
           transform="translate(20,67.36218)"
           sodipodi:nodetypes="cccc" />
        <path
           style="fill:none;stroke:#167197;stroke-width:1px;stroke-linecap:butt;stroke-linejoin:miter;stroke-opacity:1"
           d="m 0,85 20,0 50,50 0,15"
           id="path4158"
           inkscape:connector-curvature="0"
           transform="translate(20,67.36218)"
           sodipodi:nodetypes="cccc" />
        <path
           style="fill:none;stroke:#167197;stroke-width:1px;stroke-linecap:butt;stroke-linejoin:miter;stroke-opacity:1"
           d="M 0,90 17.5,90 65,137.5 65,150"
           id="path4160"
           inkscape:connector-curvature="0"
           transform="translate(20,67.36218)"
           sodipodi:nodetypes="cccc" />
        <path
           style="fill:none;stroke:#167197;stroke-width:1px;stroke-linecap:butt;stroke-linejoin:miter;stroke-opacity:1"
           d="m 0,95 15,0 45,45 0,10"
           id="path4162"
           inkscape:connector-curvature="0"
           transform="translate(20,67.36218)"
           sodipodi:nodetypes="cccc" />
        <path
           style="fill:none;stroke:#167197;stroke-width:1px;stroke-linecap:butt;stroke-linejoin:miter;stroke-opacity:1"
           d="m 0,100 12.5,0 42.5,42.5 0,7.5"
           id="path4164"
           inkscape:connector-curvature="0"
           transform="translate(20,67.36218)"
           sodipodi:nodetypes="cccc" />
        <path
           sodipodi:type="arc"
           style="fill:none;stroke:#167197;stroke-width:2;stroke-linecap:butt;stroke-linejoin:miter;stroke-miterlimit:4;stroke-opacity:1;stroke-dasharray:none"
           id="path3041-9-6-3"
           sodipodi:cx="362.5"
           sodipodi:cy="202.5"
           sodipodi:rx="2.5"
           sodipodi:ry="2.5"
           d="m 365,202.5 a 2.5,2.5 0 1 1 -5,0 2.5,2.5 0 1 1 5,0 z"
           transform="matrix(0.5,0,0,0.5,-106.25,117.36218)" />
        <path
           sodipodi:type="arc"
           style="fill:none;stroke:#167197;stroke-width:2;stroke-linecap:butt;stroke-linejoin:miter;stroke-miterlimit:4;stroke-opacity:1;stroke-dasharray:none"
           id="path3041-9-6-9"
           sodipodi:cx="362.5"
           sodipodi:cy="202.5"
           sodipodi:rx="2.5"
           sodipodi:ry="2.5"
           d="m 365,202.5 a 2.5,2.5 0 1 1 -5,0 2.5,2.5 0 1 1 5,0 z"
           transform="matrix(0.5,0,0,0.5,-101.25,117.36218)" />
        <path
           sodipodi:type="arc"
           style="fill:none;stroke:#167197;stroke-width:2;stroke-linecap:butt;stroke-linejoin:miter;stroke-miterlimit:4;stroke-opacity:1;stroke-dasharray:none"
           id="path3041-9-6-8"
           sodipodi:cx="362.5"
           sodipodi:cy="202.5"
           sodipodi:rx="2.5"
           sodipodi:ry="2.5"
           d="m 365,202.5 a 2.5,2.5 0 1 1 -5,0 2.5,2.5 0 1 1 5,0 z"
           transform="matrix(0.5,0,0,0.5,-96.25,117.36218)" />
        <path
           sodipodi:type="arc"
           style="fill:none;stroke:#167197;stroke-width:2;stroke-linecap:butt;stroke-linejoin:miter;stroke-miterlimit:4;stroke-opacity:1;stroke-dasharray:none"
           id="path3041-9-6-36"
           sodipodi:cx="362.5"
           sodipodi:cy="202.5"
           sodipodi:rx="2.5"
           sodipodi:ry="2.5"
           d="m 365,202.5 a 2.5,2.5 0 1 1 -5,0 2.5,2.5 0 1 1 5,0 z"
           transform="matrix(0.5,0,0,0.5,-91.25,117.36218)" />
        <path
           style="fill:none;stroke:#167197;stroke-width:1px;stroke-linecap:butt;stroke-linejoin:miter;stroke-opacity:1"
           d="m 0,250 100,0"
           id="path4216"
           inkscape:connector-curvature="0"
           transform="translate(20,67.36218)" />
        <path
           style="fill:none;stroke:#167197;stroke-width:1px;stroke-linecap:butt;stroke-linejoin:miter;stroke-opacity:1"
           d="m 0,245 95,0"
           id="path4218"
           inkscape:connector-curvature="0"
           transform="translate(20,67.36218)" />
        <path
           style="fill:none;stroke:#167197;stroke-width:1px;stroke-linecap:butt;stroke-linejoin:miter;stroke-opacity:1"
           d="m 0,240 90,0"
           id="path4220"
           inkscape:connector-curvature="0"
           transform="translate(20,67.36218)" />
        <path
           style="fill:none;stroke:#167197;stroke-width:1px;stroke-linecap:butt;stroke-linejoin:miter;stroke-opacity:1"
           d="m 0,235 85,0"
           id="path4222"
           inkscape:connector-curvature="0"
           transform="translate(20,67.36218)" />
        <path
           sodipodi:type="arc"
           style="fill:none;stroke:#167197;stroke-width:2;stroke-linecap:butt;stroke-linejoin:miter;stroke-miterlimit:4;stroke-opacity:1;stroke-dasharray:none"
           id="path3041-9-6-36-7"
           sodipodi:cx="362.5"
           sodipodi:cy="202.5"
           sodipodi:rx="2.5"
           sodipodi:ry="2.5"
           d="m 365,202.5 a 2.5,2.5 0 1 1 -5,0 2.5,2.5 0 1 1 5,0 z"
           transform="matrix(0.5,0,0,0.5,-60,216.11218)" />
        <path
           sodipodi:type="arc"
           style="fill:none;stroke:#167197;stroke-width:2;stroke-linecap:butt;stroke-linejoin:miter;stroke-miterlimit:4;stroke-opacity:1;stroke-dasharray:none"
           id="path3041-9-6-36-8"
           sodipodi:cx="362.5"
           sodipodi:cy="202.5"
           sodipodi:rx="2.5"
           sodipodi:ry="2.5"
           d="m 365,202.5 a 2.5,2.5 0 1 1 -5,0 2.5,2.5 0 1 1 5,0 z"
           transform="matrix(0.5,0,0,0.5,-65,211.11218)" />
        <path
           sodipodi:type="arc"
           style="fill:none;stroke:#167197;stroke-width:2;stroke-linecap:butt;stroke-linejoin:miter;stroke-miterlimit:4;stroke-opacity:1;stroke-dasharray:none"
           id="path3041-9-6-36-74"
           sodipodi:cx="362.5"
           sodipodi:cy="202.5"
           sodipodi:rx="2.5"
           sodipodi:ry="2.5"
           d="m 365,202.5 a 2.5,2.5 0 1 1 -5,0 2.5,2.5 0 1 1 5,0 z"
           transform="matrix(0.5,0,0,0.5,-70,206.11218)" />
        <path
           sodipodi:type="arc"
           style="fill:none;stroke:#167197;stroke-width:2;stroke-linecap:butt;stroke-linejoin:miter;stroke-miterlimit:4;stroke-opacity:1;stroke-dasharray:none"
           id="path3041-9-6-36-9"
           sodipodi:cx="362.5"
           sodipodi:cy="202.5"
           sodipodi:rx="2.5"
           sodipodi:ry="2.5"
           d="m 365,202.5 a 2.5,2.5 0 1 1 -5,0 2.5,2.5 0 1 1 5,0 z"
           transform="matrix(0.5,0,0,0.5,-75,201.11218)" />
        <path
           sodipodi:type="arc"
           style="fill:none;stroke:#167197;stroke-width:2;stroke-linecap:butt;stroke-linejoin:miter;stroke-miterlimit:4;stroke-opacity:1;stroke-dasharray:none"
           id="path3041-9-6-5-96-5"
           sodipodi:cx="362.5"
           sodipodi:cy="202.5"
           sodipodi:rx="2.5"
           sodipodi:ry="2.5"
           d="m 365,202.5 a 2.5,2.5 0 1 1 -5,0 2.5,2.5 0 1 1 5,0 z"
           transform="matrix(1.5,0,0,1.5,-425,-51.38782)" />
        <path
           sodipodi:type="arc"
           style="fill:none;stroke:#167197;stroke-width:2;stroke-linecap:butt;stroke-linejoin:miter;stroke-miterlimit:4;stroke-opacity:1;stroke-dasharray:none"
           id="path3041-9-6-5-96-2"
           sodipodi:cx="362.5"
           sodipodi:cy="202.5"
           sodipodi:rx="2.5"
           sodipodi:ry="2.5"
           d="m 365,202.5 a 2.5,2.5 0 1 1 -5,0 2.5,2.5 0 1 1 5,0 z"
           transform="matrix(1.5,0,0,1.5,-403.75,-51.33782)" />
        <path
           sodipodi:type="arc"
           style="fill:none;stroke:#167197;stroke-width:2;stroke-linecap:butt;stroke-linejoin:miter;stroke-miterlimit:4;stroke-opacity:1;stroke-dasharray:none"
           id="path3041-9-6-5-96-6"
           sodipodi:cx="362.5"
           sodipodi:cy="202.5"
           sodipodi:rx="2.5"
           sodipodi:ry="2.5"
           d="m 365,202.5 a 2.5,2.5 0 1 1 -5,0 2.5,2.5 0 1 1 5,0 z"
           transform="matrix(1.5,0,0,1.5,-345,-136.38782)" />
        <path
           style="fill:none;stroke:#167197;stroke-width:1px;stroke-linecap:butt;stroke-linejoin:miter;stroke-opacity:1"
           d="m 20,172.36218 10,0 40,40 0,5"
           id="path4164-6"
           inkscape:connector-curvature="0"
           sodipodi:nodetypes="cccc" />
        <path
           sodipodi:type="arc"
           style="fill:none;stroke:#167197;stroke-width:2;stroke-linecap:butt;stroke-linejoin:miter;stroke-miterlimit:4;stroke-opacity:1;stroke-dasharray:none"
           id="path3041-9-6-3-2"
           sodipodi:cx="362.5"
           sodipodi:cy="202.5"
           sodipodi:rx="2.5"
           sodipodi:ry="2.5"
           d="m 365,202.5 a 2.5,2.5 0 1 1 -5,0 2.5,2.5 0 1 1 5,0 z"
           transform="matrix(0.5,0,0,0.5,-111.25,117.36218)" />
      </g>
      <path
         sodipodi:type="arc"
         style="fill:none;stroke:#167197;stroke-width:2;stroke-linecap:butt;stroke-linejoin:miter;stroke-miterlimit:4;stroke-opacity:1;stroke-dasharray:none"
         id="path3041-9-6-5-2"
         sodipodi:cx="362.5"
         sodipodi:cy="202.5"
         sodipodi:rx="2.5"
         sodipodi:ry="2.5"
         d="m 365,202.5 a 2.5,2.5 0 1 1 -5,0 2.5,2.5 0 1 1 5,0 z"
         transform="translate(77.5,712.36218)" />
      <path
         sodipodi:type="arc"
         style="fill:none;stroke:#167197;stroke-width:2;stroke-linecap:butt;stroke-linejoin:miter;stroke-miterlimit:4;stroke-opacity:1;stroke-dasharray:none"
         id="path3041-9-6-5-27"
         sodipodi:cx="362.5"
         sodipodi:cy="202.5"
         sodipodi:rx="2.5"
         sodipodi:ry="2.5"
         d="m 365,202.5 a 2.5,2.5 0 1 1 -5,0 2.5,2.5 0 1 1 5,0 z"
         transform="translate(87.5,702.36218)" />
      <path
         sodipodi:type="arc"
         style="fill:none;stroke:#167197;stroke-width:2;stroke-linecap:butt;stroke-linejoin:miter;stroke-miterlimit:4;stroke-opacity:1;stroke-dasharray:none"
         id="path3041-9-6-5-6"
         sodipodi:cx="362.5"
         sodipodi:cy="202.5"
         sodipodi:rx="2.5"
         sodipodi:ry="2.5"
         d="m 365,202.5 a 2.5,2.5 0 1 1 -5,0 2.5,2.5 0 1 1 5,0 z"
         transform="translate(12.5,537.36218)" />
    </g>
  </g>
</svg>
