<?xml version="1.0" encoding="UTF-8" standalone="no"?>
<!-- Created with Inkscape (http://www.inkscape.org/) -->

<svg
   xmlns:dc="http://purl.org/dc/elements/1.1/"
   xmlns:cc="http://creativecommons.org/ns#"
   xmlns:rdf="http://www.w3.org/1999/02/22-rdf-syntax-ns#"
   xmlns:svg="http://www.w3.org/2000/svg"
   xmlns="http://www.w3.org/2000/svg"
   xmlns:sodipodi="http://sodipodi.sourceforge.net/DTD/sodipodi-0.dtd"
   xmlns:inkscape="http://www.inkscape.org/namespaces/inkscape"
   id="svg3039"
   version="1.1"
   inkscape:version="0.48.1 r9760"
   width="500"
   height="500"
   sodipodi:docname="logo.svg"
   inkscape:export-filename="./logo.png"
   inkscape:export-xdpi="108"
   inkscape:export-ydpi="108">
  <metadata
     id="metadata3045">
    <rdf:RDF>
      <cc:Work
         rdf:about="">
        <dc:format>image/svg+xml</dc:format>
        <dc:type
           rdf:resource="http://purl.org/dc/dcmitype/StillImage" />
        <dc:title></dc:title>
      </cc:Work>
    </rdf:RDF>
  </metadata>
  <defs
     id="defs3043" />
  <sodipodi:namedview
     pagecolor="#ffffff"
     bordercolor="#666666"
     borderopacity="1"
     objecttolerance="10"
     gridtolerance="10"
     guidetolerance="10"
     inkscape:pageopacity="0"
     inkscape:pageshadow="2"
     inkscape:window-width="1389"
     inkscape:window-height="942"
     id="namedview3041"
     showgrid="false"
     inkscape:zoom="0.90675241"
     inkscape:cx="342.78084"
     inkscape:cy="221.4225"
     inkscape:window-x="281"
     inkscape:window-y="52"
     inkscape:window-maximized="0"
     inkscape:current-layer="g3085" />
  <g
     inkscape:groupmode="layer"
     id="layer1"
     inkscape:label="BG"
     style="opacity:1" />
  <g
     inkscape:groupmode="layer"
     id="layer2"
     inkscape:label="Logo" />
  <g
     id="g3085"
     transform="matrix(1.6781529,0,0,1.6781529,-30.740866,-5.8396716)">
    <path
       id="path3087"
       style="fill:#010101"
       d="m 188.25423,300.30732 c -8.33982,-0.62099 -11.17928,-1.13806 -31.17325,-5.67666 -8.00173,-1.81638 -15.02413,-4.53059 -40.055,-15.4815 -4.88495,-2.13716 -9.18725,-3.88573 -9.56067,-3.88573 -1.68484,0 -20.863075,-11.06336 -29.341,-16.92596 -5.157065,-3.56618 -11.946266,-8.23705 -15.087112,-10.37968 -6.71386,-4.5801 -22.544185,-19.02348 -22.544185,-20.56902 0,-1.1428 -6.649626,-15.12195 -9.004322,-18.92929 -0.776877,-1.25615 -2.396336,-5.88104 -3.598799,-10.27754 -1.202463,-4.39649 -3.362249,-11.84771 -4.799524,-16.55824 -3.528785,-11.56526 -4.361304,-22.46722 -2.675888,-35.04116 2.051982,-15.30872 5.319328,-23.94669 11.366482,-30.04987 2.800373,-2.82633 6.577605,-7.11526 8.393849,-9.53095 1.816246,-2.4157 6.4184,-6.33833 10.227011,-8.716951 3.80861,-2.37862 8.48174,-5.656639 10.384731,-7.284497 2.546609,-2.17843 4.686197,-2.921606 8.105046,-2.815255 2.554784,0.07947 10.529971,-0.446649 17.722636,-1.169157 12.863821,-1.292182 19.622845,-0.632165 23.021055,2.248003 0.65152,0.552199 2.13006,1.003998 3.28565,1.003998 2.43232,0 6.59485,5.237053 5.47796,6.892067 -1.0933,1.620047 -6.60597,4.064082 -15.58694,6.910462 -12.756365,4.04293 -36.133415,20.60503 -36.133415,25.59968 0,0.90115 -1.122238,3.46828 -2.493861,5.70474 -1.371623,2.23646 -2.49386,4.90947 -2.49386,5.94005 0,1.03056 -0.76937,2.68502 -1.709714,3.67659 -3.865196,4.07573 -7.242741,16.46925 -7.337926,26.92569 -0.08862,9.73588 1.859259,19.98409 3.79839,19.98409 0.489103,0 2.286784,2.44091 3.994846,5.42425 8.704722,15.20385 27.194125,34.3998 37.320126,38.74626 0.97632,0.41909 2.856074,1.75189 4.177214,2.9618 1.62173,1.4852 2.81237,1.82409 3.66506,1.0432 1.55983,-1.42851 0.21759,-3.63954 -2.20942,-3.63954 -0.98826,0 -1.79681,-0.43139 -1.79681,-0.95864 0,-0.52726 -1.35905,-1.52575 -3.020134,-2.21886 -5.01067,-2.09081 -8.202241,-5.17441 -8.202241,-7.92479 0,-1.4306 -0.54351,-2.60109 -1.20779,-2.60109 -0.66429,0 -0.90053,-0.73332 -0.52497,-1.6296 0.50722,-1.21052 -0.064,-1.47871 -2.22127,-1.04288 -2.2408,0.45271 -2.48822,0.31919 -1.08327,-0.58458 1.57645,-1.01411 1.53462,-1.4609 -0.31173,-3.32934 -1.1729,-1.18693 -2.13255,-2.77781 -2.13255,-3.5353 0,-0.75748 1.70687,0.4031 3.79305,2.57908 2.08618,2.17598 5.414121,4.28241 7.395421,4.68094 1.98131,0.39853 4.34255,1.5586 5.24719,2.57792 1.416924,1.59654 1.342474,1.74956 -0.5373,1.10439 -2.84324,-0.97585 -2.76012,-0.47181 0.7656,4.64308 3.734834,5.41825 6.526514,7.62232 7.613754,6.01123 0.44443,-0.65858 0.46128,-1.71128 0.0374,-2.33935 -0.42385,-0.62807 -0.23886,-1.14195 0.4111,-1.14195 0.64997,0 1.52414,1.6701 1.94261,3.71133 0.98154,4.78775 8.73552,10.84675 11.34395,8.86421 2.48055,-1.88534 7.31374,0.6159 6.52532,3.37694 -0.3292,1.1529 0.46285,2.8763 1.80595,3.92947 1.31577,1.03175 2.0994,2.30995 1.74141,2.84044 -0.35801,0.53049 1.53508,0.91204 4.20687,0.84787 2.67176,-0.0642 4.53746,-0.59128 4.14597,-1.17139 -0.39148,-0.5801 -0.064,-0.68808 0.7278,-0.23993 0.79178,0.44815 1.43959,1.47565 1.43959,2.28335 0,4.55914 10.06356,7.02435 13.26704,3.24995 1.60344,-1.88922 1.79601,-1.87362 3.52398,0.28548 3.6465,4.55624 4.56559,5.13877 8.10768,5.13877 1.98141,0 4.44424,-0.77081 5.47295,-1.71292 1.02872,-0.94211 2.47161,-1.71292 3.2064,-1.71292 0.7348,0 1.39108,-0.89929 1.45842,-1.99841 0.0673,-1.09913 0.79242,0.31403 1.61133,3.14035 1.26362,4.36115 2.012,5.19452 4.94561,5.50721 1.90118,0.20264 5.63705,-0.6195 8.30193,-1.82697 4.90481,-2.22239 7.46345,-1.64407 7.46345,1.68692 0,1.7422 1.28411,1.77265 13.71623,0.32515 10.63465,-1.23822 19.95089,-3.47946 19.95089,-4.79967 0,-0.49094 0.64842,-0.89264 1.44096,-0.89264 0.79252,0 3.28013,-1.28469 5.528,-2.85487 2.24785,-1.57017 4.68557,-2.85487 5.41714,-2.85487 0.73158,0 1.33013,-0.81691 1.33013,-1.81536 0,-1.98355 4.72668,-6.0795 7.08581,-6.14028 0.81106,-0.0209 1.83082,-1.06574 2.26616,-2.32189 0.43535,-1.25614 1.59539,-2.28389 2.57789,-2.28389 2.04243,0 2.46147,-4.17138 0.4798,-4.77633 -0.71861,-0.21936 0.87969,-3.25708 3.55179,-6.75047 2.67211,-3.49339 5.26499,-7.83532 5.76196,-9.64873 0.49699,-1.81341 2.01547,-5.62739 3.37441,-8.4755 1.35894,-2.84811 2.96219,-6.20614 3.56278,-7.46228 3.52999,-7.38313 4.07733,-11.63074 3.08078,-23.90814 -0.56404,-6.9488 -1.0629,-14.7691 -1.10856,-17.37843 -0.0456,-2.60933 -0.45415,-4.53418 -0.90773,-4.27745 -0.45359,0.25673 -1.22141,-1.68357 -1.70626,-4.31178 -0.48485,-2.6282 -1.87031,-6.39075 -3.0788,-8.36121 -1.20849,-1.97047 -2.58946,-5.21801 -3.06881,-7.21675 -0.47937,-1.99875 -1.24782,-3.64208 -1.70769,-3.65185 -0.45985,-0.0103 -2.23892,-2.65075 -3.95344,-5.86888 -6.05449,-11.36409 -25.51013,-28.49436 -42.86793,-37.744282 -4.88382,-2.602568 -10.28246,-5.868666 -11.997,-7.257996 -1.71452,-1.389331 -4.52011,-2.909986 -6.23465,-3.379234 -4.01917,-1.100008 -4.94523,-2.48932 -4.96862,-7.454137 -0.0103,-2.229654 -0.66121,-4.641977 -1.44605,-5.360721 -1.0713,-0.981109 -1.02946,-2.185593 0.16786,-4.832797 0.87712,-1.939296 1.2489,-3.842753 0.82616,-4.229906 -0.42276,-0.387151 0.48367,-1.704291 2.01429,-2.926977 2.22849,-1.780186 3.90076,-2.085678 8.39408,-1.533443 5.76077,0.708008 20.84152,4.880667 23.06821,6.382694 0.68581,0.462618 3.44572,1.490413 6.13311,2.283986 15.71811,4.641458 39.64614,23.459002 52.1029,40.974873 5.54996,7.80398 20.94405,41.04786 20.94405,45.22912 0,0.96455 0.53162,2.64603 1.18138,3.73664 2.82402,4.74004 5.1559,20.14713 5.2466,34.66522 0.22226,35.57316 -11.05258,62.6971 -35.02733,84.26535 -6.88251,6.19166 -11.22001,8.81055 -24.48475,14.78333 -8.86629,3.99227 -17.10431,7.72328 -18.30673,8.29113 -5.56742,2.62929 -32.78279,4.41632 -48.93792,3.21338 z m -77.03275,-29.3262 c -1.089,-1.09912 -3.701,-2.92674 -5.80444,-4.06138 -2.99592,-1.61604 -3.82445,-1.72143 -3.82445,-0.48646 0,0.86707 2.1042,2.64929 4.67599,3.96047 5.83713,2.97598 7.51686,3.17518 4.9529,0.58737 z m -11.545494,-5.92676 c 0.398464,-0.59042 -0.12855,-1.74665 -1.1711,-2.56939 -1.04256,-0.82273 -3.59786,-2.92922 -5.67846,-4.68108 -2.080581,-1.75185 -4.262261,-2.91385 -4.848181,-2.58222 -0.58591,0.33162 -1.37188,-0.47072 -1.74659,-1.78299 -0.37472,-1.31228 -1.27549,-2.04965 -2.00171,-1.6386 -0.72622,0.41104 -2.72791,-0.54165 -4.448183,-2.1171 -1.720278,-1.57544 -3.127776,-2.60063 -3.127776,-2.2782 0,0.32243 -2.521822,-1.75645 -5.604048,-4.6197 -5.071453,-4.71117 -8.974286,-6.78601 -7.904362,-4.20216 0.535501,1.29323 9.580995,10.41571 10.327815,10.41571 0.311676,0 2.417332,1.68542 4.679232,3.74538 6.183402,5.63135 17.538143,13.23069 19.937313,13.34337 0.47388,0.0223 1.18761,-0.4426 1.58605,-1.03302 z M 251.2242,251.8535 c 0.8659,-0.95552 1.00092,-1.71293 0.30535,-1.71293 -0.6858,0 -1.94546,0.77082 -2.79921,1.71293 -0.86591,0.95551 -1.00094,1.71292 -0.30537,1.71292 0.68582,0 1.94546,-0.77082 2.79923,-1.71292 z m -125.93994,-1.14195 c 0,-0.94211 -0.22054,-1.71292 -0.49005,-1.71292 -0.26954,0 -0.81305,0.77081 -1.20781,1.71292 -0.39475,0.94211 -0.17422,1.71292 0.49005,1.71292 0.6643,0 1.20781,-0.77081 1.20781,-1.71292 z M 56.176334,230.46159 c -3.139334,-3.28659 -5.70788,-6.39133 -5.70788,-6.89944 0,-0.5081 -1.001997,-1.90879 -2.226661,-3.11264 -2.167498,-2.13066 -2.22666,-2.13162 -2.22666,-0.0361 0,1.184 0.370794,1.94285 0.823987,1.68635 0.453192,-0.2565 1.16796,1.5036 1.58837,3.91135 0.910819,5.2164 6.113837,10.42608 10.412741,10.42608 2.887978,0 2.751449,-0.30626 -2.663897,-5.97561 z M 36.873175,185.98428 c -2.32154,-4.53643 -2.527394,-4.67673 -2.569279,-1.75102 -0.04772,3.33373 3.881242,10.01186 4.649117,7.90218 0.244151,-0.67078 -0.691776,-3.4388 -2.079838,-6.15116 z m 43.5407,23.90263 c -0.0105,-1.7272 -0.511291,-3.14036 -1.11286,-3.14036 -0.601568,0 -0.839545,-2.44091 -0.528836,-5.42425 0.419882,-4.03157 0.225381,-4.98445 -0.757539,-3.71133 -1.068608,1.38411 -1.326132,1.12304 -1.341561,-1.36004 -0.01052,-1.69013 -0.580212,-3.39055 -1.266023,-3.77873 -0.685812,-0.38817 -1.246931,-2.474 -1.246931,-4.63518 0,-2.16119 -0.498772,-3.92942 -1.108382,-3.92942 -1.474949,0 -1.096745,-3.77161 0.484917,-4.8358 2.953554,-1.98724 3.947199,-0.30635 5.390081,9.1181 0.84138,5.49562 1.975284,12.68183 2.519784,15.96937 0.5445,3.28752 0.53919,6.62771 -0.0117,7.42266 -0.64559,0.93143 -1.00857,0.32875 -1.02087,-1.69502 z m 142.130935,-2.76499 c -5.03566,-0.46277 -16.51023,-5.47315 -21.12779,-9.22546 -1.73903,-1.41316 -3.73449,-2.56939 -4.43436,-2.56939 -1.57791,0 -11.84576,-9.02242 -11.84576,-10.40894 0,-0.5558 2.40018,-1.01053 5.33373,-1.01053 2.93356,0 6.58181,-0.80059 8.10725,-1.77908 1.52541,-0.9785 3.42032,-1.41298 4.21089,-0.9655 0.81141,0.45925 1.10128,0.3155 0.66563,-0.33008 -0.42451,-0.629 0.8916,-2.60311 2.92465,-4.38691 2.03305,-1.78379 3.71351,-2.76171 3.73437,-2.17315 0.0208,0.58856 0.58026,0.21925 1.24312,-0.82069 0.66287,-1.03993 6.00688,-4.81672 11.87557,-8.39286 5.86871,-3.57612 13.19563,-8.50364 16.28205,-10.95002 7.10629,-5.63264 10.71642,-6.53882 14.20206,-3.56486 2.60598,2.22344 2.62205,2.53006 1.30532,24.90082 -0.81907,13.91556 -1.87882,23.10678 -2.74818,23.83511 -1.01801,0.85286 -1.14008,0.7434 -0.43507,-0.39012 0.6674,-1.07303 0.42745,-1.40591 -0.75226,-1.04364 -0.95272,0.29257 -1.73846,1.37435 -1.74609,2.40395 -0.0232,3.12485 -3.40368,5.06596 -9.96158,5.7199 -3.42906,0.34196 -5.2527,0.36184 -4.05253,0.0442 1.20017,-0.31765 2.18214,-1.0376 2.18214,-1.59991 0,-1.40999 -4.13774,0.10278 -5.36142,1.96019 -0.54843,0.83245 -1.95123,1.43131 -3.11733,1.33079 -1.16609,-0.10049 -4.08408,-0.36323 -6.48441,-0.58382 z m 8.10504,-1.51731 c 0.42386,-0.62808 0.17641,-1.14195 -0.54988,-1.14195 -0.72628,0 -1.32051,0.51387 -1.32051,1.14195 0,0.62807 0.24743,1.14194 0.54986,1.14194 0.30243,0 0.89667,-0.51387 1.32053,-1.14194 z M 120.29654,186.57396 c -3.08615,-2.20504 -8.13622,-6.18597 -11.22237,-8.84652 -3.08615,-2.66054 -7.57459,-6.28703 -9.974324,-8.05884 -2.39971,-1.77181 -5.23126,-4.56012 -6.29232,-6.19621 -5.276111,-8.1355 -6.394361,-20.78532 -2.561371,-28.97449 2.583761,-5.52016 16.495095,-19.10718 19.563275,-19.10718 1.07573,0 1.53424,-0.55056 1.05272,-1.26406 -1.42149,-2.1064 7.28483,0.11909 9.74613,2.49128 1.20017,1.15672 2.18212,3.15237 2.18212,4.43478 0,1.28239 0.49634,2.33164 1.10298,2.33164 0.60664,0 2.61492,5.52417 4.46285,12.27594 7.38913,26.99769 10.61516,39.80078 10.62936,42.18467 0.009,1.37609 0.57602,2.81958 1.26183,3.20776 2.29426,1.29855 1.28042,4.94887 -2.03856,7.33977 -5.01405,3.612 -11.18926,2.98507 -17.91232,-1.81854 z m 17.17475,0.9434 c 2.53913,-1.47578 -1.98817,-4.33019 -8.24946,-5.20115 -4.12185,-0.57337 -5.27532,-0.40516 -4.83186,0.70459 0.32041,0.80178 1.21382,1.3293 1.98535,1.17228 0.77155,-0.15702 1.4028,0.5403 1.4028,1.54961 0,1.18933 -0.68097,1.59579 -1.93516,1.15503 -1.10967,-0.38997 -1.61018,-0.19853 -1.17333,0.44879 0.91191,1.35131 10.54938,1.47992 12.80166,0.17085 z m -5.01718,-0.94021 c 0.85726,-0.31679 2.26006,-0.31679 3.11733,0 0.85726,0.31679 0.15586,0.57599 -1.55867,0.57599 -1.71453,0 -2.41593,-0.2592 -1.55866,-0.57599 z m -10.25418,-5.87485 c -0.38392,-0.3516 -1.39007,-7.3e-4 -2.2359,0.7797 -1.22233,1.12781 -1.0791,1.25897 0.69802,0.63926 1.22975,-0.42884 1.92179,-1.06737 1.53788,-1.41896 z m -5.02072,-0.22055 c -0.42385,-0.62807 -0.21128,-1.14195 0.47238,-1.14195 0.68367,0 1.1646,-0.95336 1.06876,-2.11858 -0.20197,-2.45558 -3.519,-2.62759 -5.1446,-0.26679 -0.75622,1.09823 -0.38246,2.09839 1.17353,3.14036 2.71903,1.82081 3.47927,1.94188 2.42993,0.38696 z m -3.11732,-2.28389 c 0,-0.62808 0.56112,-1.14195 1.24693,-1.14195 0.68581,0 1.24693,0.51387 1.24693,1.14195 0,0.62807 -0.56112,1.14194 -1.24693,1.14194 -0.68581,0 -1.24693,-0.51387 -1.24693,-1.14194 z m -1.24693,-3.42585 c 0,-0.62807 -1.26252,-1.13408 -2.80559,-1.12446 -2.26872,0.0142 -2.44768,0.22932 -0.9352,1.12446 2.4175,1.43077 3.74079,1.43077 3.74079,0 z m -5.61119,-3.42584 c -0.69307,-1.027 0.9436,-1.63658 3.42907,-1.27718 0.51435,0.0743 0.93519,-0.37865 0.93519,-1.00672 0,-1.81019 -0.55961,-2.87436 -1.37986,-2.62397 -0.41601,0.127 -1.49278,-1.02922 -2.39283,-2.56938 -1.65657,-2.83472 -3.70889,-3.75237 -3.70889,-1.65833 0,0.62807 -0.84167,1.14194 -1.8704,1.14194 -1.02871,0 -1.87039,-0.51387 -1.87039,-1.14194 0,-0.62808 0.65464,-1.14195 1.45476,-1.14195 0.80011,0 1.03478,-0.3846 0.52152,-0.85467 -1.07071,-0.98055 -4.470144,2.84762 -4.470144,5.0339 0,0.82392 0.80947,1.17436 1.85989,0.80521 1.061904,-0.37318 2.189134,0.13215 2.627274,1.17779 0.42205,1.00727 1.54901,1.8314 2.50436,1.8314 0.95534,0 1.67054,0.38541 1.58933,0.85646 -0.25097,1.45566 0.11521,2.56939 0.84472,2.56939 0.38339,0 0.35026,-0.51388 -0.0736,-1.14195 z m -8.624604,-12.56143 c 1.852564,0 2.342734,-1.37552 0.94602,-2.65464 -1.22967,-1.12613 -4.18154,1.52257 -4.0688,3.65092 0.0627,1.18344 0.3269,1.34006 0.72736,0.43116 0.34591,-0.78509 1.42387,-1.42744 2.39542,-1.42744 z m 11.722844,0.28549 c -0.0557,-2.49378 -1.98339,-3.37496 -4.96863,-2.27115 l -3.11733,1.15263 3.11733,0.87366 c 4.28061,1.19969 4.99069,1.23468 4.96863,0.24486 z m -16.191004,-8.27912 c 0,-0.62808 -0.59423,-1.14195 -1.32052,-1.14195 -0.72629,0 -0.97373,0.51387 -0.54988,1.14195 0.42386,0.62807 1.0181,1.14194 1.32053,1.14194 0.30243,0 0.54987,-0.51387 0.54987,-1.14194 z m 6.234654,-23.06735 c 0,-2.35366 -0.429254,-3.26112 -1.206094,-2.54969 -0.66335,0.6075 -0.87847,2.2519 -0.47804,3.65424 1.02705,3.59673 1.684134,3.16578 1.684134,-1.10455 z m 61.53854,32.00313 c -1.4731,-0.65294 -3.94607,-3.44449 -5.4955,-6.20342 -1.54942,-2.75895 -3.29003,-5.01626 -3.86802,-5.01626 -0.578,0 -1.05089,-1.32139 -1.05089,-2.93644 0,-1.61503 -0.84168,-3.70725 -1.87039,-4.64936 -1.06985,-0.97977 -1.8704,-3.76936 -1.8704,-6.51757 0,-4.6802 -5.29627,-18.08059 -8.57677,-21.70056 -0.88735,-0.97916 -1.22953,-2.34908 -0.7604,-3.04424 0.46913,-0.69516 0.003,-2.13083 -1.03549,-3.19037 -1.03866,-1.05956 -1.90727,-3.21115 -1.93026,-4.78133 -0.023,-1.57018 -0.30994,-4.396499 -0.63765,-6.280713 -3.47165,-19.960208 -5.11928,-65.980618 -2.7724,-77.437295 1.2124,-5.918547 6.92651,-8.0665566 19.66241,-7.39136 7.67675,0.406985 10.13614,0.150652 11.34306,-1.1822444 1.87629,-2.0721296 8.66993,-4.7739602 12.00392,-4.7739602 1.34086,0 4.64436,2.0613829 7.3411,4.5808511 l 4.90317,4.5808495 0.6871,11.41958 c 0.65802,10.936183 0.1557,16.12767 -4.6934,48.506568 -0.94061,6.280714 -2.34196,15.78743 -3.11411,21.126037 -3.83065,26.484897 -7.99287,46.620567 -12.68772,61.379707 -1.6759,5.26851 -1.6501,5.25227 -5.57736,3.51153 z m 25.74656,141.02863 c -2.40034,-0.2752 -11.93935,-2.06941 -21.19781,-3.98714 -15.48144,-3.20672 -30.85328,-8.56326 -48.63027,-16.94588 -2.40034,-1.13188 -8.01152,-3.65778 -12.4693,-5.61313 -10.465564,-4.5906 -9.924874,-4.26859 -31.362445,-18.67773 -21.29528,-14.31348 -30.658454,-23.03626 -35.935708,-33.47787 -2.077275,-4.11011 -3.776865,-7.76619 -3.776865,-8.12464 0,-0.35843 -1.093399,-2.7635 -2.429777,-5.34458 -1.336377,-2.58107 -4.552679,-11.6302 -7.147337,-20.10916 -4.229407,-13.82109 -4.750938,-17.00074 -5.040128,-30.72847 -0.177413,-8.4217 0.162514,-15.87291 0.755393,-16.55825 0.592879,-0.68534 1.457893,-3.65161 1.922252,-6.59171 0.464359,-2.94011 2.083149,-7.56499 3.59731,-10.27753 3.831825,-6.86451 19.749322,-23.89925 24.762506,-26.500575 2.28477,-1.185559 6.118043,-3.828837 8.518383,-5.873963 4.008458,-3.415263 5.228332,-3.776036 14.963161,-4.425306 5.829398,-0.388793 13.77439,-1.228328 17.655551,-1.865631 6.39304,-1.049767 7.72681,-0.887307 14.183114,1.727586 3.91956,1.587477 7.75806,2.890328 8.52998,2.895227 2.42325,0.01542 4.71131,5.827612 3.02616,7.687148 -2.11686,2.335914 -9.63585,5.579674 -14.99936,6.470874 -9.196524,1.52808 -34.630095,19.3923 -34.630095,24.32373 0,1.2869 -0.766977,2.92276 -1.704393,3.63525 -0.937416,0.71248 -2.672996,4.1156 -3.856845,7.56249 -1.183849,3.44688 -2.553972,6.26705 -3.044717,6.26705 -0.490747,0 -2.18941,3.95507 -3.774808,8.78905 -2.458465,7.49601 -2.801701,10.58593 -2.33305,21.00283 0.488445,10.85693 0.886059,12.58226 3.579128,15.53067 1.666302,1.82429 4.151876,5.3484 5.523499,7.83135 1.371623,2.48296 2.841172,4.77141 3.265663,5.08545 0.424491,0.31403 2.543335,3.21899 4.708543,6.45546 2.165206,3.23648 4.763768,6.17513 5.77458,6.53037 1.010813,0.35523 1.837841,1.15679 1.837841,1.78126 0,1.50836 10.115639,10.36582 11.785289,10.31945 0.71911,-0.02 0.32552,-0.71897 -0.87465,-1.55334 -2.73892,-1.90408 -2.78254,-2.97814 -0.12094,-2.97814 1.64554,0 1.48134,-0.46055 -0.81426,-2.2839 -3.13872,-2.493 -5.66354,-3.06724 -4.24518,-0.9655 0.55124,0.81683 0.34205,1.00841 -0.54988,0.50358 -2.07835,-1.17635 -1.77097,-4.10587 0.43081,-4.10587 2.35099,0 2.409,-1.59488 0.12126,-3.33367 -1.34316,-1.02088 -1.89914,-0.98707 -2.39542,0.14565 -0.35545,0.81131 -0.69058,-0.19065 -0.74472,-2.22656 -0.0637,-2.39624 -0.977919,-4.20465 -2.592305,-5.12796 -1.371623,-0.78447 -2.485267,-2.202 -2.474765,-3.15004 0.01528,-1.37978 0.229457,-1.4198 1.073402,-0.20053 0.84887,1.22638 1.201983,1.17075 1.812167,-0.28548 0.416816,-0.99478 0.214345,-1.80868 -0.449944,-1.80868 -0.664286,0 -1.207794,-0.85882 -1.207794,-1.90849 0,-1.04967 -0.864578,-2.78341 -1.921285,-3.85275 -1.145838,-1.15953 -2.159766,-4.96505 -2.512156,-9.42871 -0.539503,-6.83379 -0.364304,-7.55032 2.015254,-8.24197 1.433369,-0.41663 2.825598,-0.55652 3.093845,-0.31087 0.268244,0.24567 1.080627,4.78901 1.805292,10.09632 2.314419,16.95039 3.301999,20.52552 6.995689,25.32516 2.05035,2.66426 5.235881,5.17521 7.356911,5.799 5.3333,1.56848 7.397414,3.20831 5.43594,4.31851 -1.13568,0.6428 -0.61538,2.09398 1.980964,5.52505 3.39231,4.483 7.62417,6.51394 6.1268,2.94037 -0.39476,-0.9421 -0.14118,-1.71292 0.56352,-1.71292 0.70469,0 1.63367,1.46941 2.06439,3.26535 1.11964,4.66854 7.2697,9.77172 10.76695,8.93417 3.79618,-0.90914 7.34397,1.06531 7.3912,4.11341 0.0495,3.19693 5.51765,6.95474 8.93067,6.13736 1.82788,-0.43776 3.72403,0.51299 6.60776,3.31321 4.29692,4.17248 9.77843,5.27 11.05885,2.21422 0.39475,-0.9421 1.32957,-1.71292 2.07738,-1.71292 0.74781,0 1.01684,0.508 0.59784,1.12888 -0.43684,0.64732 0.0638,0.83876 1.17334,0.44879 1.34948,-0.47425 1.93516,0.008 1.93516,1.59281 0,2.21659 2.99036,3.63092 7.75032,3.66562 1.17653,0.009 3.8173,-1.48676 5.86839,-3.32295 l 3.72926,-3.33854 1.02251,4.76597 c 0.87756,4.09024 1.51545,4.81821 4.4991,5.13442 1.91212,0.20264 5.6882,-0.63367 8.39131,-1.85847 l 4.91472,-2.22689 2.17481,2.70081 c 2.1494,2.66925 2.31136,2.68671 13.85963,1.49436 15.83216,-1.63467 30.57544,-8.06146 34.3347,-14.96694 0.77714,-1.42754 2.60053,-3.13773 4.052,-3.80044 3.63972,-1.66183 9.10999,-6.55124 9.13611,-8.166 0.0125,-0.73274 -0.67985,-1.55696 -1.53712,-1.83157 -1.14246,-0.36597 -0.97599,-1.10148 0.62346,-2.75446 1.20017,-1.24034 2.18214,-2.62159 2.18214,-3.06945 0,-0.44786 1.13645,-1.93144 2.52544,-3.29682 1.38899,-1.36539 3.30183,-4.87681 4.25076,-7.80316 0.94892,-2.92634 3.43768,-8.89362 5.53058,-13.26063 5.1039,-10.64971 5.64908,-14.78629 3.96897,-30.11492 -1.81153,-16.52759 -3.47145,-24.41656 -6.34943,-30.17644 -1.25528,-2.51229 -2.67507,-5.85249 -3.15507,-7.42267 -0.48,-1.57017 -1.21794,-3.1118 -1.63986,-3.42584 -1.16961,-0.87053 -3.64437,-4.72657 -5.65477,-8.81093 -3.98908,-8.10434 -29.94402,-29.098114 -46.21548,-37.381621 -3.4175,-1.739788 -6.90437,-4.066372 -7.74858,-5.17019 -0.84423,-1.103817 -3.19331,-2.310688 -5.22019,-2.681934 -3.81687,-0.699104 -5.92732,-3.939286 -5.26151,-8.077996 0.19204,-1.19372 -0.35636,-3.377696 -1.21868,-4.853279 -1.27068,-2.1744 -1.25181,-3.223625 0.0996,-5.536026 0.91704,-1.569233 1.29119,-3.197629 0.83146,-3.618661 -1.59669,-1.462171 3.31781,-4.947669 6.97604,-4.947669 4.96971,0 17.81881,3.12469 23.88318,5.807996 2.71679,1.202101 5.59136,2.185639 6.38791,2.185639 2.36063,0 18.1661,8.017629 24.8923,12.627105 13.15035,9.011954 27.86814,24.960036 35.09076,38.024066 6.93782,12.54891 16.2295,36.5417 19.72264,50.92742 2.87652,11.84635 2.9446,37.51351 0.13344,50.30049 -2.77651,12.62931 -8.65473,28.58783 -12.75066,34.61615 -3.59867,5.29645 -15.25815,20.11814 -17.23978,21.91541 -12.02842,10.9094 -41.21269,24.88864 -56.12965,26.88602 -9.24081,1.23736 -33.37997,2.13204 -39.2783,1.4558 z m -82.29738,-32.91475 c -0.85376,-0.94211 -2.18498,-1.69658 -2.95826,-1.67661 -0.7733,0.02 -0.31679,0.7908 1.01446,1.71292 3.10943,2.15385 3.91493,2.1388 1.9438,-0.0363 z m -7.437724,-5.66135 c -0.87788,-0.96872 -2.33131,-1.76131 -3.22984,-1.76131 -0.89852,0 -1.98987,-1.02776 -2.42521,-2.2839 -0.43534,-1.25614 -1.642761,-2.2839 -2.683191,-2.2839 -1.73867,0 -14.756462,-8.5458 -19.13808,-12.56359 -1.028718,-0.9433 -2.992632,-2.46937 -4.364256,-3.39128 -1.832557,-1.23173 -1.667231,-0.79059 0.623466,1.66354 4.638918,4.96992 6.009087,6.2977 6.498785,6.2977 0.243247,0 4.351436,3.37733 9.129305,7.50519 4.77788,4.12787 10.221021,7.78756 12.095871,8.13268 2.04055,0.37561 3.09325,1.14462 2.62265,1.91587 -0.49238,0.80693 -0.17838,0.77306 0.84024,-0.0907 1.32301,-1.12178 1.32866,-1.7076 0.0303,-3.14036 z M 251.2242,251.28252 c 0,-0.62807 -0.24745,-1.14195 -0.54988,-1.14195 -0.30243,0 -0.89666,0.51388 -1.32052,1.14195 -0.42385,0.62807 -0.17642,1.14195 0.54987,1.14195 0.72628,0 1.32053,-0.51388 1.32053,-1.14195 z M 103.37392,237.08974 c -1.32048,-0.88426 -2.68143,-1.35082 -3.02435,-1.03678 -0.3429,0.31403 0.45694,1.29446 1.77742,2.17873 1.32048,0.88427 2.68143,1.35082 3.02434,1.03679 0.3429,-0.31404 -0.45693,-1.29447 -1.77741,-2.17874 z m -42.930026,-1.79449 c 0,-0.62807 -0.535415,-1.14195 -1.189812,-1.14195 -0.654397,0 -3.17943,-2.38634 -5.611184,-5.30297 -3.078135,-3.69191 -4.407951,-4.64597 -4.377189,-3.14036 0.06617,3.23847 2.969277,7.42891 6.327715,9.13363 3.623873,1.83946 4.85047,1.95367 4.85047,0.45165 z M 36.752223,186.82986 c 0,-0.27696 -0.561119,-0.82117 -1.246931,-1.20934 -0.685811,-0.38817 -1.24693,-0.16157 -1.24693,0.50357 0,0.66514 0.561119,1.20935 1.24693,1.20935 0.685812,0 1.246931,-0.22661 1.246931,-0.50358 z m 184.545657,20.30685 c -4.20235,-0.59419 -15.97388,-6.06537 -19.88086,-9.24025 -1.73903,-1.41316 -3.73449,-2.56939 -4.43436,-2.56939 -1.57791,0 -11.84576,-9.02242 -11.84576,-10.40894 0,-0.5558 2.40018,-1.01053 5.33373,-1.01053 4.51281,0 9.54791,-1.86962 12.12329,-4.50161 2.43554,-2.48906 15.78973,-11.92772 22.75647,-16.08413 4.62923,-2.76184 8.41679,-5.4264 8.41679,-5.92126 0,-0.49487 0.73669,-0.89975 1.6371,-0.89975 0.90041,0 3.22373,-1.51667 5.16297,-3.37036 4.74147,-4.53237 10.16129,-5.58472 13.41519,-2.60478 2.38672,2.18576 2.4232,3.00796 1.13037,25.47187 -1.32479,23.01917 -1.36391,23.23693 -4.67876,26.05187 -4.70855,3.99843 -19.08447,6.50851 -29.13617,5.08726 z M 120.29654,186.54842 c -3.08615,-2.21909 -8.51107,-6.41894 -12.05538,-9.33299 -3.54431,-2.91406 -7.91111,-6.23409 -9.704014,-7.37784 -1.79288,-1.14376 -4.72907,-4.2111 -6.52487,-6.8163 -2.728791,-3.95875 -3.363011,-6.45152 -3.861351,-15.17672 -0.40365,-7.0674 -0.1415,-10.69737 0.81151,-11.23677 0.77428,-0.43824 1.40778,-1.59445 1.40778,-2.56934 0,-2.39411 9.428931,-12.56111 15.199675,-16.38947 2.56705,-1.703 4.38341,-3.35641 4.03636,-3.67423 -0.34704,-0.31783 0.51349,-0.85198 1.91232,-1.18698 1.39882,-0.335 2.54332,-0.14332 2.54332,0.42595 0,0.56927 0.99753,1.03504 2.21675,1.03504 2.45949,0 6.51176,3.77449 6.51176,6.06538 0,0.80931 0.55424,1.97905 1.23163,2.59941 1.14847,1.05178 10.35681,32.84392 14.35888,49.57456 0.97654,4.08246 2.15677,8.90668 2.62273,10.72047 0.68377,2.66173 0.27165,3.70306 -2.13665,5.39886 -4.90707,3.45531 -11.99437,2.66949 -18.57045,-2.05903 z m 14.96316,-2.06985 c -0.85376,-0.94211 -2.86878,-1.71292 -4.4778,-1.71292 -2.08816,0 -2.72008,0.49027 -2.20778,1.71292 0.41842,0.99858 2.28582,1.71292 4.47781,1.71292 3.2009,0 3.52922,-0.25473 2.20777,-1.71292 z m -26.07869,-17.01134 c -0.86072,-0.94977 -2.56188,-1.32233 -4.20521,-0.92094 -2.72112,0.66466 -2.7161,0.68538 0.35758,1.48121 4.81552,1.2468 5.40715,1.16065 3.84763,-0.56027 z m -9.230494,-40.87115 c -0.39805,-0.91096 -0.69352,-0.64038 -0.75334,0.68994 -0.0541,1.20379 0.24056,1.87826 0.65491,1.4988 0.414344,-0.37947 0.458634,-1.3644 0.0984,-2.18874 z m -34.518902,56.16957 c 0,-0.62807 0.594235,-1.14195 1.320522,-1.14195 0.726284,0 0.97373,0.51388 0.549874,1.14195 -0.423856,0.62807 -1.018089,1.14195 -1.320521,1.14195 -0.302432,0 -0.549875,-0.51388 -0.549875,-1.14195 z m 95.065356,-23.97118 c -1.46599,-1.25079 -3.59964,-4.07711 -4.74145,-6.28071 -1.14181,-2.2036 -2.57321,-4.00655 -3.18087,-4.00655 -0.60767,0 -1.10486,-1.48666 -1.10486,-3.30367 0,-1.88316 -0.80423,-3.5863 -1.87039,-3.96098 -1.33894,-0.47054 -1.8704,-2.38721 -1.8704,-6.74548 0,-3.34848 -0.47362,-6.57634 -1.05251,-7.173 -0.57887,-0.59667 -2.31845,-4.01945 -3.86572,-7.60619 -1.54728,-3.58674 -3.59869,-7.11832 -4.55869,-7.84798 -2.16513,-1.64562 -2.31603,-3.77122 -0.18678,-2.631 0.85726,0.45906 0.5767,-0.19343 -0.62348,-1.44997 -1.20017,-1.25654 -2.18212,-3.82861 -2.18212,-5.7157 0,-1.8871 -0.33191,-3.73505 -0.73756,-4.10656 -0.40567,-0.37151 -1.00147,-5.210514 -1.32401,-10.753343 -0.32254,-5.542833 -1.25163,-13.418075 -2.06465,-17.500538 -1.54537,-7.759809 -1.7183,-38.078102 -0.27744,-48.639438 0.70369,-5.157853 1.46644,-6.542595 4.80223,-8.718065 3.35956,-2.190963 5.60783,-2.5951728 14.70951,-2.6445655 8.20307,-0.044513 11.56127,-0.5488235 14.20049,-2.1325169 1.90117,-1.1408172 5.69582,-2.3492582 8.43255,-2.6854262 4.60044,-0.565098 5.33903,-0.251033 9.78896,4.162465 2.64719,2.6255236 5.17954,6.1108066 5.62743,7.7450756 1.07437,3.920256 -0.25093,33.647668 -1.82438,40.922017 -1.29441,5.984295 -2.47883,13.067282 -5.82416,34.829412 -4.03594,26.254663 -7.14566,42.990133 -9.44253,50.816683 -5.7691,19.65809 -5.80651,19.71138 -10.82917,15.42603 z m 25.88686,141.97821 c -24.1461,-3.44316 -45.43948,-9.7897 -66.77005,-19.90098 -4.8333,-2.29112 -10.16392,-4.55485 -11.84584,-5.0305 -1.68191,-0.47567 -5.47091,-2.34189 -8.419984,-4.14716 -2.94909,-1.80526 -5.63941,-3.2823 -5.9785,-3.2823 -0.33909,0 -8.306901,-5.18252 -17.706242,-11.51671 C 52.80153,241.48858 44.141938,233.80176 39.496684,224.79122 30.984669,208.2802 29.369293,204.73396 27.635749,198.75292 c -1.00122,-3.45439 -3.376505,-10.9056 -5.278415,-16.55825 -3.022777,-8.98395 -3.449385,-12.07415 -3.389443,-24.55188 0.10512,-21.88076 4.268603,-33.44608 16.649493,-46.24889 1.214746,-1.25614 4.017979,-4.24109 6.229408,-6.63321 2.211427,-2.39213 6.599052,-5.936453 9.750278,-7.876268 3.151224,-1.939827 7.171616,-4.743549 8.934203,-6.230503 2.06775,-1.744398 5.164418,-2.865226 8.728511,-3.159256 3.038094,-0.250637 10.939421,-1.004812 17.558501,-1.675945 11.568241,-1.172949 17.433695,-0.583629 21.632415,2.173475 0.68582,0.45034 2.69381,1.134274 4.46221,1.519854 3.40296,0.741974 6.51978,5.364522 5.40729,8.019551 -0.83273,1.987343 -8.95671,5.573872 -18.24379,8.054162 -3.920054,1.04692 -7.464184,2.4026 -7.875854,3.01263 -0.41168,0.61001 -3.657221,2.83268 -7.212341,4.93925 -7.542486,4.46929 -17.06274,12.58221 -17.06274,14.54043 0,0.74764 -1.455666,4.2369 -3.234815,7.75389 -11.132008,22.00559 -12.261673,26.10251 -11.337053,41.11567 0.61461,9.9795 1.159567,12.40705 3.111168,13.85893 1.30132,0.96812 3.043714,2.91985 3.871987,4.33719 1.068906,1.82911 2.207652,2.37302 3.923864,1.87417 2.728267,-0.79301 3.5346,2.27167 0.859256,3.26583 -1.019575,0.37886 -1.123263,0.90548 -0.299796,1.52259 0.692377,0.51887 2.363055,2.87043 3.712616,5.2257 2.582966,4.50782 3.763934,5.20998 4.801605,2.85487 0.375722,-0.85274 0.668568,-0.62286 0.727377,0.57097 0.05414,1.09913 -0.531383,1.99841 -1.301169,1.99841 -0.96193,0 -0.910194,0.54006 0.165441,1.72701 1.082381,1.19438 2.030111,1.37353 3.073002,0.58088 0.829373,-0.63036 1.805897,-0.87326 2.170054,-0.53976 0.364158,0.33349 0.961396,-0.44178 1.327197,-1.72284 0.426378,-1.49319 0.06208,-2.32918 -1.014976,-2.32918 -1.988803,0 -3.312794,-1.73109 -3.846817,-5.02964 -0.213082,-1.31617 -1.010277,-4.44853 -1.771544,-6.96082 -0.761268,-2.51228 -1.376721,-5.4681 -1.367673,-6.56848 0.01393,-1.6943 -0.394249,-1.7994 -2.665227,-0.68634 -2.656169,1.30185 -2.660871,1.28527 -0.494335,-1.74289 1.203039,-1.68149 1.874312,-3.52111 1.491716,-4.08804 -0.382595,-0.56693 -0.116203,-1.35873 0.591982,-1.75957 0.708186,-0.40083 0.926011,-1.2646 0.484055,-1.9195 -0.936157,-1.3872 1.704808,-3.17653 4.725674,-3.20178 1.625384,-0.0136 2.273392,1.44807 2.9033,6.54872 2.946351,23.85789 7.200841,33.14797 16.119252,35.19789 3.37298,0.77529 7.061604,3.91382 4.59978,3.91382 -2.48668,0 -1.4981,2.22043 2.930914,6.58298 3.36289,3.31241 4.33806,3.79773 4.36426,2.17196 0.0503,-3.11756 3.0908,-1.6178 3.52926,1.74081 0.208,1.59332 2.05059,4.36432 4.09463,6.15776 3.19896,2.80676 4.05784,3.06556 6.1682,1.85859 3.34603,-1.9137 7.42565,0.44073 7.47864,4.31607 0.049,3.58724 5.31236,7.34035 9.04152,6.44725 1.97403,-0.47275 3.70981,0.39483 6.6287,3.31323 4.20004,4.19931 9.63905,5.31467 10.92706,2.24076 0.39475,-0.9421 1.32957,-1.71292 2.07738,-1.71292 0.74781,0 1.01684,0.508 0.59784,1.12888 -0.43684,0.64732 0.0638,0.83876 1.17334,0.44879 1.3568,-0.47682 1.93516,0.0119 1.93516,1.63527 0,5.21018 11.02434,3.89899 15.70412,-1.86779 1.0916,-1.34516 1.6613,-0.60153 2.84928,3.71914 l 1.48487,5.40048 5.25576,-0.77433 c 2.89067,-0.42588 6.48022,-1.48478 7.97677,-2.35309 2.45437,-1.42404 2.94316,-1.30936 4.98772,1.17029 2.23611,2.71193 2.42333,2.73418 13.87077,1.64785 11.77757,-1.11765 18.70011,-3.34968 27.97053,-9.0185 2.5633,-1.56746 4.66749,-3.40268 4.67598,-4.07829 0.0174,-1.37439 5.26031,-6.19428 6.7381,-6.19428 0.52291,0 2.64807,-1.55441 4.72256,-3.45426 3.11217,-2.85013 3.50144,-3.7526 2.22586,-5.16017 -1.24793,-1.37707 -1.1522,-2.10441 0.49653,-3.77285 1.12336,-1.1368 2.04249,-2.43333 2.04249,-2.88119 0,-0.44786 1.10906,-1.90452 2.4646,-3.23701 1.35552,-1.3325 3.37284,-5.29355 4.48289,-8.80236 1.11005,-3.50879 3.33257,-8.94901 4.9389,-12.08936 5.2747,-10.31191 6.03196,-15.30928 4.46099,-29.43938 -2.50481,-22.52951 -3.49681,-26.13119 -11.2349,-40.79042 -8.94843,-16.95216 -25.19534,-32.30881 -46.50521,-43.956905 -5.69519,-3.113007 -11.59059,-6.829254 -13.10093,-8.258312 -1.51033,-1.429059 -3.82638,-2.598289 -5.14678,-2.598289 -3.41359,0 -5.60407,-2.905184 -5.41118,-7.176734 0.0911,-2.019475 -0.49844,-4.859706 -1.31029,-6.311626 -1.14624,-2.049932 -1.13171,-3.144866 0.0649,-4.89973 0.84758,-1.242932 1.18653,-2.785229 0.75321,-3.427329 -1.52084,-2.253685 3.40197,-5.591331 8.24692,-5.591331 4.55522,0 18.03051,3.311493 25.50016,6.266558 20.30775,8.033932 26.8984,11.864631 39.69772,23.073562 16.63879,14.571317 26.15435,29.240526 35.76091,55.129026 8.51588,22.94927 10.05659,30.37987 10.18871,49.13877 0.19645,27.89018 -7.79228,54.92884 -20.64923,69.88941 -1.45838,1.69699 -4.61552,5.45916 -7.01587,8.36035 -2.40034,2.9012 -7.73096,7.72447 -11.84584,10.71837 -7.22906,5.25974 -27.73745,15.06338 -39.27828,18.77623 -9.05521,2.91317 -39.00478,4.96136 -49.87721,3.41098 z M 89.586865,257.52297 c -1.9695,-1.44745 -5.16291,-3.49381 -7.09647,-4.54745 -3.373918,-1.83853 -3.456695,-1.83072 -2.05455,0.19405 2.24696,3.24473 11.745621,9.60704 12.268341,8.21747 0.25498,-0.67778 -1.14782,-2.41663 -3.117321,-3.86407 z M 54.575351,230.76165 c -2.328134,-2.49014 -3.572724,-2.2404 -2.42968,0.48753 0.406105,0.9692 1.59217,1.76218 2.6357,1.76218 1.628764,0 1.599602,-0.31845 -0.20602,-2.24971 z M 218.80402,206.89036 c -8.99963,-2.10149 -33.66712,-18.17456 -33.66712,-21.93712 0,-0.5751 2.49007,-1.04564 5.53349,-1.04564 5.08158,0 6.50541,-0.73984 17.43418,-9.05905 6.54537,-4.98247 14.9971,-10.75518 18.78163,-12.82822 3.78453,-2.07305 6.88098,-4.163 6.88098,-4.64433 0,-0.48133 0.73669,-0.87515 1.6371,-0.87515 0.90041,0 3.24317,-1.53524 5.20614,-3.41163 4.99264,-4.77245 11.0724,-5.67674 14.38529,-2.13963 2.18889,2.33703 2.43378,3.76174 1.83749,10.69002 -0.37838,4.3965 -0.94714,14.3866 -1.26391,22.20022 -0.56865,14.02698 -0.62464,14.25259 -4.42747,17.84579 -2.81069,2.65575 -5.73495,3.98561 -10.82106,4.92105 -7.41077,1.36299 -16.38778,1.48135 -21.51674,0.28369 z M 66.678545,194.11773 c 0,-0.66514 0.561119,-0.89175 1.24693,-0.50358 0.685812,0.38817 1.24693,0.93238 1.24693,1.20935 0,0.27697 -0.561118,0.50357 -1.24693,0.50357 -0.685811,0 -1.24693,-0.5442 -1.24693,-1.20934 z m 54.048025,-7.14622 c -2.84963,-1.99919 -8.18027,-6.03257 -11.84584,-8.96307 -3.66557,-2.9305 -8.74733,-6.94897 -11.292824,-8.92993 -6.563161,-5.10761 -8.593041,-9.49618 -9.376941,-20.2727 -0.89244,-12.26861 1.1132,-17.14588 10.578351,-25.72423 11.705754,-10.60904 15.272574,-12.93858 15.272574,-9.97476 0,0.62807 1.03527,1.14195 2.3006,1.14195 2.73772,0 6.42791,3.43878 6.42791,5.98999 0,0.99733 0.50801,1.98461 1.12891,2.19398 0.62091,0.20935 4.28111,12.1998 8.13378,26.64544 3.85268,14.44565 7.82091,28.48377 8.81829,31.19585 1.7524,4.7651 1.71138,5.0245 -1.21898,7.70815 -4.52408,4.14319 -12.16083,3.73538 -18.92583,-1.01067 z m -57.050687,-2.49294 c 1.123404,-1.57018 2.565331,-2.85487 3.204284,-2.85487 1.371862,0 -2.871364,5.62131 -4.28289,5.67386 -0.530169,0.0198 -0.04479,-1.24881 1.078606,-2.81899 z m 96.358527,-25.97932 c -1.66205,-1.41316 -3.77598,-4.23948 -4.69761,-6.28071 -0.92164,-2.04123 -2.16875,-3.71133 -2.77135,-3.71133 -0.60261,0 -1.09566,-1.48666 -1.09566,-3.30367 0,-1.88316 -0.80423,-3.5863 -1.87039,-3.96098 -1.34727,-0.47346 -1.8704,-2.40509 -1.8704,-6.90647 0,-3.43703 -0.47789,-6.51964 -1.06197,-6.85023 -0.58409,-0.3306 -2.07032,-3.05877 -3.30275,-6.06262 -1.23242,-3.00386 -3.19774,-6.74624 -4.36737,-8.31642 -2.34878,-3.15312 -4.30219,-8.85279 -3.85619,-11.25157 0.158,-0.84975 -0.088,-2.391385 -0.54676,-3.425841 -0.45872,-1.034457 -1.00706,-3.679402 -1.21855,-5.877652 -0.21148,-2.19825 -1.13655,-9.64946 -2.05571,-16.558245 -1.87569,-14.098569 -1.78516,-54.601431 0.13238,-59.220287 2.16346,-5.211277 6.91972,-7.0069478 18.71651,-7.0662035 8.21688,-0.04127 11.45358,-0.5380573 14.15311,-2.1722761 1.92498,-1.165319 6.14711,-2.351708 9.38257,-2.636419 5.33574,-0.469533 6.04425,-0.241053 7.62139,2.4577624 0.95633,1.6364798 2.39559,2.9754182 3.19833,2.9754182 2.96986,0 4.35298,5.987605 4.29895,18.610386 -0.0535,12.509298 -0.36029,15.59175 -4.1141,41.34188 -1.00715,6.908784 -2.4939,17.186316 -3.30391,22.838958 -3.56149,24.854079 -11.40455,60.404599 -13.84376,62.750039 -0.62052,0.59667 -1.12822,2.00983 -1.12822,3.14036 0,2.80371 -2.75708,2.58229 -6.39854,-0.51388 z m 25.72596,142.5689 c -0.68581,-0.24899 -5.45532,-1.2873 -10.59891,-2.30736 -16.60914,-3.29386 -25.47563,-5.41354 -29.4913,-7.05041 -2.16109,-0.8809 -4.24864,-1.60163 -4.63904,-1.60163 -0.64041,0 -10.19042,-3.74923 -18.24072,-7.16112 -1.71453,-0.72665 -4.52012,-2.17157 -6.23465,-3.21093 -1.71453,-1.03935 -4.52012,-2.2735 -6.23465,-2.74253 -7.92271,-2.16741 -41.885582,-23.66648 -58.064891,-36.75605 -8.265873,-6.68736 -8.679125,-7.29607 -19.819081,-29.1926 -3.240119,-6.36874 -5.584471,-12.89501 -10.97904,-30.56377 -4.843749,-15.86466 -3.114693,-42.40965 3.607567,-55.38447 3.613339,-6.97421 20.062279,-24.71572 26.392708,-28.466679 2.541702,-1.506024 6.291109,-4.196088 8.332014,-5.977915 2.732659,-2.385773 5.033328,-3.271306 8.728511,-3.359627 2.759775,-0.06596 10.881745,-0.713293 18.048827,-1.438515 12.790301,-1.294222 13.186141,-1.262854 21.426345,1.697885 6.47609,2.32689 8.72682,3.749466 9.84553,6.222868 0.79762,1.763522 1.147,3.655729 0.7764,4.204892 -0.9952,1.474689 -10.51289,5.449021 -17.64687,7.368861 -6.557614,1.76474 -15.917795,7.41154 -25.467527,15.36407 -4.038898,3.36338 -6.729739,7.03297 -9.211044,12.56143 -1.927926,4.29549 -4.797681,10.12244 -6.377233,12.94876 -5.181668,9.27165 -7.410087,19.48846 -6.538261,29.97651 0.430707,5.18139 1.140601,10.57692 1.577541,11.99008 1.1434,3.69798 4.548982,3.11582 6.831888,-1.16788 1.321943,-2.48052 4.16837,-4.71697 8.70647,-6.8407 7.821419,-3.66025 8.416311,-3.21866 8.569251,6.36095 0.04821,3.01926 0.619215,7.64415 1.26892,10.27754 0.6497,2.63339 1.51905,6.726 1.9319,9.0947 0.94179,5.4036 7.01088,11.86755 13.309701,14.17566 4.439094,1.62664 6.432894,3.7856 3.49598,3.7856 -1.72654,0 1.576104,5.71054 4.892084,8.45881 2.31496,1.91863 2.62152,1.95169 2.62152,0.28279 0,-2.17994 3.64514,-2.60882 3.93071,-0.46247 0.10447,0.78508 0.32029,1.94131 0.47964,2.56938 0.15934,0.62807 0.35443,1.7493 0.43354,2.49163 0.0791,0.74231 1.84696,2.4603 3.92858,3.81774 2.95477,1.92686 4.16777,2.17695 5.53147,1.14047 2.7191,-2.06667 6.88526,0.51445 6.93305,4.2953 0.0537,4.25323 5.03773,7.51134 9.97193,6.51885 3.16025,-0.63567 3.86461,-0.3283 4.88609,2.13217 1.98407,4.77915 10.18895,7.28463 11.73926,3.58474 1.09747,-2.61917 4.46324,-2.03877 5.71907,0.98621 2.15809,5.19831 7.54169,5.47435 12.80251,0.65644 4.2246,-3.86891 5.23454,-3.52482 6.90974,2.35417 1.08351,3.80253 1.37618,3.97941 6.02053,3.63847 2.68492,-0.19709 6.10612,-1.08539 7.60267,-1.97399 2.47156,-1.46751 2.92882,-1.36256 4.98772,1.14478 2.2338,2.72033 2.42597,2.74393 13.23488,1.62533 6.03249,-0.6243 13.57512,-2.15847 16.76138,-3.40927 7.82135,-3.07035 16.4351,-8.15614 16.49094,-9.7367 0.0341,-0.96545 9.98652,-9.40218 14.87464,-12.60932 0.26918,-0.17662 -0.2291,-1.11398 -1.10728,-2.08305 -1.31376,-1.44971 -1.23477,-2.12822 0.44577,-3.82885 1.12336,-1.1368 2.04249,-2.43333 2.04249,-2.88119 0,-0.44786 1.08883,-1.88463 2.41961,-3.1928 1.33079,-1.30817 3.62986,-6.04003 5.10903,-10.51526 1.47919,-4.47523 3.99786,-10.70616 5.59707,-13.84652 4.22177,-8.29035 4.78256,-12.88706 3.17001,-25.98376 -2.1244,-17.25354 -3.98901,-26.02996 -6.54003,-30.78265 -1.25076,-2.33025 -2.27411,-4.9914 -2.27411,-5.91366 0,-0.92227 -0.70967,-2.35591 -1.57705,-3.18585 -0.86737,-0.82996 -2.97155,-3.97848 -4.67598,-6.99673 -8.10223,-14.34772 -27.12165,-30.27091 -49.85883,-41.74215 -2.40033,-1.211012 -5.43318,-3.284271 -6.73964,-4.607246 -1.30646,-1.322976 -3.34195,-2.40541 -4.52331,-2.40541 -3.15699,0 -5.37798,-3.043512 -5.25269,-7.198022 0.0606,-2.007766 -0.52041,-4.838418 -1.29101,-6.290338 -1.03996,-1.959454 -1.03517,-3.176432 0.0186,-4.721695 0.7808,-1.145013 1.1376,-3.069583 0.79289,-4.276823 -0.46245,-1.619488 0.47741,-2.739567 3.58469,-4.272064 4.00481,-1.975146 4.57489,-1.982849 11.61658,-0.156964 26.65439,6.911386 43.93994,15.621326 60.41245,30.440957 6.48612,5.835279 21.18498,22.818385 21.18498,24.477175 0,0.42115 1.88509,4.442 4.18909,8.93523 2.30399,4.49322 4.59172,9.71112 5.08386,11.59534 0.49215,1.88421 1.65839,4.96747 2.59168,6.85168 2.09268,4.22496 5.01123,13.11196 8.25051,25.12286 1.83333,6.79784 2.49728,13.37272 2.59462,25.69383 0.28824,36.48685 -10.381,63.01459 -34.06896,84.7082 -7.24414,6.63426 -10.73942,8.74005 -24.42127,14.71315 -8.78192,3.83392 -16.91239,7.42505 -18.0677,7.98026 -3.76771,1.8107 -17.5149,3.37367 -34.68387,3.94337 -9.25845,0.3072 -17.39467,0.35482 -18.08048,0.10585 z M 67.925475,185.16884 c 0,-1.24176 -0.576603,-1.13733 -2.493861,0.45168 -1.371623,1.1368 -2.49386,2.50548 -2.49386,3.04153 0,0.53605 1.122237,0.3328 2.49386,-0.45167 1.371624,-0.78448 2.493861,-2.15317 2.493861,-3.04154 z m 154.619335,22.7428 c -10.05809,-1.40863 -37.40791,-18.2032 -37.40791,-22.9709 0,-0.40841 2.75523,-0.98502 6.12272,-1.28135 5.34432,-0.47029 7.20699,-1.41604 14.65142,-7.4391 4.69081,-3.79517 12.73711,-9.37519 17.8807,-12.40004 9.91639,-5.83163 10.38917,-6.15003 16.32572,-10.99434 2.09209,-1.70717 5.74499,-3.43746 8.11753,-3.84508 3.53148,-0.60674 4.75894,-0.27103 6.7688,1.85125 1.35028,1.42581 2.44166,3.1561 2.42529,3.84509 -0.21328,8.97685 -2.57116,42.5857 -3.09339,44.09257 -1.13897,3.28643 -9.53048,7.68483 -16.20426,8.49344 -3.42906,0.41548 -7.07633,0.90816 -8.10504,1.09486 -1.02873,0.18669 -4.39543,-0.0142 -7.48158,-0.4464 z M 120.05996,186.41335 c -29.441625,-21.2397 -31.131315,-23.2243 -31.951065,-37.52761 -0.82904,-14.46545 2.77402,-20.75674 19.019335,-33.20954 5.0567,-3.87619 6.93366,-4.54906 6.93366,-2.48565 0,0.67412 0.98196,1.04472 2.18213,0.82354 2.25285,-0.41519 7.46868,4.49065 6.79229,6.38862 -0.20765,0.58269 0.19054,1.38097 0.88487,1.77396 0.69433,0.39299 4.90505,13.80087 9.35715,29.79529 4.4521,15.99442 8.44802,30.16695 8.87984,31.49451 1.16665,3.58685 -4.56067,7.31051 -11.11915,7.22918 -3.96722,-0.0492 -6.45791,-1.02066 -10.97906,-4.2823 z m 41.06478,-26.58263 c -1.20501,-0.64265 -3.38457,-3.32487 -4.84351,-5.9605 -1.45892,-2.63562 -3.16643,-5.09521 -3.79448,-5.46576 -0.62804,-0.37054 -1.23198,-1.91217 -1.34209,-3.42585 -0.11007,-1.51366 -1.00021,-3.31033 -1.97798,-3.99261 -1.05636,-0.73712 -1.77775,-3.24517 -1.77775,-6.1807 0,-4.96498 -5.0863,-16.95374 -9.74488,-22.96933 -1.27086,-1.64107 -1.96673,-3.29876 -1.54635,-3.68373 0.42036,-0.38499 0.0768,-1.45854 -0.76333,-2.38569 -0.8402,-0.92714 -1.1645,-2.73353 -0.72067,-4.01419 0.44383,-1.28067 0.35851,-2.975422 -0.18962,-3.76613 -0.54812,-0.790708 -1.10754,-2.722347 -1.24316,-4.292525 -1.0707,-12.396664 -2.89749,-28.71253 -3.60614,-32.208094 -0.4717,-2.326703 -0.44491,-13.302922 0.0594,-24.391596 0.9074,-19.946978 0.95427,-20.19927 4.41015,-23.74144 3.43188,-3.5175491 3.70173,-3.5824632 15.41632,-3.7085479 6.55781,-0.070584 12.63847,-0.6619358 13.51254,-1.3141217 3.24734,-2.422952 10.8768,-4.651697 13.65012,-3.98752 3.66125,0.87683 10.8317,7.8054736 11.82363,11.4249136 1.205,4.396943 -0.38235,35.111042 -2.46341,47.664786 -2.90179,17.5047 -4.79899,30.038723 -5.87691,38.826225 -3.07183,25.04273 -11.9799,58.86818 -15.47877,58.7756 -0.72178,-0.0191 -2.29825,-0.56054 -3.50323,-1.20319 z m 23.3887,141.02359 c -1.37163,-0.31736 -10.03617,-2.16148 -19.25454,-4.09804 -9.21837,-1.93655 -18.75739,-4.25682 -21.19781,-5.15613 -6.44104,-2.37359 -17.13547,-6.89036 -25.01148,-10.56356 -3.77196,-1.75916 -8.15598,-3.56574 -9.74225,-4.01462 -7.23993,-2.04875 -45.86967,-26.763 -57.937427,-37.06678 -6.273764,-5.35671 -8.603619,-8.56901 -14.964965,-20.633 -4.143891,-7.85871 -8.534147,-17.62875 -9.756123,-21.71121 -1.221976,-4.08246 -3.476461,-11.27674 -5.009967,-15.98727 -2.315799,-7.11355 -2.773236,-11.17653 -2.699926,-23.98091 0.1072,-18.72219 3.043466,-30.67932 9.381581,-38.20381 12.433438,-14.76073 16.959415,-19.30744 22.682535,-22.786397 3.482618,-2.117011 7.801939,-5.195257 9.598491,-6.840552 2.366828,-2.16756 4.426187,-2.941527 7.477315,-2.81019 2.315972,0.09969 10.433886,-0.411221 18.039811,-1.135361 13.396601,-1.275454 19.195545,-0.752664 23.578945,2.125713 0.68582,0.45034 2.64973,1.132005 4.36426,1.514811 4.32769,0.966248 6.89221,6.196324 4.31643,8.802888 -2.11188,2.137138 -8.55909,4.782768 -16.25672,6.671018 -9.346034,2.2926 -31.957592,17.98381 -33.587599,23.30799 -0.42401,1.38496 -1.78392,4.57362 -3.022024,7.08591 -1.238104,2.51228 -3.648999,7.39411 -5.357546,10.8485 -5.475367,11.07026 -7.648339,20.71889 -6.781395,30.11136 0.427714,4.63384 1.338064,9.77505 2.023002,11.42489 1.295747,3.12113 3.800926,4.11008 3.800926,1.50045 0,-3.04648 13.997657,-12.2041 18.654276,-12.2041 0.747164,0 1.296696,2.78245 1.296818,6.5662 2.59e-4,7.9233 3.039317,23.1451 5.477987,27.43776 2.37161,4.17461 6.812971,7.72244 11.322021,9.04421 3.04685,0.89315 3.7442,1.75552 3.91356,4.83964 0.222634,4.05399 5.286824,9.8094 6.345104,7.21118 1.22976,-3.01927 6.64023,-0.0733 5.72862,3.11924 -0.27628,0.96758 1.19111,3.24507 3.26088,5.06109 3.07236,2.69569 4.10022,3.0457 5.59898,1.90656 2.59769,-1.97437 6.98291,0.36642 6.98291,3.7274 0,3.52408 6.04316,7.53234 10.24681,6.79641 2.58633,-0.45278 3.54746,0.0578 4.90193,2.60386 2.28028,4.2864 7.86932,5.96091 11.06251,3.31442 2.63703,-2.18557 6.20893,-1.5601 6.20893,1.08723 0,1.85335 3.66923,4.07284 6.73315,4.07284 1.05016,0 3.63143,-1.54163 5.73615,-3.42584 2.10473,-1.88422 4.28882,-3.42585 4.85356,-3.42585 0.56472,0 1.53897,2.18398 2.165,4.85328 1.09938,4.68754 1.2864,4.84054 5.47661,4.48009 2.38612,-0.20526 6.01404,-1.12572 8.06205,-2.04548 2.048,-0.91976 3.89187,-1.2101 4.09748,-0.64521 1.47659,4.05679 3.28575,4.49828 14.24443,3.4761 5.96377,-0.55628 13.50639,-2.05688 16.76139,-3.33466 9.11291,-3.57738 16.56553,-8.28483 16.6159,-10.49545 0.025,-1.09912 0.46636,-2.00898 0.98072,-2.0219 0.51436,-0.0129 3.74079,-2.2844 7.16985,-5.04773 4.90189,-3.95022 5.91302,-5.32604 4.73011,-6.43604 -1.17843,-1.1058 -0.92119,-2.17746 1.18686,-4.94431 1.48026,-1.94289 2.99897,-3.78945 3.37493,-4.10349 2.41165,-2.01449 4.15856,-5.47524 6.91716,-13.70337 1.15813,-3.4544 3.47435,-9.03097 5.14715,-12.3924 3.36697,-6.76579 3.85849,-12.33562 2.48394,-28.14676 -1.62402,-18.68061 -2.99691,-23.15355 -12.37045,-40.30367 -8.60936,-15.75198 -26.27983,-31.87861 -46.59348,-42.522647 -5.24424,-2.747904 -10.82389,-6.176594 -12.39926,-7.619313 -1.57534,-1.44272 -3.92194,-2.623126 -5.21465,-2.623126 -2.84992,0 -5.63233,-5.075752 -4.52845,-8.260929 0.43626,-1.258813 0.0597,-3.543921 -0.83681,-5.078019 -1.24022,-2.122276 -1.29052,-3.287094 -0.21034,-4.871107 0.7808,-1.145013 1.12173,-3.125166 0.75761,-4.400344 -0.47222,-1.653705 0.30085,-2.896302 2.69611,-4.333595 3.01014,-1.806266 4.14966,-1.86537 10.99603,-0.570333 11.13895,2.107009 33.36139,10.609947 42.32621,16.195201 18.16691,11.318338 35.94765,29.208982 43.02771,43.293672 8.32692,16.56515 18.65645,46.73705 20.13408,58.81032 2.93111,23.94941 -2.18208,55.48169 -11.76944,72.58051 -5.23481,9.33614 -14.18029,20.48332 -22.39819,27.91091 -7.05307,6.37479 -11.48642,9.17791 -21.89128,13.84148 -7.17593,3.21632 -14.44993,6.23401 -16.16445,6.70596 -1.71454,0.47197 -3.67846,1.26163 -4.36426,1.7548 -3.55321,2.55514 -46.03839,5.61338 -53.61799,3.85961 z m 36.78444,-92.94496 c -5.69154,-0.82761 -14.95158,-5.10716 -22.28355,-10.29838 -7.78993,-5.51547 -14.10323,-11.37009 -13.63829,-12.64745 0.2583,-0.70969 3.05112,-1.38438 6.20627,-1.49932 5.11078,-0.18617 6.57153,-0.91687 13.38958,-6.69774 4.20914,-3.56883 13.11138,-9.79843 19.78278,-13.84356 6.67141,-4.04514 13.28741,-8.3601 14.70224,-9.58882 5.98109,-5.19435 12.43198,-6.28676 15.97171,-2.70471 1.90963,1.93245 1.98291,4.13352 0.81975,24.62181 -1.30099,22.9156 -1.70983,24.86014 -5.969,28.39012 -1.99756,1.65556 -19.688,5.7646 -22.54481,5.23657 -0.45402,-0.0839 -3.35053,-0.51975 -6.43668,-0.96852 z m -99.13095,-19.68432 c -2.05743,-1.35405 -7.10749,-5.09356 -11.22237,-8.31003 -4.11486,-3.21646 -9.55645,-7.2716 -12.092384,-9.0114 -6.41392,-4.40033 -9.387211,-9.57584 -10.776761,-18.75884 -2.23792,-14.78948 2.28727,-24.18991 16.887885,-35.08213 6.91735,-5.16043 9.09859,-6.09032 9.09859,-3.87885 0,0.67057 1.04796,0.91429 2.32957,0.54177 1.6469,-0.4787 3.00707,0.25169 4.64155,2.49243 1.27159,1.74325 2.15758,3.63634 1.96888,4.20686 -0.18873,0.57052 0.18393,1.34133 0.82814,1.71292 0.64419,0.37159 2.70582,5.81439 4.58141,12.0951 7.18546,24.06165 11.83598,41.19522 11.83598,43.60632 0,1.37928 0.56112,2.82537 1.24693,3.21355 2.14447,1.21377 1.36783,4.63664 -1.63903,7.2236 -3.90621,3.36075 -12.54193,3.3357 -17.68839,-0.0513 z m 38.53902,-28.7864 c -1.39761,-0.89651 -3.57159,-3.72283 -4.83108,-6.28071 -1.25948,-2.5579 -2.70504,-4.65071 -3.21235,-4.65071 -0.5073,0 -1.30826,-1.40801 -1.77989,-3.12891 -0.47163,-1.72091 -1.5144,-3.50074 -2.31729,-3.95518 -0.8029,-0.45443 -1.50951,-3.28589 -1.57025,-6.29215 -0.0671,-3.3197 -1.4135,-8.05692 -3.42905,-12.06466 -1.82524,-3.62933 -3.31862,-6.86186 -3.31862,-7.18343 0,-0.32155 -1.17154,-2.03583 -2.60341,-3.80949 -1.44961,-1.79561 -2.77967,-5.44436 -3.00107,-8.23288 -0.21871,-2.75442 -0.53466,-5.264978 -0.70214,-5.579013 -0.16747,-0.314036 -0.47195,-2.112604 -0.67661,-3.996818 -0.20466,-1.884214 -1.10191,-9.592363 -1.99389,-17.129219 -1.58936,-13.429389 -1.86196,-52.446573 -0.41611,-59.555693 1.20983,-5.948633 5.66508,-7.8019139 19.05577,-7.9267574 8.44891,-0.078772 12.11675,-0.5756102 13.71623,-1.8579732 4.28587,-3.43617 10.88376,-4.839441 15.14818,-3.221781 2.12777,0.807149 3.86867,1.839148 3.86867,2.2933317 0,0.4541835 1.40211,2.3188771 3.11581,4.1437639 2.98283,3.176396 3.11412,3.951423 3.07652,18.163296 -0.0216,8.164928 -0.54521,18.185521 -1.16357,22.267985 -0.61837,4.082464 -1.71333,11.790612 -2.43327,17.129219 -0.71995,5.338606 -2.14713,14.845323 -3.17153,21.126036 -1.02441,6.280714 -2.407,15.530493 -3.07241,20.555063 -3.19963,24.16037 -10.7842,50.81669 -14.45898,50.81669 -0.7087,0 -2.43205,-0.73351 -3.82966,-1.63001 z m 20.69016,140.93635 c -33.70718,-6.87859 -35.62526,-7.45726 -60.47611,-18.24492 -5.48649,-2.38166 -11.93935,-5.16712 -14.33969,-6.18989 -2.40034,-1.02277 -8.404774,-4.2913 -13.343174,-7.26339 -33.192945,-19.97659 -48.791788,-32.75068 -54.980005,-45.02386 -2.120205,-4.20503 -5.252562,-10.37155 -6.960794,-13.70337 -3.584394,-6.99119 -9.952595,-27.55815 -12.106274,-39.09884 -2.36702,-12.68388 0.297848,-35.50033 5.435789,-46.54093 1.078416,-2.31734 4.124671,-6.42836 6.769458,-9.13559 2.644786,-2.70724 6.8961,-7.32131 9.44736,-10.25353 2.551263,-2.9322 6.74272,-6.508461 9.314349,-7.947246 2.571629,-1.438786 6.639605,-4.311116 9.039945,-6.382964 3.348953,-2.890648 5.379558,-3.733761 8.728511,-3.624105 2.40034,0.0786 10.579931,-0.45915 18.17687,-1.194989 12.109991,-1.172973 14.492405,-1.107524 19.327425,0.530951 3.03313,1.02786 6.81911,2.150884 8.41328,2.495607 1.59415,0.344723 3.4039,1.844243 4.02165,3.332259 0.61775,1.488015 2.0218,2.70548 3.12011,2.70548 1.39813,0 0.94001,0.805187 -1.52779,2.68521 -4.76081,3.626887 -7.73279,4.971817 -16.52305,7.477317 -10.282684,2.93089 -33.761565,18.59736 -33.761565,22.52767 0,0.75932 -1.402796,3.93836 -3.117326,7.06452 -1.714528,3.12615 -3.117325,6.22226 -3.117325,6.88024 0,0.65796 -1.093237,2.89578 -2.429417,4.97292 -1.33618,2.07713 -3.686292,8.32713 -5.222473,13.88888 -2.549769,9.23147 -2.665069,10.91648 -1.323706,19.34473 0.808142,5.07784 1.926411,9.65102 2.485042,10.16261 0.558632,0.51161 2.604337,-0.99925 4.546012,-3.35745 3.443181,-4.1818 12.495522,-9.42639 16.270269,-9.42639 1.435199,0 1.884365,1.39003 1.884365,5.83155 0,3.20734 0.924969,10.46168 2.055489,16.12073 2.3445,11.73591 6.93815,18.65786 13.787911,20.77635 4.43829,1.37267 8.161934,4.09123 5.603804,4.09123 -2.190644,0 -1.837394,1.57879 1.12496,5.02775 2.09428,2.43829 2.9764,2.78193 4.38764,1.70932 1.38513,-1.05277 2.30906,-0.89275 4.28081,0.74142 1.38294,1.14619 2.24545,2.72594 1.91668,3.51057 -0.32877,0.78463 0.54604,2.75828 1.94402,4.3859 2.13157,2.48169 3.20994,2.8445 6.68187,2.24799 3.53449,-0.60724 4.45397,-0.27257 6.28596,2.288 1.18024,1.64961 1.82042,3.29734 1.42265,3.66163 -0.39779,0.36428 0.80535,1.84026 2.67361,3.27995 2.38348,1.83671 4.40204,2.44165 6.76622,2.02776 2.73352,-0.47856 3.58918,-0.0604 4.53416,2.2158 0.64064,1.54313 2.96019,3.48675 5.15457,4.31917 3.50941,1.33126 4.13003,1.28398 5.15459,-0.39264 1.74274,-2.85193 5.87125,-2.32985 7.50239,0.94874 0.7812,1.57018 1.75113,2.86188 2.1554,2.87046 0.40427,0.009 1.92948,0.30915 3.38935,0.66794 1.89033,0.46458 3.7869,-0.36161 6.58937,-2.87047 2.16428,-1.93753 4.39712,-3.5228 4.96186,-3.5228 0.56472,0 1.53897,2.18398 2.165,4.85328 1.0994,4.68767 1.28628,4.84052 5.47661,4.47962 2.38612,-0.20551 5.58117,-1.1048 7.10012,-1.99841 3.76713,-2.21624 5.02915,-2.04633 6.01919,0.81042 0.79773,2.30177 1.43417,2.40272 11.61814,1.84292 6.78674,-0.37305 13.26468,-1.50389 17.50355,-3.05553 7.9208,-2.89942 17.58578,-8.98304 17.58578,-11.06938 0,-0.80632 1.44583,-2.38931 3.21297,-3.51776 7.03815,-4.49438 10.75282,-8.39399 9.40872,-9.87718 -0.95218,-1.05071 0.0232,-3.14655 3.63306,-7.80673 2.71408,-3.50372 6.11715,-9.89878 7.56238,-14.21124 1.44522,-4.31247 4.05467,-10.61961 5.7988,-14.01586 3.04977,-5.93876 3.14157,-6.74709 2.39944,-21.12604 -0.81991,-15.8857 -3.06622,-27.91829 -6.33073,-33.91123 -1.09614,-2.01227 -1.99297,-4.1054 -1.99297,-4.6514 0,-0.54601 -2.63015,-5.22042 -5.84479,-10.38757 -8.08525,-12.9962 -25.72561,-28.86869 -42.2448,-38.011124 -6.7419,-3.731257 -13.52392,-7.940329 -15.07117,-9.35349 -1.54724,-1.41316 -3.97481,-2.569382 -5.39458,-2.569382 -3.1622,0 -5.43167,-4.792515 -4.36856,-9.225254 0.4135,-1.724175 0.15773,-3.45281 -0.57197,-3.865828 -1.61238,-0.912607 -1.75242,-5.942458 -0.19006,-6.82675 0.62142,-0.351728 0.8537,-1.606639 0.51617,-2.788689 -0.70129,-2.455935 3.69918,-5.842177 7.59198,-5.842177 9.12942,0 36.86615,9.77179 49.45096,17.421829 16.61739,10.101348 34.20655,28.013295 41.68957,42.454655 5.28971,10.20848 14.34366,33.44168 18.05269,46.32468 4.35435,15.1244 4.89354,37.06161 1.32024,53.7137 -2.92867,13.64808 -8.38039,29.18635 -12.72763,36.27579 -5.84933,9.53902 -17.69058,23.0129 -24.41481,27.78102 -7.09621,5.03191 -24.84544,13.60313 -37.31172,18.01809 -10.87475,3.85132 -45.7307,5.9739 -57.76663,3.51774 z m 39.2783,-92.49797 c -5.90297,-1.02678 -15.28833,-5.42517 -21.14661,-9.91024 -2.30651,-1.76587 -6.15664,-4.49536 -8.55581,-6.06554 -7.55155,-4.94222 -9.1123,-9.93238 -2.64134,-8.445 5.06458,1.16411 8.44314,-0.31517 17.47148,-7.64976 4.75069,-3.85947 13.96825,-10.29949 20.48347,-14.31119 6.5152,-4.0117 13.75245,-8.57516 16.08275,-10.14103 5.04058,-3.38707 10.15942,-3.66042 13.08604,-0.69881 1.9463,1.96957 2.01374,4.08144 0.81101,25.39163 l -1.31186,23.24337 -3.62138,3.3165 c -2.72325,2.49396 -5.73701,3.69135 -12.15184,4.82803 -9.41219,1.66777 -11.21199,1.71076 -18.50591,0.44204 z m -93.91332,-17.18005 c -2.81563,-1.03508 -13.00805,-8.01723 -21.08082,-14.44108 -2.20955,-1.75823 -5.45412,-4.13259 -7.210144,-5.27635 -5.66355,-3.68884 -9.324781,-10.45133 -10.584441,-19.55004 -2.07396,-14.98056 1.86825,-22.79638 17.447695,-34.59178 6.08698,-4.60855 8.20792,-5.68298 8.51819,-4.31522 0.26002,1.14624 1.21332,1.58865 2.57211,1.1937 2.58345,-0.75093 8.11431,4.54229 7.15027,6.84303 -0.35389,0.8446 -0.13864,1.6973 0.47837,1.89489 1.38596,0.44387 8.51307,23.07648 13.05889,41.4694 1.86273,7.53685 4.13702,15.56053 5.05396,17.83039 1.59192,3.94078 1.51779,4.23712 -1.64289,6.56621 -1.82053,1.34154 -4.2646,2.43917 -5.43126,2.43917 -1.16667,0 -2.8685,0.22481 -3.78186,0.49957 -0.91336,0.27477 -2.95999,0.0219 -4.54807,-0.56189 z m 33.73588,-30.76054 c -1.46599,-1.25079 -3.64675,-4.20558 -4.84614,-6.5662 -1.19939,-2.36061 -2.52082,-4.54897 -2.93652,-4.86301 -2.40658,-1.81803 -6.23224,-11.02627 -6.23224,-15.00082 0,-3.26755 -1.89278,-8.22007 -6.35699,-16.63333 -4.08292,-7.69462 -6.15421,-12.95194 -5.7901,-14.69628 0.35743,-1.71235 -0.28849,-3.424874 -1.74805,-4.634539 -1.27323,-1.05524 -2.30635,-2.481316 -2.29586,-3.169066 0.0103,-0.687738 0.56303,-0.479629 1.22784,0.462478 1.07444,1.522593 1.22727,1.522593 1.3755,0 0.0918,-0.942107 0.0408,-2.226799 -0.11327,-2.85487 -0.25353,-1.034102 -1.01387,-8.416887 -3.30017,-32.043826 -0.42912,-4.434605 -0.36577,-16.161514 0.14078,-26.059796 0.84379,-16.488596 1.16176,-18.253319 3.79395,-21.056752 2.7191,-2.8959789 3.51485,-3.0690525 14.85638,-3.2311931 7.75469,-0.1108603 12.96333,-0.7301455 14.76038,-1.7549365 4.61802,-2.633476 9.59251,-4.35446 12.58655,-4.35446 3.08706,0 9.55913,4.7997695 11.83233,8.7750236 1.7016,2.975641 1.82988,28.081778 0.20315,39.757763 -0.61254,4.396499 -1.97119,14.341475 -3.01926,22.099947 -1.04804,7.75847 -2.17818,14.952742 -2.51141,15.98727 -0.33323,1.034525 -1.21029,7.001489 -1.94903,13.259907 -3.1908,27.03195 -11.66988,58.85086 -15.6825,58.85086 -0.73144,0 -2.52934,-1.02337 -3.99532,-2.27417 z m 4.68905,137.2085 c -18.14748,-4.1157 -31.27811,-8.58468 -47.38334,-16.12683 -3.77196,-1.76642 -8.26091,-3.59469 -9.97544,-4.06282 -6.68235,-1.82452 -45.509407,-27.15236 -57.022056,-37.19687 -6.522347,-5.69061 -8.956527,-9.01892 -15.176534,-20.75122 -4.074519,-7.68546 -8.581365,-18.08456 -10.01521,-23.10913 -1.433848,-5.02457 -3.540331,-11.96191 -4.681077,-15.4163 -2.910654,-8.81401 -2.905756,-36.5865 0.0082,-46.59099 1.152422,-3.95659 2.945977,-8.70031 3.98568,-10.5416 3.265839,-5.78373 20.212657,-23.619998 25.802322,-27.156565 2.943082,-1.862071 6.948848,-4.749612 8.901701,-6.416752 3.301738,-2.818673 4.525507,-3.068201 17.457021,-3.559503 7.648508,-0.290589 15.067969,-1.07687 16.487689,-1.747294 1.99172,-0.940531 4.2702,-0.658599 9.975434,1.234332 4.06678,1.349305 8.93722,2.729688 10.8232,3.067518 2.12683,0.380974 3.42905,1.348639 3.42905,2.548083 0,1.06361 1.54308,2.470433 3.42906,3.126276 l 3.42906,1.192445 -3.30793,1.241457 c -1.81936,0.682805 -3.66684,1.773285 -4.10549,2.423294 -1.00747,1.492859 -6.84314,3.900689 -15.65479,6.459249 -9.450724,2.74412 -30.039604,16.74105 -31.801327,21.61947 -0.453625,1.25615 -2.13069,4.85328 -3.726811,7.99364 -10.885912,21.41796 -12.350075,26.66639 -11.532385,41.33894 0.364855,6.54692 1.032247,12.24132 1.483092,12.65421 0.450845,0.41288 2.190909,-0.85385 3.86681,-2.81496 3.543669,-4.14673 12.941964,-9.49709 16.682345,-9.49709 2.280594,0 2.587969,0.70302 2.621224,5.99522 0.02072,3.29738 1.042437,10.70115 2.270487,16.45282 2.32906,10.90834 6.48332,17.56298 12.031531,19.27314 5.35783,1.65148 8.330324,4.04511 6.935184,5.58462 -1.963334,2.16651 3.24563,8.10512 5.56384,6.34317 2.51325,-1.9102 6.8284,1.05238 6.8284,4.68808 0,1.63579 1.15362,3.93027 2.56362,5.09886 2.11911,1.75632 2.98391,1.88433 4.98772,0.7383 3.25701,-1.8628 7.31837,0.38546 8.25506,4.56977 0.97254,4.34449 4.60664,7.05256 8.31906,6.19924 2.43013,-0.55857 3.6596,0.0621 6.2256,3.14312 3.6504,4.38298 7.54768,5.77322 9.65753,3.44505 2.22978,-2.46052 4.80149,-1.91442 8.62168,1.83081 4.52194,4.4332 6.41589,4.31756 11.75574,-0.71779 l 4.39418,-4.14362 1.27702,3.07602 c 0.70235,1.6918 1.27701,3.98466 1.27701,5.09524 0,1.11058 0.30821,2.30151 0.68493,2.6465 1.09661,1.00429 10.93544,-1.36444 13.09225,-3.152 2.14461,-1.77743 4.92677,-0.33022 4.92677,2.5628 0,3.17063 18.61547,1.41285 30.54979,-2.88468 5.73465,-2.06505 15.89254,-8.29269 14.94363,-9.16172 -0.7419,-0.67943 5.63,-7.02413 7.05426,-7.02413 0.52633,0 2.43573,-1.35427 4.24312,-3.00949 2.56049,-2.34492 2.91719,-3.22033 1.61533,-3.9643 -1.36455,-0.77981 -1.37846,-1.3271 -0.0759,-2.98574 0.87717,-1.11701 1.92457,-2.93021 2.32755,-4.02933 0.40298,-1.09913 1.1074,-1.99841 1.56535,-1.99841 1.43553,0 4.81118,-6.04408 7.66907,-13.7314 1.51198,-4.06705 3.93976,-9.70708 5.39503,-12.5334 2.25539,-4.38025 2.63626,-7.1706 2.58032,-18.90392 -0.0917,-19.21324 -3.33042,-34.32594 -9.40892,-43.90322 -0.59795,-0.9421 -1.92593,-3.25455 -2.95108,-5.13876 -9.22393,-16.95328 -32.55333,-37.158137 -52.56351,-45.523534 -2.13926,-0.894331 -4.66429,-2.625033 -5.61119,-3.846005 -0.94688,-1.22097 -3.28454,-2.574296 -5.19478,-3.00739 -3.77201,-0.855202 -6.46541,-5.397676 -5.40417,-9.114226 0.342,-1.197699 -0.22589,-3.362466 -1.26196,-4.810591 -1.42649,-1.993804 -1.55958,-3.187742 -0.54823,-4.918358 0.73454,-1.256969 1.33553,-3.26729 1.33553,-4.46738 0,-3.107924 3.93884,-5.9618 8.2283,-5.9618 4.49523,0 20.05735,3.875136 27.82012,6.927515 17.05093,6.704551 29.651,14.67634 42.59307,26.947715 16.34353,15.496554 22.68275,26.192674 33.72838,56.909634 7.26278,20.19721 8.74544,27.79649 8.78213,45.01266 0.0195,9.15889 -0.50208,17.93722 -1.15912,19.5074 -0.65705,1.57018 -1.58096,5.42425 -2.05316,8.56461 -3.12067,20.75426 -20.9994,49.92217 -37.40252,61.01965 -8.90795,6.02664 -35.50906,17.70189 -44.37622,19.47675 -3.77197,0.755 -15.83601,1.58019 -26.809,1.83377 -19.73504,0.45606 -20.15997,0.41363 -39.2783,-3.92226 z m 54.36907,-88.94866 c -1.98726,-0.2706 -5.76366,-1.73524 -8.39201,-3.25475 -2.62835,-1.51951 -5.25327,-2.76275 -5.83315,-2.76275 -0.5799,0 -2.37222,-1.28469 -3.98294,-2.85487 -1.61072,-1.57018 -3.54196,-2.85487 -4.29167,-2.85487 -2.15027,0 -13.35602,-10.3275 -12.80807,-11.80423 0.27106,-0.7305 2.40576,-1.36077 4.74376,-1.40061 7.41409,-0.12637 7.93829,-0.36492 16.14858,-7.34899 4.42928,-3.76774 12.80338,-9.52176 18.60911,-12.78671 5.80572,-3.26494 12.53914,-7.50498 14.96316,-9.4223 8.98423,-7.10629 13.05845,-7.93415 16.67414,-3.38816 2.05167,2.57958 2.21157,4.45748 1.52824,17.94979 -1.52348,30.08213 -1.78004,31.61426 -5.8661,35.03209 -5.29239,4.42687 -19.13524,6.57907 -31.49305,4.89636 z m -93.0239,-17.07549 c -2.43437,-0.91378 -22.43449,-15.37013 -22.47828,-16.2476 -0.0184,-0.36968 -2.17621,-1.88148 -4.795014,-3.35956 -2.61882,-1.47809 -5.79075,-4.28316 -7.04875,-6.23348 -5.582091,-8.65413 -6.640651,-25.30365 -2.121481,-33.36771 3.558281,-6.34944 14.439955,-16.49687 21.291835,-19.85514 3.41137,-1.67201 3.98664,-1.55794 3.07809,0.61035 -0.59854,1.42846 -0.22035,1.68407 1.67605,1.13285 2.58533,-0.75147 7.90369,3.62861 7.90369,6.50931 0,0.8117 0.53166,1.96402 1.18145,2.56069 0.64982,0.59667 4.32719,12.64707 8.17196,26.77868 3.84477,14.1316 7.59443,27.8778 8.33256,30.5471 0.73815,2.66931 1.87334,4.85328 2.52264,4.85328 0.6493,0 -0.46295,1.26648 -2.47165,2.81439 -3.67493,2.83191 -11.76833,4.56114 -15.2431,3.25684 z m 34.10761,-30.91724 c -1.47224,-1.09437 -3.8684,-4.17374 -5.32478,-6.84304 -1.45639,-2.6693 -3.19769,-4.85328 -3.86957,-4.85328 -0.67188,0 -1.22159,-1.22177 -1.22159,-2.71505 0,-1.49327 -0.84168,-3.35476 -1.87039,-4.13664 -1.23356,-0.93756 -1.8704,-3.48955 -1.8704,-7.49509 0,-3.34042 -0.47789,-6.34398 -1.06197,-6.67457 -0.58409,-0.3306 -2.07032,-3.05877 -3.30275,-6.06262 -1.23242,-3.00386 -3.30365,-6.85655 -4.60274,-8.56155 -1.29908,-1.705 -2.70201,-5.72936 -3.11761,-8.94302 -0.63559,-4.91477 -1.27088,-6.031298 -3.99899,-7.028162 -1.87655,-0.685705 -2.58323,-1.409495 -1.67692,-1.717535 0.86154,-0.292807 1.19033,-1.089704 0.73065,-1.770865 -0.53168,-0.787841 -0.0808,-0.973145 1.23916,-0.509274 1.50925,0.530389 2.07494,0.106315 2.07494,-1.555664 0,-1.298501 -1.16296,-2.678839 -2.69395,-3.197509 -2.30566,-0.781106 -2.39552,-1.017534 -0.62347,-1.640284 2.46203,-0.865223 2.67923,-6.473185 0.71652,-18.4995 -1.38117,-8.463044 -1.57748,-24.156344 -0.51337,-41.041123 0.70059,-11.116534 2.43295,-14.870432 7.7105,-16.708013 4.74294,-1.6514478 16.78166,-2.1952286 19.46655,-0.8792923 1.69461,0.8305743 2.89712,0.6876093 4.40861,-0.5241393 3.77719,-3.028144 9.99828,-5.368031 14.17404,-5.331172 3.98027,0.03514 8.4787,2.136399 8.4787,3.9604999 0,0.4895908 0.98196,1.5468541 2.18213,2.3494745 3.08437,2.0626902 4.1157,22.1430342 1.99076,38.7606502 -3.67409,28.732306 -5.26481,40.154162 -5.96607,42.838361 -0.40802,1.561762 -1.24334,7.207507 -1.85627,12.546117 -2.93408,25.55609 -11.25865,57.31991 -15.18611,57.94521 -0.95633,0.15226 -2.94335,-0.61856 -4.41561,-1.71292 z"
       inkscape:connector-curvature="0" />
  </g>
</svg>
