<?xml version="1.0" encoding="UTF-8" standalone="no"?>
<!-- Created with Inkscape (http://www.inkscape.org/) -->

<svg
   xmlns:dc="http://purl.org/dc/elements/1.1/"
   xmlns:cc="http://creativecommons.org/ns#"
   xmlns:rdf="http://www.w3.org/1999/02/22-rdf-syntax-ns#"
   xmlns:svg="http://www.w3.org/2000/svg"
   xmlns="http://www.w3.org/2000/svg"
   xmlns:sodipodi="http://sodipodi.sourceforge.net/DTD/sodipodi-0.dtd"
   xmlns:inkscape="http://www.inkscape.org/namespaces/inkscape"
   width="64.457146"
   height="90.006821"
   id="svg2994"
   version="1.1"
   inkscape:version="0.48.4 r9939"
   sodipodi:docname="New document 2">
  <defs
     id="defs2996" />
  <sodipodi:namedview
     id="base"
     pagecolor="#ffffff"
     bordercolor="#666666"
     borderopacity="1.0"
     inkscape:pageopacity="0.0"
     inkscape:pageshadow="2"
     inkscape:zoom="0.35"
     inkscape:cx="-64.2"
     inkscape:cy="65.003407"
     inkscape:document-units="px"
     inkscape:current-layer="layer1"
     showgrid="false"
     fit-margin-top="0"
     fit-margin-left="0"
     fit-margin-right="0"
     fit-margin-bottom="0"
     inkscape:window-width="1186"
     inkscape:window-height="760"
     inkscape:window-x="1"
     inkscape:window-y="59"
     inkscape:window-maximized="0" />
  <metadata
     id="metadata2999">
    <rdf:RDF>
      <cc:Work
         rdf:about="">
        <dc:format>image/svg+xml</dc:format>
        <dc:type
           rdf:resource="http://purl.org/dc/dcmitype/StillImage" />
        <dc:title></dc:title>
      </cc:Work>
    </rdf:RDF>
  </metadata>
  <g
     inkscape:label="Layer 1"
     inkscape:groupmode="layer"
     id="layer1"
     transform="translate(-439.2,-507.35877)">
    <path
       id="path4936"
       d="m 479.9188,507.36559 c -3.2721,0.13655 -6.3717,1.38491 -8.0938,4.125 l -3.9062,6.21875 c -0.028,0.0433 -0.066,0.0809 -0.094,0.125 l -26.4062,42.03125 -0.3438,0.5625 -0.031,0.6875 -1.625,31.65625 -0.2188,4.59375 4,-2.1875 27.8438,-15.21875 0.5938,-0.3125 0.375,-0.5625 30.4062,-48.375 c 1.9681,-3.13154 1.4088,-6.99684 -0.4062,-10.3125 -1.8151,-3.31569 -4.9277,-6.42556 -8.875,-8.90625 -3.9473,-2.4807 -8.0378,-3.89644 -11.8126,-4.09375 -0.4718,-0.0247 -0.9388,-0.0508 -1.4062,-0.0312 z m 0.1875,5.125 c 0.2943,-0.008 0.609,0.0141 0.9375,0.0312 2.628,0.13737 6.0557,1.25768 9.375,3.34375 3.3193,2.08605 5.7989,4.66039 7.0625,6.96875 1.0669,1.94898 1.2465,3.45045 0.8437,4.5625 -0.107,-0.21996 -0.1945,-0.44073 -0.3124,-0.65625 -1.8151,-3.31566 -4.8966,-6.42558 -8.8438,-8.90625 -3.9473,-2.48072 -8.069,-3.89644 -11.8438,-4.09375 -0.2412,-0.0126 -0.4781,-0.03 -0.7187,-0.0312 0.7056,-0.70485 1.8281,-1.17196 3.5,-1.21875 z m -4,6.375 c 0.2943,-0.008 0.609,-0.0172 0.9375,0 2.6281,0.13737 6.0557,1.2577 9.375,3.34375 3.3193,2.08604 5.7988,4.69161 7.0625,7 1.2209,2.23045 1.3062,3.85243 0.6563,5 l -2.1563,3.46875 c -0.1602,-0.35851 -0.3397,-0.71259 -0.5313,-1.0625 -1.7489,-3.1948 -4.7532,-6.22291 -8.625,-8.65625 -3.8719,-2.43333 -7.9253,-3.84113 -11.5624,-4.03125 -0.4018,-0.021 -0.7918,-0.0116 -1.1876,0 l 2.0938,-3.34375 0.031,0 0.063,-0.125 c 0.6569,-0.93513 1.8731,-1.53861 3.8437,-1.59375 z m -6.0313,8.9375 c 0.3151,-0.01 0.6543,0.0132 1,0.0312 2.6059,0.13624 5.8533,1.15961 9.0626,3.0625 l -18.2813,29.09375 c -4.7667,2.83797 -9.249,2.49184 -13.4063,1.59375 l -1.7812,-0.375 20.5625,-32.78125 c 0.7499,-0.36846 1.6971,-0.59035 2.8437,-0.625 z m -8.375,34.28125 c -0.143,6.03979 2.7835,10.36224 5.5938,13.8125 l 0.1562,0.1875 -17.8124,9.71875 c -0.8799,-1.7025 -2.3489,-2.61527 -4.5626,-2.84375 l 1.0313,-20.125 0.7187,0.1875 c 4.3249,1.03505 9.4988,1.80449 14.875,-0.9375 z"
       style="font-size:medium;font-style:normal;font-variant:normal;font-weight:normal;font-stretch:normal;text-indent:0;text-align:start;text-decoration:none;line-height:normal;letter-spacing:normal;word-spacing:normal;text-transform:none;direction:ltr;block-progression:tb;writing-mode:lr-tb;text-anchor:start;color:#000000;fill:#666666;fill-opacity:1;stroke:none;stroke-width:20.41600037;marker:none;visibility:visible;display:inline;overflow:visible;enable-background:accumulate;font-family:'.PhonepadTwo';-inkscape-font-specification:'.PhonepadTwo'"
       inkscape:connector-curvature="0"
       sodipodi:nodetypes="cccccccccccccccscccccssccscccccscccccsccccccccccccccccccccccc" />
  </g>
</svg>
